#N canvas 97 125 251 202 12;
#X obj 154 43 alien \$1;
#X obj 154 18 inlet;
#X obj 80 43 symbol \$1;
#X obj 80 20 loadbang;
#X obj 27 69 else/sequencer;
#X obj 28 120 playdir~;
#X obj 27 148 outlet~;
#X msg 79 94 \$1;
#X obj 24 42 inlet;
#X obj 153 148 outlet;
#X connect 0 0 4 1;
#X connect 0 0 9 0;
#X connect 1 0 0 0;
#X connect 2 0 7 0;
#X connect 3 0 2 0;
#X connect 4 0 5 0;
#X connect 5 0 6 0;
#X connect 7 0 5 1;
#X connect 8 0 4 0;
