#N canvas 32 34 1069 785 12;
#X declare -lib Gem;
#X obj 362 28 tgl 19 0 empty empty empty 0 -10 0 12 #fcfcfc #000000 #000000 0 1;
#X obj 33 373 else/out~;
#X text 31 427 be careful with your ears;
#X obj 424 38 r tempo;
#N canvas 500 48 888 733 visuals 1;
#X text 123 50 I can crash Pd if I delete GEM objects without having a GEM window open FYI;
#N canvas 339 345 450 300 puzzle_effect 0;
#X obj 42 173 outlet;
#X obj 43 117 inlet;
#N canvas 565 255 787 662 togglefx 0;
#X obj 89 290 outlet;
#X obj 36 37 inlet;
#X obj 121 172 spigot 1;
#X obj 32 245 spigot 0;
#X msg 127 94 0 1;
#X msg 165 94 1 0;
#X obj 122 125 unpack 0 0;
#X obj 124 37 inlet;
#X obj 189 297 outlet;
#X obj 237 27 inlet;
#X obj 299 58 loadbang;
#X obj 124 68 route 0 1;
#X connect 1 0 3 0;
#X connect 1 0 2 0;
#X connect 2 0 8 0;
#X connect 3 0 0 0;
#X connect 4 0 6 0;
#X connect 5 0 6 0;
#X connect 6 0 3 1;
#X connect 6 1 2 1;
#X connect 7 0 11 0;
#X connect 9 0 0 0;
#X connect 10 0 4 0;
#X connect 11 0 4 0;
#X connect 11 1 5 0;
#X restore 43 143 pd togglefx;
#X obj 144 143 pix_puzzle;
#X msg 144 117 size \$1 \$1;
#X floatatom 151 76 5 0 0 0 - - - 0;
#X obj 95 57 inlet;
#X obj 157 43 inlet;
#X obj 100 103 != 1;
#X connect 1 0 2 0;
#X connect 2 0 0 0;
#X connect 2 1 3 0;
#X connect 3 0 2 2;
#X connect 4 0 3 0;
#X connect 5 0 4 0;
#X connect 6 0 8 0;
#X connect 7 0 5 0;
#X connect 8 0 2 1;
#X restore 972 212 pd puzzle_effect;
#X obj 1095 121 tgl 20 0 empty empty empty 0 -10 0 12 #fcfcfc #000000 #000000 0 1;
#X obj 1006 374 tgl 20 0 empty empty empty 0 -10 0 12 #fcfcfc #000000 #000000 0 1;
#X floatatom 1075 376 5 0 0 0 - - - 0;
#N canvas 225 340 667 458 movement_effect 0;
#X obj 42 173 outlet;
#X obj 43 117 inlet;
#N canvas 565 255 787 662 togglefx 0;
#X obj 89 290 outlet;
#X obj 36 37 inlet;
#X obj 121 172 spigot 1;
#X obj 32 245 spigot 0;
#X msg 127 94 0 1;
#X msg 165 94 1 0;
#X obj 122 125 unpack 0 0;
#X obj 124 37 inlet;
#X obj 189 297 outlet;
#X obj 237 27 inlet;
#X obj 299 58 loadbang;
#X obj 124 68 route 0 1;
#X connect 1 0 3 0;
#X connect 1 0 2 0;
#X connect 2 0 8 0;
#X connect 3 0 0 0;
#X connect 4 0 6 0;
#X connect 5 0 6 0;
#X connect 6 0 3 1;
#X connect 6 1 2 1;
#X connect 7 0 11 0;
#X connect 9 0 0 0;
#X connect 10 0 4 0;
#X connect 11 0 4 0;
#X connect 11 1 5 0;
#X restore 43 143 pd togglefx;
#X obj 95 57 inlet;
#X floatatom 322 130 3 0 100 2 lo_threshold - - 0;
#X obj 321 146 / 100;
#X obj 278 172 pix_movement2;
#X floatatom 376 151 3 0 100 2 threshold - - 0;
#X obj 375 167 / 100;
#X obj 277 64 pix_2grey;
#X obj 108 103 != 1;
#X connect 1 0 2 0;
#X connect 2 0 0 0;
#X connect 2 1 9 0;
#X connect 3 0 10 0;
#X connect 4 0 5 0;
#X connect 5 0 6 1;
#X connect 6 0 2 2;
#X connect 7 0 8 0;
#X connect 8 0 6 2;
#X connect 9 0 6 0;
#X connect 10 0 2 1;
#X restore 972 145 pd movement_effect;
#N canvas 425 264 544 372 lumaofset_effect 0;
#X obj 42 173 outlet;
#X obj 43 117 inlet;
#N canvas 565 255 787 662 togglefx 0;
#X obj 89 290 outlet;
#X obj 36 37 inlet;
#X obj 121 172 spigot 1;
#X obj 32 245 spigot 0;
#X msg 127 94 0 1;
#X msg 165 94 1 0;
#X obj 122 125 unpack 0 0;
#X obj 124 37 inlet;
#X obj 189 297 outlet;
#X obj 237 27 inlet;
#X obj 299 58 loadbang;
#X obj 124 68 route 0 1;
#X connect 1 0 3 0;
#X connect 1 0 2 0;
#X connect 2 0 8 0;
#X connect 3 0 0 0;
#X connect 4 0 6 0;
#X connect 5 0 6 0;
#X connect 6 0 3 1;
#X connect 6 1 2 1;
#X connect 7 0 11 0;
#X connect 9 0 0 0;
#X connect 10 0 4 0;
#X connect 11 0 4 0;
#X connect 11 1 5 0;
#X restore 43 143 pd togglefx;
#X obj 95 57 inlet;
#X obj 157 43 inlet;
#X obj 201 171 pix_lumaoffset;
#X floatatom 246 113 5 0 0 2 offset - - 0;
#X floatatom 294 116 5 0 0 2 gap - - 0;
#X obj 283 133 tgl 15 0 empty empty empty 0 -6 0 8 #fcfcfc #000000 #000000 0 1;
#X msg 283 151 smooth \$1;
#X msg 215 150 fill \$1;
#X obj 215 132 tgl 15 0 empty empty empty 0 -6 0 8 #fcfcfc #000000 #000000 0 1;
#X obj 210 45 inlet;
#X obj 266 44 inlet;
#X obj 108 103 != 1;
#X connect 1 0 2 0;
#X connect 2 0 0 0;
#X connect 2 1 5 0;
#X connect 3 0 14 0;
#X connect 4 0 11 0;
#X connect 5 0 2 2;
#X connect 6 0 5 1;
#X connect 7 0 5 2;
#X connect 8 0 9 0;
#X connect 9 0 5 0;
#X connect 10 0 5 0;
#X connect 11 0 10 0;
#X connect 12 0 6 0;
#X connect 13 0 7 0;
#X connect 14 0 2 1;
#X restore 976 401 pd lumaofset_effect;
#X obj 1043 368 tgl 20 0 empty empty empty 0 -10 0 12 #fcfcfc #000000 #000000 0 1;
#X obj 1014 450 tgl 20 0 empty empty empty 0 -10 0 12 #fcfcfc #000000 #000000 0 1;
#N canvas 743 479 450 300 gain_effect 0;
#X obj 42 173 outlet;
#X obj 43 117 inlet;
#N canvas 569 279 787 662 togglefx 0;
#X obj 89 290 outlet;
#X obj 36 37 inlet;
#X obj 121 172 spigot 1;
#X obj 32 245 spigot 0;
#X msg 127 94 0 1;
#X msg 165 94 1 0;
#X obj 122 125 unpack 0 0;
#X obj 124 37 inlet;
#X obj 189 297 outlet;
#X obj 237 27 inlet;
#X obj 299 58 loadbang;
#X obj 124 68 route 0 1;
#X connect 1 0 3 0;
#X connect 1 0 2 0;
#X connect 2 0 8 0;
#X connect 3 0 0 0;
#X connect 4 0 6 0;
#X connect 5 0 6 0;
#X connect 6 0 3 1;
#X connect 6 1 2 1;
#X connect 7 0 11 0;
#X connect 9 0 0 0;
#X connect 10 0 4 0;
#X connect 11 0 4 0;
#X connect 11 1 5 0;
#X restore 43 143 pd togglefx;
#X floatatom 151 76 5 0 0 0 - - - 0;
#X obj 95 57 inlet;
#X obj 157 43 inlet;
#X obj 142 177 pix_gain;
#X msg 267 124 saturate \$1;
#X obj 272 94 tgl 18 0 empty empty empty 0 -9 0 10 #fcfcfc #000000 #000000 0 1;
#X obj 97 103 != 1;
#X connect 1 0 2 0;
#X connect 2 0 0 0;
#X connect 2 1 6 0;
#X connect 3 0 6 1;
#X connect 4 0 9 0;
#X connect 5 0 3 0;
#X connect 6 0 2 2;
#X connect 7 0 6 0;
#X connect 8 0 7 0;
#X connect 9 0 2 1;
#X restore 975 489 pd gain_effect;
#X obj 1072 458 / 10;
#X obj 1025 183 tgl 20 0 empty empty empty 0 -10 0 12 #fcfcfc #000000 #000000 0 1;
#X floatatom 1072 433 5 0 0 0 - - - 0;
#X obj 160 138 separator;
#X floatatom 1081 187 5 0 0 0 - - - 0;
#X obj 422 346 tgl 19 0 empty empty empty 0 -10 0 12 #fcfcfc #000000 #000000 0 1;
#X msg 379 316 4;
#X obj 369 221 bng 20 250 50 0 empty empty empty 0 -10 0 12 #fcfcfc #000000 #000000;
#X obj 375 252 i;
#X floatatom 375 275 5 0 0 0 - - - 0;
#X obj 408 250 + 1;
#X obj 430 294 loadbang;
#X msg 430 319 1;
#X obj 1008 542 tgl 20 0 empty empty empty 0 -10 0 12 #fcfcfc #000000 #000000 0 1;
#N canvas 384 200 798 473 time_filtering 0;
#X obj 42 173 outlet;
#X obj 43 117 inlet;
#N canvas 569 279 787 662 togglefx 0;
#X obj 89 290 outlet;
#X obj 36 37 inlet;
#X obj 121 172 spigot 1;
#X obj 32 245 spigot 0;
#X msg 127 94 0 1;
#X msg 165 94 1 0;
#X obj 122 125 unpack 0 0;
#X obj 124 37 inlet;
#X obj 189 297 outlet;
#X obj 237 27 inlet;
#X obj 299 58 loadbang;
#X obj 124 68 route 0 1;
#X connect 1 0 3 0;
#X connect 1 0 2 0;
#X connect 2 0 8 0;
#X connect 3 0 0 0;
#X connect 4 0 6 0;
#X connect 5 0 6 0;
#X connect 6 0 3 1;
#X connect 6 1 2 1;
#X connect 7 0 11 0;
#X connect 9 0 0 0;
#X connect 10 0 4 0;
#X connect 11 0 4 0;
#X connect 11 1 5 0;
#X restore 43 143 pd togglefx;
#X obj 95 57 inlet;
#X obj 195 60 inlet;
#X floatatom 198 178 5 0 0 0 - - - 0;
#X obj 185 228 pix_tIIR 2 2;
#X obj 198 198 * 0.01;
#X obj 198 133 unpack 30 60 10 50 50 -20;
#X floatatom 247 178 5 0 0 0 - - - 0;
#X obj 247 198 * 0.01;
#X floatatom 294 178 5 0 0 0 - - - 0;
#X obj 294 198 * 0.01;
#X floatatom 343 178 5 0 0 0 - - - 0;
#X obj 343 198 * 0.01;
#X floatatom 390 178 5 0 0 0 - - - 0;
#X obj 390 198 * 0.01;
#X floatatom 439 178 5 0 0 0 - - - 0;
#X obj 439 198 * 0.01;
#X msg 198 87 bang;
#X obj 198 109 pack 30 60 10 50 50 -20;
#X obj 264 40 inlet;
#X obj 307 40 inlet;
#X obj 349 39 inlet;
#X obj 392 39 inlet;
#X obj 435 39 inlet;
#X obj 478 39 inlet;
#X obj 108 103 != 1;
#X connect 1 0 2 0;
#X connect 2 0 0 0;
#X connect 2 1 6 0;
#X connect 3 0 27 0;
#X connect 4 0 19 0;
#X connect 5 0 7 0;
#X connect 6 0 2 2;
#X connect 7 0 6 1;
#X connect 8 0 5 0;
#X connect 8 1 9 0;
#X connect 8 2 11 0;
#X connect 8 3 13 0;
#X connect 8 4 15 0;
#X connect 8 5 17 0;
#X connect 9 0 10 0;
#X connect 10 0 6 2;
#X connect 11 0 12 0;
#X connect 12 0 6 3;
#X connect 13 0 14 0;
#X connect 14 0 6 4;
#X connect 15 0 16 0;
#X connect 16 0 6 5;
#X connect 17 0 18 0;
#X connect 18 0 6 6;
#X connect 19 0 20 0;
#X connect 20 0 8 0;
#X connect 21 0 5 0;
#X connect 22 0 9 0;
#X connect 23 0 11 0;
#X connect 24 0 13 0;
#X connect 25 0 15 0;
#X connect 26 0 17 0;
#X connect 27 0 2 1;
#X restore 972 577 pd time_filtering;
#X f 48;
#X floatatom 1093 547 5 0 0 0 - - - 0;
#X floatatom 1136 552 5 0 0 0 - - - 0;
#X floatatom 1177 528 5 0 0 0 - - - 0;
#X floatatom 1218 551 5 0 0 0 - - - 0;
#X floatatom 1259 527 5 0 0 0 - - - 0;
#X floatatom 1301 546 5 0 0 0 - - - 0;
#X obj 1051 545 bng 19 250 50 0 empty empty empty 0 -10 0 12 #fcfcfc #000000 #000000;
#N canvas 0 44 1470 830 particle_system 0;
#X obj 103 160 part_head;
#X text 327 187 the velocity domain;
#X text 326 202 a sphere at 0 \, 0.2 \, 0;
#X text 327 221 radius = 0.3;
#X msg 302 247 0 0.2 0 0.3;
#X msg 413 247 0.2 0 0 0.3;
#X obj 107 410 part_render;
#X obj 107 208 part_size 1;
#X msg 197 185 2;
#X obj 107 284 part_color;
#X msg 130 230 1 0 0;
#X obj 107 341 part_source 5;
#X msg 142 258 0 1 0;
#X msg 167 184 1;
#X obj 107 311 part_velocity sphere 0 0.02 0 0.03;
#X obj 107 372 part_killold 100;
#X obj 105 564 pix_texture;
#X floatatom 611 811 5 0 0 0 - - - 0;
#X obj 611 833 / 100;
#X obj 535 870 cube 0.1, f 12;
#X msg 603 923 draw line;
#X msg 610 946 draw fill;
#X msg 616 967 draw point;
#X obj 112 124 separator;
#X obj 173 -51 inlet;
#X text 433 310 <domain>: one of "point" \, "line" \, "triangle" \, "plane" \, "box" \, "sphere" \, "cylinder" \, "cone" \, "blob" \, "disc" \, "rectangle";
#X text 432 351 <arguments>: up to 9 floats \, defining the specified domain (like "x y z" for "point" \, "x1 y1 z1 x2 y2 z2" for "line" \, "x y z r" for "sphere" \, ...). The meaning of the arguments depends -of course- on the domain.;
#X msg 548 105 symbol sphere;
#X msg 536 229 0 0.1 0 0.1;
#X msg 535 203 0.1 -0.1 0 0.05;
#X text 535 187 arguments;
#X obj 560 704 rotateXYZ 0 0 90;
#X obj 586 553 metro 11;
#X obj 586 466 tgl 20 0 empty empty empty 0 -10 0 12 #fcfcfc #000000 #000000 0 1;
#N canvas 117 666 450 300 movement 0;
#X obj 39 113 i;
#X obj 81 112 + 1;
#X obj 36 230 outlet;
#X obj 28 29 inlet;
#X connect 0 0 1 0;
#X connect 0 0 2 0;
#X connect 1 0 0 1;
#X connect 3 0 0 0;
#X restore 591 597 pd movement;
#N canvas 117 666 450 300 movement 0;
#X obj 39 113 i;
#X obj 81 112 + 1;
#X obj 36 230 outlet;
#X obj 28 29 inlet;
#X connect 0 0 1 0;
#X connect 0 0 2 0;
#X connect 1 0 0 1;
#X connect 3 0 0 0;
#X restore 625 623 pd movement;
#N canvas 117 666 450 300 movement 0;
#X obj 39 113 i;
#X obj 81 112 + 1;
#X obj 36 230 outlet;
#X obj 28 29 inlet;
#X connect 0 0 1 0;
#X connect 0 0 2 0;
#X connect 1 0 0 1;
#X connect 3 0 0 0;
#X restore 660 656 pd movement;
#X floatatom 685 519 5 0 0 0 - - - 0;
#X msg 561 136 symbol cone;
#X obj 889 295 i;
#X obj 931 294 + 1;
#X obj 877 168 bng 20 250 50 0 empty empty empty 0 -10 0 12 #fcfcfc #000000 #000000;
#X floatatom 888 321 5 0 0 0 - - - 0;
#X obj 888 345 % 3;
#X floatatom 888 376 5 0 0 0 - - - 0;
#X obj 888 400 sel 0 1 2, f 24;
#X obj 869 446 bng 20 250 50 0 empty empty empty 0 -10 0 12 #fcfcfc #000000 #000000;
#X obj 932 469 bng 20 250 50 0 empty empty empty 0 -10 0 12 #fcfcfc #000000 #000000;
#X obj 997 464 bng 20 250 50 0 empty empty empty 0 -10 0 12 #fcfcfc #000000 #000000;
#X obj 869 99 inlet;
#X obj 191 35 inlet;
#X obj 150 81 spigot;
#X msg 291 453 open textures/3.png;
#X msg 283 482 open textures/2.png;
#X msg 282 512 open textures/1.png;
#X obj 104 475 pix_image textures/1.png;
#X obj 370 812 outlet;
#X obj 703 829 loadbang;
#X obj 1156 472 inlet;
#X connect 0 0 7 0;
#X connect 4 0 14 2;
#X connect 5 0 14 2;
#X connect 6 0 55 0;
#X connect 6 0 19 0;
#X connect 7 0 9 0;
#X connect 8 0 7 1;
#X connect 9 0 14 0;
#X connect 10 0 9 1;
#X connect 11 0 15 0;
#X connect 12 0 9 2;
#X connect 13 0 7 1;
#X connect 14 0 11 0;
#X connect 15 0 6 0;
#X connect 16 0 31 0;
#X connect 17 0 18 0;
#X connect 18 0 19 1;
#X connect 20 0 19 0;
#X connect 21 0 19 0;
#X connect 22 0 19 0;
#X connect 23 0 0 0;
#X connect 24 0 51 0;
#X connect 27 0 14 1;
#X connect 28 0 14 2;
#X connect 31 0 56 0;
#X connect 31 0 19 0;
#X connect 32 0 34 0;
#X connect 32 0 35 0;
#X connect 32 0 36 0;
#X connect 33 0 32 0;
#X connect 34 0 31 1;
#X connect 35 0 31 2;
#X connect 36 0 31 3;
#X connect 37 0 32 1;
#X connect 38 0 14 1;
#X connect 39 0 40 0;
#X connect 39 0 42 0;
#X connect 40 0 39 1;
#X connect 41 0 39 0;
#X connect 42 0 43 0;
#X connect 43 0 44 0;
#X connect 44 0 45 0;
#X connect 45 0 46 0;
#X connect 45 1 47 0;
#X connect 45 2 48 0;
#X connect 46 0 52 0;
#X connect 47 0 53 0;
#X connect 48 0 54 0;
#X connect 49 0 41 0;
#X connect 50 0 51 1;
#X connect 50 0 33 0;
#X connect 51 0 23 0;
#X connect 52 0 53 0;
#X connect 52 0 55 0;
#X connect 53 0 55 0;
#X connect 54 0 55 0;
#X connect 55 0 16 0;
#X connect 57 0 20 0;
#X connect 58 0 17 0;
#X restore 148 246 pd particle_system;
#X obj 211 221 tgl 20 0 empty empty empty 0 -10 0 12 #fcfcfc #000000 #000000 0 1;
#X obj 296 223 bng 20 250 50 0 empty empty empty 0 -10 0 12 #fcfcfc #000000 #000000;
#X obj 149 169 separator;
#X obj 1133 206 else/drunkard 1 0 999;
#X obj 1137 174 metro 11;
#X obj 1139 145 tgl 19 0 empty empty empty 0 -10 0 12 #fcfcfc #000000 #000000 0 1;
#X obj 147 196 rotateXYZ 0 0 90;
#X obj 354 370 video, f 15;
#X obj 1215 44 loadbang;
#X obj 276 96 loadbang;
#X msg 276 120 1;
#X floatatom 1119 377 5 0 0 0 - - - 0;
#X obj 125 288 separator;
#X msg 1214 69 0;
#X obj 873 1116 pix_texture;
#X obj 876 1153 rectangle 5.36 4.02, f 23;
#X floatatom 968 1096 5 0 0 0 - - - 0;
#X floatatom 1029 1099 5 0 0 0 - - - 0;
#X obj 968 1120 / 10;
#X obj 1026 1120 / 10;
#X obj 980 1067 unpack 0 0;
#X msg 982 1043 27 39;
#X obj 985 1017 loadbang;
#X obj 254 1043 square 4;
#X obj 253 1014 translateXYZ 0 0 0;
#X obj 124 94 alien_visuals;
#X obj 257 578 glsl_fragment;
#X obj 257 740 glsl_program;
#X msg 282 609 print;
#X obj 332 609 change;
#X msg 332 636 link \$1;
#X obj 269 480 loadbang;
#X text 390 637 link the fragment shader id;
#X text 348 578 load the fragment shader;
#X text 344 742 run the shader program;
#X obj 707 620 metro 33;
#X obj 706 599 tgl 15 0 empty empty empty 17 7 0 10 #fcfcfc #000000 #000000 0 1;
#X floatatom 707 666 5 0 0 0 - - - 0;
#X obj 708 643 f;
#X obj 737 643 + 1;
#X obj 766 640 % 300;
#X obj 707 688 / 10;
#X obj 708 572 loadbang;
#X msg 534 457 a \$1;
#X msg 574 457 b \$1;
#X msg 608 456 c \$1;
#X floatatom 534 393 5 0 0 0 - - - 0;
#X obj 534 413 / 100;
#X floatatom 534 434 5 0 0 0 - - - 0;
#X floatatom 575 396 5 0 0 0 - - - 0;
#X obj 575 416 / 100;
#X floatatom 575 437 5 0 0 0 - - - 0;
#X floatatom 618 395 5 0 0 0 - - - 0;
#X obj 618 415 / 100;
#X floatatom 618 436 5 0 0 0 - - - 0;
#X msg 706 711 iTime \$1;
#X floatatom 663 393 5 0 0 0 - - - 0;
#X obj 663 413 / 100;
#X floatatom 663 434 5 0 0 0 - - - 0;
#X msg 653 454 d \$1;
#X floatatom 705 392 5 0 0 0 - - - 0;
#X obj 705 412 / 100;
#X floatatom 705 433 5 0 0 0 - - - 0;
#X floatatom 746 395 5 0 0 0 - - - 0;
#X obj 746 415 / 100;
#X floatatom 746 436 5 0 0 0 - - - 0;
#X floatatom 789 394 5 0 0 0 - - - 0;
#X obj 789 414 / 100;
#X floatatom 789 435 5 0 0 0 - - - 0;
#X floatatom 834 392 5 0 0 0 - - - 0;
#X obj 834 412 / 100;
#X floatatom 834 433 5 0 0 0 - - - 0;
#X msg 705 456 e \$1;
#X msg 745 456 f \$1;
#X msg 779 455 g \$1;
#X msg 824 453 h \$1;
#X floatatom 408 432 5 1 6 0 - - - 0;
#X msg 551 331 0;
#X floatatom 371 985 5 0 0 0 - - - 0;
#X msg 421 407 1;
#X msg 391 935 1;
#X msg 352 935 -1;
#X text 345 908 show hide shader;
#X obj 954 954 pix_texture;
#X obj 954 976 rectangle 5.36 4.02;
#X obj 10 25 declare -lib Gem;
#X msg 705 749 iResolution 900 900;
#X msg 269 509 open alien_shaders/\$1.frag;
#X connect 1 0 6 0;
#X connect 2 0 5 1;
#X connect 3 0 6 1;
#X connect 4 0 6 3;
#X connect 5 0 1 0;
#X connect 6 0 9 0;
#X connect 7 0 6 2;
#X connect 8 0 9 1;
#X connect 9 0 24 0;
#X connect 10 0 9 2;
#X connect 11 0 1 1;
#X connect 12 0 10 0;
#X connect 13 0 35 0;
#X connect 14 0 1 2;
#X connect 15 0 40 2;
#X connect 16 0 40 1;
#X connect 17 0 18 0;
#X connect 18 0 19 0;
#X connect 18 0 20 0;
#X connect 19 0 40 1;
#X connect 20 0 18 1;
#X connect 21 0 22 0;
#X connect 22 0 15 0;
#X connect 23 0 24 1;
#X connect 23 0 31 0;
#X connect 24 0 116 0;
#X connect 25 0 24 3;
#X connect 26 0 24 4;
#X connect 27 0 24 5;
#X connect 28 0 24 6;
#X connect 29 0 24 7;
#X connect 30 0 24 8;
#X connect 31 0 24 2;
#X connect 33 0 32 1;
#X connect 34 0 32 2;
#X connect 35 0 39 0;
#X connect 36 0 14 0;
#X connect 37 0 36 0;
#X connect 38 0 37 0;
#X connect 39 0 32 0;
#X connect 40 0 17 0;
#X connect 41 0 46 0;
#X connect 42 0 43 0;
#X connect 44 0 6 4;
#X connect 46 0 2 0;
#X connect 46 0 11 0;
#X connect 46 0 3 0;
#X connect 46 0 8 0;
#X connect 46 0 23 0;
#X connect 47 0 48 0;
#X connect 49 0 51 0;
#X connect 50 0 52 0;
#X connect 51 0 48 1;
#X connect 52 0 48 2;
#X connect 53 0 49 0;
#X connect 53 1 50 0;
#X connect 54 0 53 0;
#X connect 55 0 54 0;
#X connect 57 0 56 0;
#X connect 58 0 45 0;
#X connect 58 0 13 0;
#X connect 58 0 59 0;
#X connect 58 1 5 0;
#X connect 59 0 60 0;
#X connect 59 1 62 0;
#X connect 60 0 57 0;
#X connect 61 0 60 0;
#X connect 62 0 63 0;
#X connect 63 0 60 0;
#X connect 64 0 120 0;
#X connect 64 0 119 0;
#X connect 64 0 112 0;
#X connect 68 0 71 0;
#X connect 69 0 68 0;
#X connect 70 0 74 0;
#X connect 71 0 72 0;
#X connect 71 0 70 0;
#X connect 72 0 73 0;
#X connect 73 0 71 1;
#X connect 74 0 88 0;
#X connect 75 0 69 0;
#X connect 76 0 60 0;
#X connect 77 0 60 0;
#X connect 78 0 60 0;
#X connect 79 0 80 0;
#X connect 80 0 81 0;
#X connect 81 0 76 0;
#X connect 82 0 83 0;
#X connect 83 0 84 0;
#X connect 84 0 77 0;
#X connect 85 0 86 0;
#X connect 86 0 87 0;
#X connect 87 0 78 0;
#X connect 88 0 60 0;
#X connect 89 0 90 0;
#X connect 90 0 91 0;
#X connect 91 0 92 0;
#X connect 92 0 60 0;
#X connect 93 0 94 0;
#X connect 94 0 95 0;
#X connect 95 0 105 0;
#X connect 96 0 97 0;
#X connect 97 0 98 0;
#X connect 98 0 106 0;
#X connect 99 0 100 0;
#X connect 100 0 101 0;
#X connect 101 0 107 0;
#X connect 102 0 103 0;
#X connect 103 0 104 0;
#X connect 104 0 108 0;
#X connect 105 0 60 0;
#X connect 106 0 60 0;
#X connect 107 0 60 0;
#X connect 108 0 60 0;
#X connect 109 0 120 0;
#X connect 110 0 79 0;
#X connect 110 0 82 0;
#X connect 110 0 85 0;
#X connect 110 0 89 0;
#X connect 110 0 93 0;
#X connect 110 0 96 0;
#X connect 110 0 99 0;
#X connect 110 0 102 0;
#X connect 111 0 57 3;
#X connect 112 0 109 0;
#X connect 113 0 111 0;
#X connect 114 0 111 0;
#X connect 116 0 117 0;
#X connect 119 0 60 0;
#X connect 120 0 59 0;
#X restore 24 521 pd visuals;
#N canvas 589 50 454 304 gemwin 0;
#X obj 132 136 gemwin;
#X obj 67 89 outlet;
#X obj 67 10 inlet;
#X obj 67 41 route create;
#X msg 67 70 set destroy;
#X msg 182 68 set create;
#X msg 132 112 create \, 1;
#X msg 238 112 destroy;
#N canvas 91 178 247 179 Gem.init 0;
#X obj 59 26 loadbang;
#X msg 118 81 reset;
#X obj 118 113 outlet;
#X obj 59 45 t b b;
#X connect 0 0 3 0;
#X connect 1 0 2 0;
#X connect 3 1 1 0;
#X restore 289 80 pd Gem.init;
#X msg 114 205 reset \, dimen 1200 1100 \, create \, 1;
#X obj 180 13 inlet;
#X connect 2 0 3 0;
#X connect 3 0 4 0;
#X connect 3 0 6 0;
#X connect 3 1 5 0;
#X connect 3 1 7 0;
#X connect 4 0 1 0;
#X connect 5 0 1 0;
#X connect 6 0 0 0;
#X connect 7 0 0 0;
#X connect 8 0 0 0;
#X connect 9 0 0 0;
#X connect 10 0 9 0;
#X restore 25 627 pd gemwin;
#X msg 44 596 destroy;
#X msg 27 565 create;
#X obj 31 24 catch~ drums;
#X obj 362 88 transport, f 55;
#X obj 366 118 s clock1;
#X obj 467 118 s clock2;
#X obj 563 117 s clock3;
#X obj 670 115 s clock4;
#X obj 766 112 s clock5;
#X obj 345 119 bng 19 250 50 0 empty empty empty 0 -10 0 12 #fcfcfc #000000 #000000;
#X obj 446 118 bng 19 250 50 0 empty empty empty 0 -10 0 12 #fcfcfc #000000 #000000;
#X obj 540 116 bng 19 250 50 0 empty empty empty 0 -10 0 12 #fcfcfc #000000 #000000;
#X obj 646 116 bng 19 250 50 0 empty empty empty 0 -10 0 12 #fcfcfc #000000 #000000;
#X obj 742 111 bng 19 250 50 0 empty empty empty 0 -10 0 12 #fcfcfc #000000 #000000;
#X obj 741 61 bng 19 250 50 0 empty empty empty 0 -10 0 12 #fcfcfc #000000 #000000;
#X obj 362 64 metro 111;
#N canvas 180 89 1013 796 section1 0;
#X obj 69 2 inlet;
#X floatatom 104 603 5 0 0 0 - - - 0;
#X floatatom 433 510 5 0 0 0 - - - 0;
#X obj 242 765 outlet;
#X obj 75 135 t b b b b b b b b b b b b b b, f 58;
#X obj 434 488 random 100;
#X msg 433 535 hihat (seq (rep - 4) (rep \$1 4) (rep - 4) \$1 (rep - 3) );
#X msg 102 629 clap (seq (rep - 4) \$1 (rep - 2) \$1 (rep - 8) );
#X obj 107 578 random 100;
#X msg 243 437 snare (seq -);
#X msg 333 407 kick (seq -);
#X msg 552 246 wavetable (seq 30 - - - - - - - - - 30 - - - - - );
#X obj 157 101 s reset;
#X obj 94 100 s flush;
#X msg 74 170 monosynth (seq -);
#X obj 313 733 r \$0-p, f 7;
#X obj 139 70 t b b b b;
#X obj 143 21 bng 19 250 50 0 empty empty empty 0 -10 0 12 #fcfcfc #000000 #000000;
#X msg 222 407 perc (seq -);
#N canvas 63 97 622 390 clear 0;
#X msg 340 141 bass (seq -);
#X msg 73 143 wavetable (seq -);
#X msg 207 141 monosynth (seq -);
#X msg 45 176 kick (seq -);
#X msg 158 175 snare (seq -);
#X msg 268 177 hihat (seq -);
#X msg 395 171 clap (seq -);
#X msg 492 171 openhh (seq -);
#X msg 65 203 rimshot (seq -);
#X msg 189 206 perc (seq -);
#X msg 287 205 shaker (seq -);
#X msg 398 205 ride (seq -);
#X msg 492 205 tom (seq -);
#X msg 83 233 woodblock (seq -);
#X msg 224 234 crash (seq -);
#X msg 330 233 vox (seq -);
#X obj 81 287 s \$0-p;
#X obj 21 83 t b b b b b b b b b b b b b b b b b b b, f 75;
#X obj 22 52 inlet;
#X connect 0 0 16 0;
#X connect 1 0 16 0;
#X connect 2 0 16 0;
#X connect 3 0 16 0;
#X connect 4 0 16 0;
#X connect 5 0 16 0;
#X connect 6 0 16 0;
#X connect 7 0 16 0;
#X connect 8 0 16 0;
#X connect 9 0 16 0;
#X connect 10 0 16 0;
#X connect 11 0 16 0;
#X connect 12 0 16 0;
#X connect 13 0 16 0;
#X connect 14 0 16 0;
#X connect 15 0 16 0;
#X connect 17 2 13 0;
#X connect 17 3 8 0;
#X connect 17 4 3 0;
#X connect 17 5 1 0;
#X connect 17 6 14 0;
#X connect 17 7 9 0;
#X connect 17 8 4 0;
#X connect 17 9 2 0;
#X connect 17 10 5 0;
#X connect 17 11 14 0;
#X connect 17 12 10 0;
#X connect 17 13 0 0;
#X connect 17 14 15 0;
#X connect 17 15 6 0;
#X connect 17 16 11 0;
#X connect 17 17 7 0;
#X connect 17 18 12 0;
#X connect 18 0 17 0;
#X restore 498 119 pd clear;
#X obj 501 199 s tempo;
#X floatatom 500 175 5 0 0 0 - - - 0;
#X msg 501 150 111;
#X connect 0 0 16 0;
#X connect 1 0 7 0;
#X connect 2 0 6 0;
#X connect 4 0 14 0;
#X connect 4 7 18 0;
#X connect 4 8 11 0;
#X connect 4 9 8 0;
#X connect 4 10 5 0;
#X connect 4 11 9 0;
#X connect 4 12 10 0;
#X connect 4 13 19 0;
#X connect 4 13 22 0;
#X connect 5 0 2 0;
#X connect 6 0 3 0;
#X connect 7 0 3 0;
#X connect 8 0 1 0;
#X connect 9 0 3 0;
#X connect 10 0 3 0;
#X connect 11 0 3 0;
#X connect 14 0 3 0;
#X connect 15 0 3 0;
#X connect 16 0 13 0;
#X connect 16 1 12 0;
#X connect 16 2 4 0;
#X connect 17 0 16 0;
#X connect 18 0 3 0;
#X connect 21 0 20 0;
#X connect 22 0 21 0;
#X restore 189 540 pd section1;
#N canvas 111 34 1057 835 section2 0;
#X obj 29 10 inlet;
#X floatatom 715 428 5 0 0 0 - - - 0;
#X floatatom 725 309 5 0 0 0 - - - 0;
#X floatatom 223 616 5 0 0 0 - - - 0;
#X floatatom 617 662 5 0 0 0 - - - 0;
#X obj 21 184 t b b b b b b b b b b, f 102;
#X msg 740 227 bass (seq (rep (seq 31 31 - - 30 30 - - (rep - 8)) 3) (rep (seq 31 31 - - 30 30 - -) 2)), f 90;
#X obj 726 282 random 100;
#X msg 725 336 snare (seq - - \$1 - );
#X obj 715 404 random 100;
#X obj 617 638 random 100;
#X msg 614 685 hihat (seq - - \$1 - );
#X obj 223 588 random 100;
#X obj 429 845 outlet;
#X msg 216 641 clap (seq (rep - 4) \$1 (rep - 2) \$1 (rep - 8) );
#X msg 714 451 kick (seq \$1 (rep - 4) \$1 (rep - 2));
#X msg 27 284 wavetable (seq -), f 19;
#X obj 118 153 s reset;
#X obj 55 126 s flush;
#X msg 70 240 monosynth (seq - );
#X obj 253 735 r \$0-p, f 7;
#X obj 100 96 t b b b b;
#X obj 100 70 bng 19 250 50 0 empty empty empty 0 -10 0 12 #fcfcfc #000000 #000000;
#X msg 217 344 perc (seq -);
#X obj 100 42 pipe 1;
#N canvas 63 97 622 390 clear 0;
#X msg 340 141 bass (seq -);
#X msg 73 143 wavetable (seq -);
#X msg 207 141 monosynth (seq -);
#X msg 45 176 kick (seq -);
#X msg 158 175 snare (seq -);
#X msg 268 177 hihat (seq -);
#X msg 395 171 clap (seq -);
#X msg 492 171 openhh (seq -);
#X msg 65 203 rimshot (seq -);
#X msg 189 206 perc (seq -);
#X msg 287 205 shaker (seq -);
#X msg 398 205 ride (seq -);
#X msg 492 205 tom (seq -);
#X msg 83 233 woodblock (seq -);
#X msg 224 234 crash (seq -);
#X msg 330 233 vox (seq -);
#X obj 81 287 s \$0-p;
#X obj 21 83 t b b b b b b b b b b b b b b b b b b b, f 75;
#X obj 22 52 inlet;
#X connect 0 0 16 0;
#X connect 1 0 16 0;
#X connect 2 0 16 0;
#X connect 3 0 16 0;
#X connect 4 0 16 0;
#X connect 5 0 16 0;
#X connect 6 0 16 0;
#X connect 7 0 16 0;
#X connect 8 0 16 0;
#X connect 9 0 16 0;
#X connect 10 0 16 0;
#X connect 11 0 16 0;
#X connect 12 0 16 0;
#X connect 13 0 16 0;
#X connect 14 0 16 0;
#X connect 15 0 16 0;
#X connect 17 2 13 0;
#X connect 17 3 8 0;
#X connect 17 4 3 0;
#X connect 17 5 1 0;
#X connect 17 6 14 0;
#X connect 17 7 9 0;
#X connect 17 8 4 0;
#X connect 17 9 2 0;
#X connect 17 10 5 0;
#X connect 17 11 14 0;
#X connect 17 12 10 0;
#X connect 17 13 0 0;
#X connect 17 14 15 0;
#X connect 17 15 6 0;
#X connect 17 16 11 0;
#X connect 17 17 7 0;
#X connect 17 18 12 0;
#X connect 18 0 17 0;
#X restore 754 180 pd clear;
#X obj 597 292 s tempo;
#X floatatom 596 268 5 0 0 0 - - - 0;
#X msg 597 243 111;
#X connect 0 0 24 0;
#X connect 1 0 15 0;
#X connect 2 0 8 0;
#X connect 3 0 14 0;
#X connect 4 0 11 0;
#X connect 5 0 16 0;
#X connect 5 1 9 0;
#X connect 5 2 19 0;
#X connect 5 4 23 0;
#X connect 5 5 12 0;
#X connect 5 6 10 0;
#X connect 5 7 6 0;
#X connect 5 8 7 0;
#X connect 5 9 25 0;
#X connect 5 9 28 0;
#X connect 6 0 13 0;
#X connect 7 0 2 0;
#X connect 8 0 13 0;
#X connect 9 0 1 0;
#X connect 10 0 4 0;
#X connect 11 0 13 0;
#X connect 12 0 3 0;
#X connect 14 0 13 0;
#X connect 15 0 13 0;
#X connect 16 0 13 0;
#X connect 19 0 13 0;
#X connect 20 0 13 0;
#X connect 21 0 18 0;
#X connect 21 1 17 0;
#X connect 21 2 5 0;
#X connect 22 0 21 0;
#X connect 23 0 13 0;
#X connect 24 0 22 0;
#X connect 27 0 26 0;
#X connect 28 0 27 0;
#X restore 282 540 pd section2;
#N canvas 117 254 453 641 8bar_selekta 0;
#X obj 149 115 i;
#X obj 187 117 + 1;
#X floatatom 147 139 5 0 0 0 - - - 0;
#X obj 144 192 sel 1;
#X obj 146 220 bng 19 250 50 0 empty empty empty 0 -10 0 12 #fcfcfc #000000 #000000;
#X obj 142 247 i;
#X obj 180 249 + 1;
#X floatatom 144 278 5 0 0 0 - - - 0;
#X obj 141 301 % 2;
#X obj 147 163 % 8;
#X obj 240 468 pipe 1;
#X obj 170 334 sel 0 1;
#X obj 149 89 inlet;
#X obj 317 525 outlet;
#X obj 238 494 t b b b;
#X obj 256 525 s reset;
#X obj 193 524 s flush;
#X obj 166 430 outlet;
#X obj 87 399 t b b b;
#X obj 105 430 s reset;
#X obj 42 429 s flush;
#X connect 0 0 1 0;
#X connect 0 0 2 0;
#X connect 1 0 0 1;
#X connect 2 0 9 0;
#X connect 3 0 4 0;
#X connect 4 0 5 0;
#X connect 5 0 6 0;
#X connect 5 0 7 0;
#X connect 6 0 5 1;
#X connect 7 0 8 0;
#X connect 8 0 11 0;
#X connect 9 0 3 0;
#X connect 10 0 14 0;
#X connect 11 0 18 0;
#X connect 11 0 17 0;
#X connect 11 1 13 0;
#X connect 12 0 0 0;
#X connect 14 0 16 0;
#X connect 14 1 15 0;
#X connect 18 0 20 0;
#X connect 18 1 19 0;
#X restore 192 484 pd 8bar_selekta;
#X f 17;
#X obj 746 37 r reset;
#X obj 90 60 catch~ bass;
#N canvas 517 34 953 577 instrumentation 0;
#X obj 268 434 loadbang;
#X obj 185 573 throw~ drums;
#X msg 266 463 kick;
#X obj 186 549 *~ 0.9;
#X obj 301 4 alien_monosynth~;
#X obj 408 303 loadbang;
#X obj 325 405 throw~ drums;
#X obj 327 379 *~ 0.9;
#X obj 324 327 r clock2;
#X msg 407 326 snare;
#X obj 602 303 loadbang;
#X obj 519 442 throw~ drums;
#X msg 600 332 clap;
#X obj 521 332 r clock1;
#X obj 437 418 loadbang;
#X obj 355 576 throw~ drums;
#X obj 356 447 r clock1;
#X msg 435 447 hihat;
#X obj 304 -21 else/sequencer;
#X obj 289 -74 alien;
#X floatatom 411 -18 5 0 0 0 - - - 0;
#X obj 412 -69 loadbang;
#X obj 295 -47 r clock1;
#X obj 185 465 r clock2;
#X obj 186 490 bank, f 12;
#X obj 326 353 bank, f 12;
#X obj 520 359 bank, f 12;
#X obj 355 474 bank, f 12;
#X listbox 266 514 20 0 0 0 - - - 0;
#X obj 1659 246 r flush;
#X obj 301 172 throw~ bass;
#X obj 232 -211 inlet;
#X obj 542 -1 else/sequencer;
#X obj 635 -28 alien;
#X obj 630 25 loadbang;
#X obj 543 -28 r clock1;
#X obj 537 181 throw~ bass;
#X obj 541 75 alien_wavetable~;
#X floatatom 598 49 5 0 0 0 - - - 0;
#X msg 415 -43 201;
#X obj 535 391 freeverb~;
#N canvas 14 97 754 620 crush 0;
#X floatatom 268 277 8 1 10000 0 - - - 0;
#X obj 271 256 hsl 128 15 0 1 0 0 empty empty empty -2 -8 0 10 #dcdcdc #000000 #000000 0 1;
#X floatatom 337 309 8 1 10000 0 - - - 0;
#X obj 340 288 hsl 128 15 0 1 0 0 empty empty empty -2 -8 0 10 #dcdcdc #000000 #000000 0 1;
#X text 273 256 bit crushing (0-1);
#X text 355 288 decimation (0-1);
#X obj 268 297 else/f2s~;
#X obj 337 330 else/f2s~;
#X obj 237 331 else/crush~;
#X obj 510 210 hsl 128 15 0 1 0 0 empty empty empty -2 -8 0 10 #dcdcdc #000000 #000000 0 1;
#X obj 507 232 nbx 5 14 -1e+37 1e+37 0 0 empty empty empty 0 -8 0 10 #dcdcdc #000000 #000000 0 256;
#X obj 414 257 else/quantizer~ 0.1;
#X obj 385 367 hsl 128 15 10 44100 1 0 empty empty empty -2 -8 0 10 #dcdcdc #000000 #000000 0 1;
#X obj 382 391 nbx 8 14 -1e+37 1e+37 0 0 empty empty empty 0 -8 0 10 #dcdcdc #000000 #000000 0 256;
#X obj 289 415 else/downsample~;
#X obj 204 459 drive~;
#X obj 333 475 nbx 5 14 -1e+37 1e+37 0 0 empty empty empty 0 -8 0 10 #dcdcdc #000000 #000000 0 256;
#X obj 336 453 hsl 128 15 0 5 0 0 empty empty empty -2 -8 0 10 #dcdcdc #000000 #000000 0 1;
#X obj 333 496 else/float2sig~ 50;
#X obj 222 540 drive~;
#X obj 351 556 nbx 5 14 -1e+37 1e+37 0 0 empty empty empty 0 -8 0 10 #dcdcdc #000000 #000000 0 256;
#X obj 351 531 hsl 128 15 0 5 0 0 empty empty empty -2 -8 0 10 #dcdcdc #000000 #000000 0 1;
#X obj 351 577 else/float2sig~ 50;
#X msg 326 77 0.5;
#X msg 356 77 3;
#X obj 326 38 loadbang;
#X obj 222 564 *~ 0.02;
#X obj 84 52 inlet~;
#X obj 222 588 outlet~;
#X connect 0 0 6 0;
#X connect 1 0 0 0;
#X connect 2 0 7 0;
#X connect 3 0 2 0;
#X connect 6 0 8 1;
#X connect 7 0 8 2;
#X connect 8 0 14 0;
#X connect 9 0 10 0;
#X connect 10 0 11 1;
#X connect 11 0 15 0;
#X connect 12 0 13 0;
#X connect 13 0 14 1;
#X connect 14 0 15 0;
#X connect 15 0 19 0;
#X connect 16 0 18 0;
#X connect 17 0 16 0;
#X connect 18 0 15 1;
#X connect 19 0 26 0;
#X connect 20 0 22 0;
#X connect 21 0 20 0;
#X connect 22 0 19 1;
#X connect 23 0 10 0;
#X connect 23 0 0 0;
#X connect 23 0 2 0;
#X connect 24 0 16 0;
#X connect 24 0 20 0;
#X connect 25 0 23 0;
#X connect 25 0 24 0;
#X connect 26 0 28 0;
#X connect 27 0 8 0;
#X connect 27 0 11 0;
#X connect 27 0 15 0;
#X connect 27 0 26 0;
#X restore 567 104 pd crush;
#X obj 662 74 bng 19 250 50 0 empty empty empty 0 -10 0 12 #fcfcfc #000000 #000000;
#X obj 983 -130 r flush;
#X listbox 406 374 20 0 0 0 - - - 0;
#X listbox 436 500 20 0 0 0 - - - 0;
#X listbox 609 390 35 0 0 0 - - - 0;
#X obj 764 130 alien_monosynth2~;
#X floatatom 822 104 5 0 0 0 - - - 0;
#X floatatom 880 108 5 0 0 0 - - - 0;
#X obj 290 -104 alien_router2 bass wavetable monosynth, f 100;
#X obj 762 187 throw~ synth;
#X obj 758 29 else/sequencer;
#X obj 851 2 alien;
#X obj 759 2 r clock1;
#X obj 896 76 unpack;
#X obj 912 10 loadbang;
#X floatatom 715 101 5 0 0 0 - - - 0;
#X obj 764 154 *~ 0.29;
#X floatatom 491 40 5 0 0 0 - - - 0;
#X floatatom 190 -16 5 0 0 0 - - - 0;
#X obj 678 466 loadbang;
#X obj 596 624 throw~ drums;
#X obj 597 495 r clock1;
#X obj 596 522 bank, f 12;
#X listbox 685 553 35 0 0 0 - - - 0;
#X msg 676 495 openhh;
#X obj 850 320 loadbang;
#X obj 768 478 throw~ drums;
#X obj 769 349 r clock1;
#X obj 768 376 bank, f 12;
#X listbox 857 407 35 0 0 0 - - - 0;
#X msg 848 349 rimshot;
#X obj 368 611 loadbang;
#X obj 286 769 throw~ drums;
#X obj 287 640 r clock1;
#X obj 286 667 bank, f 12;
#X listbox 375 698 35 0 0 0 - - - 0;
#X msg 366 640 perc;
#X obj 793 593 loadbang;
#X obj 711 751 throw~ drums;
#X obj 712 622 r clock1;
#X obj 711 649 bank, f 12;
#X listbox 785 679 35 0 0 0 - - - 0;
#X msg 791 622 shaker;
#X obj 1013 326 loadbang;
#X obj 931 484 throw~ drums;
#X obj 932 355 r clock1;
#X obj 937 383 bank, f 12;
#X listbox 1005 412 35 0 0 0 - - - 0;
#X obj 1075 478 loadbang;
#X obj 993 636 throw~ drums;
#X obj 994 509 r clock1;
#X obj 993 534 bank, f 12;
#X listbox 1067 564 35 0 0 0 - - - 0;
#X obj 916 733 loadbang;
#X obj 834 891 throw~ drums;
#X obj 835 762 r clock1;
#X obj 834 789 bank, f 12;
#X listbox 908 819 35 0 0 0 - - - 0;
#X msg 914 762 woodblock;
#X obj 1194 608 loadbang;
#X obj 1112 766 throw~ drums;
#X obj 1113 637 r clock1;
#X obj 1112 664 bank, f 12;
#X listbox 1186 694 35 0 0 0 - - - 0;
#X obj 229 273 alien_router2 kick snare hihat clap openhh rimshot perc shaker ride tom woodblock crash vox, f 206;
#X msg 1192 637 crash;
#X obj 1421 490 loadbang;
#X obj 1339 648 throw~ drums;
#X obj 1340 519 r clock1;
#X obj 1339 546 bank, f 12;
#X listbox 1413 576 35 0 0 0 - - - 0;
#X msg 1419 519 vox;
#X msg 1011 355 rides;
#X obj 768 435 *~ 0.6;
#X obj 711 708 *~ 0.2;
#X obj 1112 723 *~ 0.1;
#X obj 931 441 *~ 0.1;
#X obj 286 726 *~ 0.2;
#X msg 1073 507 toms;
#X msg 896 52 9 50;
#X msg 597 28 43;
#X obj 834 848 *~ 0.1;
#X obj 993 593 *~ 0.1;
#X obj 596 581 *~ 0.2;
#X obj 538 142 *~ 0.2;
#X obj 1339 605 *~ 0.3;
#X obj 296 110 *~ 0.2;
#X obj 355 533 *~ 0.3;
#X obj 520 418 *~ 0.5;
#X obj 205 108 heavybass~;
#X obj 448 117 heavybass~;
#X connect 0 0 2 0;
#X connect 2 0 24 2;
#X connect 3 0 1 0;
#X connect 4 0 128 0;
#X connect 5 0 9 0;
#X connect 7 0 6 0;
#X connect 8 0 25 0;
#X connect 9 0 25 2;
#X connect 10 0 12 0;
#X connect 12 0 26 2;
#X connect 13 0 26 0;
#X connect 14 0 17 0;
#X connect 16 0 27 0;
#X connect 17 0 27 2;
#X connect 18 0 4 0;
#X connect 18 0 131 0;
#X connect 19 0 18 1;
#X connect 20 0 4 1;
#X connect 21 0 39 0;
#X connect 22 0 18 0;
#X connect 23 0 24 0;
#X connect 24 0 3 0;
#X connect 24 1 28 0;
#X connect 25 0 7 0;
#X connect 25 1 44 0;
#X connect 26 0 40 0;
#X connect 26 0 130 0;
#X connect 26 1 46 0;
#X connect 27 0 129 0;
#X connect 27 1 45 0;
#X connect 29 0 106 1;
#X connect 31 0 50 0;
#X connect 31 0 106 0;
#X connect 32 0 37 0;
#X connect 32 0 132 0;
#X connect 33 0 32 1;
#X connect 34 0 122 0;
#X connect 35 0 32 0;
#X connect 37 0 41 0;
#X connect 37 0 126 0;
#X connect 38 0 37 1;
#X connect 39 0 20 0;
#X connect 40 0 130 0;
#X connect 41 0 126 0;
#X connect 42 0 37 2;
#X connect 43 0 50 1;
#X connect 47 0 58 0;
#X connect 48 0 47 1;
#X connect 49 0 47 2;
#X connect 50 0 19 0;
#X connect 50 1 33 0;
#X connect 50 2 53 0;
#X connect 52 0 47 0;
#X connect 53 0 52 1;
#X connect 54 0 52 0;
#X connect 55 0 48 0;
#X connect 55 1 49 0;
#X connect 56 0 121 0;
#X connect 57 0 47 0;
#X connect 58 0 51 0;
#X connect 59 0 37 0;
#X connect 60 0 4 0;
#X connect 61 0 66 0;
#X connect 63 0 64 0;
#X connect 64 0 125 0;
#X connect 64 1 65 0;
#X connect 66 0 64 2;
#X connect 67 0 72 0;
#X connect 69 0 70 0;
#X connect 70 0 115 0;
#X connect 70 1 71 0;
#X connect 72 0 70 2;
#X connect 73 0 78 0;
#X connect 75 0 76 0;
#X connect 76 0 119 0;
#X connect 76 1 77 0;
#X connect 78 0 76 2;
#X connect 79 0 84 0;
#X connect 81 0 82 0;
#X connect 82 0 116 0;
#X connect 82 1 83 0;
#X connect 84 0 82 2;
#X connect 85 0 114 0;
#X connect 87 0 88 0;
#X connect 88 0 118 0;
#X connect 88 1 89 0;
#X connect 90 0 120 0;
#X connect 92 0 93 0;
#X connect 93 0 124 0;
#X connect 93 1 94 0;
#X connect 95 0 100 0;
#X connect 97 0 98 0;
#X connect 98 0 123 0;
#X connect 98 1 99 0;
#X connect 100 0 98 2;
#X connect 101 0 107 0;
#X connect 103 0 104 0;
#X connect 104 0 117 0;
#X connect 104 1 105 0;
#X connect 106 0 24 1;
#X connect 106 1 25 1;
#X connect 106 2 27 1;
#X connect 106 3 26 1;
#X connect 106 4 64 1;
#X connect 106 5 70 1;
#X connect 106 6 76 1;
#X connect 106 7 82 1;
#X connect 106 8 88 1;
#X connect 106 9 93 1;
#X connect 106 10 98 1;
#X connect 106 11 104 1;
#X connect 106 12 111 1;
#X connect 107 0 104 2;
#X connect 108 0 113 0;
#X connect 110 0 111 0;
#X connect 111 0 127 0;
#X connect 111 1 112 0;
#X connect 113 0 111 2;
#X connect 114 0 88 2;
#X connect 115 0 68 0;
#X connect 116 0 80 0;
#X connect 117 0 102 0;
#X connect 118 0 86 0;
#X connect 119 0 74 0;
#X connect 120 0 93 2;
#X connect 121 0 55 0;
#X connect 122 0 38 0;
#X connect 123 0 96 0;
#X connect 124 0 91 0;
#X connect 125 0 62 0;
#X connect 126 0 36 0;
#X connect 127 0 109 0;
#X connect 128 0 30 0;
#X connect 129 0 15 0;
#X connect 130 0 11 0;
#X connect 131 0 128 0;
#X connect 132 0 126 0;
#X restore 579 726 pd instrumentation;
#N canvas 682 276 549 450 random_reverse 0;
#X obj 171 222 else/revdelay~ 111;
#X obj 170 287 *~;
#X obj 188 261 tgl 19 0 empty empty empty 0 -10 0 12 #fcfcfc #000000 #000000 0 1;
#X obj 157 108 random 100;
#X obj 157 156 sel 1;
#X obj 193 185 pipe 3000;
#X obj 152 82 inlet;
#X obj 25 72 inlet~;
#X obj 170 311 outlet~;
#X obj 157 132 > 70;
#X connect 0 0 1 0;
#X connect 1 0 8 0;
#X connect 2 0 1 1;
#X connect 3 0 9 0;
#X connect 4 0 2 0;
#X connect 4 0 5 0;
#X connect 5 0 2 0;
#X connect 6 0 3 0;
#X connect 7 0 0 0;
#X connect 9 0 4 0;
#X restore 66 343 pd random_reverse;
#X obj 217 191 vsl 18 80 -100 0 0 0 empty empty empty 0 -9 0 10 #dcdcdc #000000 #000000 0 1;
#X obj 34 164 else/compress~ -11 5 5 5 12 256;
#X obj 342 211 s tempo;
#X floatatom 341 187 5 0 0 0 - - - 0;
#X obj 283 517 bng 19 250 50 0 empty empty empty 0 -10 0 12 #fcfcfc #000000 #000000;
#X obj 628 249 bng 19 250 50 0 empty empty empty 0 -10 0 12 #fcfcfc #000000 #000000;
#X obj 144 101 catch~ synth;
#X obj 190 516 bng 19 250 50 0 empty empty empty 0 -10 0 12 #fcfcfc #000000 #000000;
#X obj 462 366 bng 19 250 50 0 empty empty empty 0 -10 0 12 #fcfcfc #000000 #000000;
#N canvas 198 69 1272 796 dnb1 0;
#X obj 69 2 inlet;
#X floatatom 104 603 5 0 0 0 - - - 0;
#X floatatom 870 412 5 0 0 0 - - - 0;
#X obj 236 764 outlet;
#X obj 67 118 t b b b b b b b b b b b b b b, f 76;
#X obj 873 380 random 100;
#X msg 870 437 hihat (seq (rep - 4) (rep \$1 4) (rep - 4) \$1 (rep - 3) );
#X msg 102 629 clap (seq (rep - 4) \$1 (rep - 2) \$1 (rep - 8) );
#X obj 107 578 random 100;
#X obj 157 76 s reset;
#X obj 94 75 s flush;
#X obj 138 15 bng 19 250 50 0 empty empty empty 0 -10 0 12 #fcfcfc #000000 #000000;
#X msg 793 259 wavetable (seq -);
#X msg 845 481 hihat (seq \$1);
#X floatatom 518 174 5 0 0 0 - - - 0;
#X obj 517 151 random 100;
#X msg 518 195 snare (seq - - \$1 -);
#X msg 754 174 wavetable (seq 40 - - - - - - - - - 40 - - - - - );
#X obj 237 738 r \$0-p;
#X obj 139 45 t b b b b;
#X msg 282 560 perc (seq -);
#N canvas 14 96 622 390 clear 0;
#X msg 340 141 bass (seq -);
#X msg 73 143 wavetable (seq -);
#X msg 207 141 monosynth (seq -);
#X msg 45 176 kick (seq -);
#X msg 158 175 snare (seq -);
#X msg 268 177 hihat (seq -);
#X msg 395 171 clap (seq -);
#X msg 492 171 openhh (seq -);
#X msg 65 203 rimshot (seq -);
#X msg 189 206 perc (seq -);
#X msg 287 205 shaker (seq -);
#X msg 398 205 ride (seq -);
#X msg 492 205 tom (seq -);
#X msg 83 233 woodblock (seq -);
#X msg 224 234 crash (seq -);
#X msg 330 233 vox (seq -);
#X obj 81 287 s \$0-p;
#X obj 21 83 t b b b b b b b b b b b b b b b b b b b, f 75;
#X obj 22 52 inlet;
#X connect 0 0 16 0;
#X connect 1 0 16 0;
#X connect 2 0 16 0;
#X connect 3 0 16 0;
#X connect 4 0 16 0;
#X connect 5 0 16 0;
#X connect 6 0 16 0;
#X connect 7 0 16 0;
#X connect 8 0 16 0;
#X connect 9 0 16 0;
#X connect 10 0 16 0;
#X connect 11 0 16 0;
#X connect 12 0 16 0;
#X connect 13 0 16 0;
#X connect 14 0 16 0;
#X connect 15 0 16 0;
#X connect 17 2 13 0;
#X connect 17 3 8 0;
#X connect 17 4 3 0;
#X connect 17 5 1 0;
#X connect 17 6 14 0;
#X connect 17 7 9 0;
#X connect 17 8 4 0;
#X connect 17 9 2 0;
#X connect 17 10 5 0;
#X connect 17 11 14 0;
#X connect 17 12 10 0;
#X connect 17 13 0 0;
#X connect 17 14 15 0;
#X connect 17 15 6 0;
#X connect 17 16 11 0;
#X connect 17 17 7 0;
#X connect 17 18 12 0;
#X connect 18 0 17 0;
#X restore 797 105 pd clear;
#X obj 950 88 s tempo;
#X floatatom 949 64 5 0 0 0 - - - 0;
#X msg 949 37 89;
#X obj 555 529 s \$0-p;
#X obj 517 220 s \$0-p;
#X floatatom 558 479 5 0 0 0 - - - 0;
#X obj 558 455 random 100;
#X msg 557 503 kick (seq \$1 - - - - \$1 - -);
#X obj 138 271 s \$0-p;
#X obj 347 365 s \$0-p;
#X obj 194 528 s \$0-p;
#X msg 193 502 perc (delay (seq 1 2 3 - 11 11 11 11 - 2) 11);
#X msg 806 284 wavetable (seq 40 40 40 41 40 40 40 40 41 40 - - -);
#X msg 347 339 wavetable (seq 40 (rep - 7));
#X msg 12 339 rimshot (delay (seq 1 2 3) 32);
#X obj 13 365 s \$0-p;
#X obj 458 709 s \$0-p;
#X floatatom 460 654 5 0 0 0 - - - 0;
#X obj 460 630 random 100;
#X msg 457 682 ride (seq \$1 (rep - 3));
#X obj 577 612 s \$0-p;
#X obj 691 665 s \$0-p;
#X msg 576 585 woodblock (delay (rep (seq - 1 2 3 4 - 4 5 6) 2) 111);
#X msg 690 638 tom (delay (rep - 1 2 3 4 - 4 5 6 11 12 14) 211);
#X msg 137 244 monosynth (seq 40 (rep - 31));
#X obj 601 394 s \$0-p;
#X floatatom 605 337 5 0 0 0 - - - 0;
#X obj 604 314 random 100;
#X msg 601 368 openhh (seq - - \$1 -);
#X obj 28 499 s \$0-p;
#X floatatom 32 442 5 0 0 0 - - - 0;
#X obj 31 419 random 100;
#X msg 331 29 wavetable (seq (rep (seq 30 30 30 31 30 30 30 30 31 30 - - -) 7) (seq 35 35 35 36 35 35 35 35 36 35 - - - - - - - - - - - - - - - - - - - - - - - - - -));
#X floatatom 374 256 5 0 0 0 - - - 0;
#X obj 373 233 random 100;
#X obj 373 302 s \$0-p;
#X msg 374 277 shaker (seq \$1 \$1 (rep - 6));
#X msg 28 473 vox (seq \$1 (rep - 31));
#X obj 14 748 s \$0-p;
#X floatatom 18 691 5 0 0 0 - - - 0;
#X obj 17 668 random 100;
#X msg 14 722 crash (seq \$1 (rep - 31));
#X obj 69 26 pipe 1;
#X connect 0 0 64 0;
#X connect 1 0 7 0;
#X connect 2 0 6 0;
#X connect 2 0 13 0;
#X connect 4 0 49 0;
#X connect 4 0 53 0;
#X connect 4 1 46 0;
#X connect 4 1 62 0;
#X connect 4 2 45 0;
#X connect 4 3 40 0;
#X connect 4 4 20 0;
#X connect 4 5 33 0;
#X connect 4 6 46 0;
#X connect 4 7 36 0;
#X connect 4 7 56 0;
#X connect 4 8 44 0;
#X connect 4 9 8 0;
#X connect 4 10 5 0;
#X connect 4 11 54 0;
#X connect 4 11 15 0;
#X connect 4 12 12 0;
#X connect 4 12 28 0;
#X connect 4 13 21 0;
#X connect 4 13 24 0;
#X connect 5 0 2 0;
#X connect 8 0 1 0;
#X connect 11 0 19 0;
#X connect 14 0 16 0;
#X connect 15 0 14 0;
#X connect 16 0 26 0;
#X connect 18 0 3 0;
#X connect 19 0 10 0;
#X connect 19 1 9 0;
#X connect 19 2 4 0;
#X connect 23 0 22 0;
#X connect 24 0 23 0;
#X connect 27 0 29 0;
#X connect 28 0 27 0;
#X connect 29 0 25 0;
#X connect 33 0 32 0;
#X connect 35 0 31 0;
#X connect 36 0 37 0;
#X connect 39 0 41 0;
#X connect 40 0 39 0;
#X connect 41 0 38 0;
#X connect 44 0 42 0;
#X connect 45 0 43 0;
#X connect 46 0 30 0;
#X connect 48 0 50 0;
#X connect 49 0 48 0;
#X connect 50 0 47 0;
#X connect 52 0 59 0;
#X connect 53 0 52 0;
#X connect 54 0 31 0;
#X connect 55 0 58 0;
#X connect 56 0 55 0;
#X connect 58 0 57 0;
#X connect 59 0 51 0;
#X connect 61 0 63 0;
#X connect 62 0 61 0;
#X connect 63 0 60 0;
#X connect 64 0 11 0;
#X restore 462 392 pd dnb1;
#X obj 354 366 bng 19 250 50 0 empty empty empty 0 -10 0 12 #fcfcfc #000000 #000000;
#N canvas 198 69 1272 796 dnb0 0;
#X obj 69 2 inlet;
#X floatatom 104 603 5 0 0 0 - - - 0;
#X floatatom 870 412 5 0 0 0 - - - 0;
#X obj 236 764 outlet;
#X obj 67 118 t b b b b b b b b b b b b b b, f 76;
#X obj 873 380 random 100;
#X msg 870 437 hihat (seq (rep - 4) (rep \$1 4) (rep - 4) \$1 (rep - 3) );
#X msg 102 629 clap (seq (rep - 4) \$1 (rep - 2) \$1 (rep - 8) );
#X obj 107 578 random 100;
#X obj 157 76 s reset;
#X obj 94 75 s flush;
#X obj 138 15 bng 19 250 50 0 empty empty empty 0 -10 0 12 #fcfcfc #000000 #000000;
#X msg 793 259 wavetable (seq -);
#X msg 845 481 hihat (seq \$1);
#X floatatom 518 181 5 0 0 0 - - - 0;
#X obj 517 158 random 100;
#X msg 518 202 snare (seq - - \$1 -);
#X msg 754 174 wavetable (seq 40 - - - - - - - - - 40 - - - - - );
#X obj 237 738 r \$0-p;
#X obj 139 45 t b b b b;
#N canvas 14 96 622 390 clear 0;
#X msg 340 141 bass (seq -);
#X msg 73 143 wavetable (seq -);
#X msg 207 141 monosynth (seq -);
#X msg 45 176 kick (seq -);
#X msg 158 175 snare (seq -);
#X msg 268 177 hihat (seq -);
#X msg 395 171 clap (seq -);
#X msg 492 171 openhh (seq -);
#X msg 65 203 rimshot (seq -);
#X msg 189 206 perc (seq -);
#X msg 287 205 shaker (seq -);
#X msg 398 205 ride (seq -);
#X msg 492 205 tom (seq -);
#X msg 83 233 woodblock (seq -);
#X msg 224 234 crash (seq -);
#X msg 330 233 vox (seq -);
#X obj 81 287 s \$0-p;
#X obj 21 83 t b b b b b b b b b b b b b b b b b b b, f 75;
#X obj 22 52 inlet;
#X connect 0 0 16 0;
#X connect 1 0 16 0;
#X connect 2 0 16 0;
#X connect 3 0 16 0;
#X connect 4 0 16 0;
#X connect 5 0 16 0;
#X connect 6 0 16 0;
#X connect 7 0 16 0;
#X connect 8 0 16 0;
#X connect 9 0 16 0;
#X connect 10 0 16 0;
#X connect 11 0 16 0;
#X connect 12 0 16 0;
#X connect 13 0 16 0;
#X connect 14 0 16 0;
#X connect 15 0 16 0;
#X connect 17 2 13 0;
#X connect 17 3 8 0;
#X connect 17 4 3 0;
#X connect 17 5 1 0;
#X connect 17 6 14 0;
#X connect 17 7 9 0;
#X connect 17 8 4 0;
#X connect 17 9 2 0;
#X connect 17 10 5 0;
#X connect 17 11 14 0;
#X connect 17 12 10 0;
#X connect 17 13 0 0;
#X connect 17 14 15 0;
#X connect 17 15 6 0;
#X connect 17 16 11 0;
#X connect 17 17 7 0;
#X connect 17 18 12 0;
#X connect 18 0 17 0;
#X restore 797 105 pd clear;
#X obj 950 88 s tempo;
#X floatatom 949 64 5 0 0 0 - - - 0;
#X msg 949 37 89;
#X obj 639 549 s \$0-p;
#X obj 517 227 s \$0-p;
#X floatatom 558 479 5 0 0 0 - - - 0;
#X obj 558 455 random 100;
#X msg 557 503 kick (seq \$1 - - - - \$1 - -);
#X obj 138 271 s \$0-p;
#X obj 347 365 s \$0-p;
#X obj 194 528 s \$0-p;
#X msg 193 502 perc (delay (seq 1 2 3 - 11 11 11 11 - 2) 11);
#X msg 806 284 wavetable (seq 40 40 40 41 40 40 40 40 41 40 - - -);
#X msg 361 333 wavetable (seq 40 (rep - 7));
#X msg 12 339 rimshot (delay (seq 1 2 3) 32);
#X obj 13 365 s \$0-p;
#X obj 458 709 s \$0-p;
#X floatatom 460 654 5 0 0 0 - - - 0;
#X obj 460 630 random 100;
#X msg 457 682 ride (seq \$1 (rep - 3));
#X obj 577 612 s \$0-p;
#X obj 691 665 s \$0-p;
#X msg 576 585 woodblock (delay (rep (seq - 1 2 3 4 - 4 5 6) 2) 111);
#X msg 690 638 tom (delay (rep - 1 2 3 4 - 4 5 6 11 12 14) 211);
#X obj 601 394 s \$0-p;
#X floatatom 605 337 5 0 0 0 - - - 0;
#X obj 604 314 random 100;
#X msg 601 368 openhh (seq - - \$1 -);
#X obj 28 499 s \$0-p;
#X floatatom 32 442 5 0 0 0 - - - 0;
#X obj 31 419 random 100;
#X msg 331 29 wavetable (seq (rep (seq 30 30 30 31 30 30 30 30 31 30 - - -) 7) (seq 35 35 35 36 35 35 35 35 36 35 - - - - - - - - - - - - - - - - - - - - - - - - - -));
#X floatatom 374 256 5 0 0 0 - - - 0;
#X obj 373 233 random 100;
#X obj 373 302 s \$0-p;
#X msg 374 277 shaker (seq \$1 \$1 (rep - 6));
#X obj 14 748 s \$0-p;
#X floatatom 18 691 5 0 0 0 - - - 0;
#X obj 17 668 random 100;
#X msg 14 722 crash (seq \$1 (rep - 31));
#X msg 137 244 monosynth (seq 40 (rep - 63));
#X msg 28 473 vox (seq \$1 (rep - 63));
#X connect 0 0 19 0;
#X connect 1 0 7 0;
#X connect 2 0 6 0;
#X connect 2 0 13 0;
#X connect 4 0 51 0;
#X connect 4 1 59 0;
#X connect 4 2 44 0;
#X connect 4 3 39 0;
#X connect 4 5 32 0;
#X connect 4 6 61 0;
#X connect 4 7 34 0;
#X connect 4 8 43 0;
#X connect 4 9 8 0;
#X connect 4 10 5 0;
#X connect 4 11 52 0;
#X connect 4 12 12 0;
#X connect 4 12 27 0;
#X connect 4 13 20 0;
#X connect 4 13 23 0;
#X connect 5 0 2 0;
#X connect 8 0 1 0;
#X connect 11 0 19 0;
#X connect 14 0 16 0;
#X connect 15 0 14 0;
#X connect 16 0 25 0;
#X connect 18 0 3 0;
#X connect 19 0 10 0;
#X connect 19 1 9 0;
#X connect 19 2 4 0;
#X connect 22 0 21 0;
#X connect 23 0 22 0;
#X connect 26 0 28 0;
#X connect 27 0 26 0;
#X connect 32 0 31 0;
#X connect 35 0 36 0;
#X connect 38 0 40 0;
#X connect 39 0 38 0;
#X connect 40 0 37 0;
#X connect 43 0 41 0;
#X connect 44 0 42 0;
#X connect 46 0 48 0;
#X connect 47 0 46 0;
#X connect 48 0 45 0;
#X connect 50 0 62 0;
#X connect 51 0 50 0;
#X connect 53 0 56 0;
#X connect 54 0 53 0;
#X connect 56 0 55 0;
#X connect 58 0 60 0;
#X connect 59 0 58 0;
#X connect 60 0 57 0;
#X connect 61 0 29 0;
#X connect 62 0 49 0;
#X restore 355 393 pd dnb0;
#X obj 579 701 r patterns;
#X obj 282 563 s patterns;
#X obj 190 563 s patterns;
#X obj 629 300 s patterns;
#X obj 463 414 s patterns;
#X obj 354 416 s patterns;
#N canvas 104 110 1273 796 house1 0;
#X obj 69 2 inlet;
#X floatatom 104 603 5 0 0 0 - - - 0;
#X floatatom 543 579 5 0 0 0 - - - 0;
#X obj 236 764 outlet;
#X obj 67 118 t b b b b b b b b b b b b b b, f 58;
#X obj 546 547 random 100;
#X msg 543 604 hihat (seq (rep - 4) (rep \$1 4) (rep - 4) \$1 (rep - 3) );
#X msg 102 629 clap (seq (rep - 4) \$1 (rep - 2) \$1 (rep - 8) );
#X obj 107 578 random 100;
#X obj 157 76 s reset;
#X obj 94 75 s flush;
#X obj 279 14 bng 19 250 50 0 empty empty empty 0 -10 0 12 #fcfcfc #000000 #000000;
#X msg 539 477 kick (seq 1 - - -);
#X msg 537 423 wavetable (seq 40 40 40 41 40 40 40 40 41 40 - - -);
#X msg 653 309 wavetable (seq -);
#X msg 394 382 bass (seq 40 40 40 41 40 40 40 40 41 40 - - -);
#X msg 518 648 hihat (seq \$1);
#X floatatom 248 401 5 0 0 0 - - - 0;
#X obj 251 369 random 100;
#X msg 243 437 snare (seq - - \$1 -);
#X msg 451 345 wavetable (seq 40 - - - - - - - - - 40 - - - - - );
#X msg 224 258 monosynth (seq 64 (rep - 31));
#X obj 237 738 r \$0-p;
#X obj 139 45 t b b b b;
#X msg 193 502 perc (seq 1 2 3 - 11 11 11 11 - 2);
#X msg 99 218 perc (seq -);
#X obj 544 13 bng 19 250 50 0 empty empty empty 0 -10 0 12 #fcfcfc #000000 #000000;
#N canvas 63 97 622 390 clear 0;
#X msg 340 141 bass (seq -);
#X msg 73 143 wavetable (seq -);
#X msg 207 141 monosynth (seq -);
#X msg 45 176 kick (seq -);
#X msg 158 175 snare (seq -);
#X msg 268 177 hihat (seq -);
#X msg 395 171 clap (seq -);
#X msg 492 171 openhh (seq -);
#X msg 65 203 rimshot (seq -);
#X msg 189 206 perc (seq -);
#X msg 287 205 shaker (seq -);
#X msg 398 205 ride (seq -);
#X msg 492 205 tom (seq -);
#X msg 83 233 woodblock (seq -);
#X msg 224 234 crash (seq -);
#X msg 330 233 vox (seq -);
#X obj 81 287 s \$0-p;
#X obj 21 83 t b b b b b b b b b b b b b b b b b b b, f 75;
#X obj 22 52 inlet;
#X connect 0 0 16 0;
#X connect 1 0 16 0;
#X connect 2 0 16 0;
#X connect 3 0 16 0;
#X connect 4 0 16 0;
#X connect 5 0 16 0;
#X connect 6 0 16 0;
#X connect 7 0 16 0;
#X connect 8 0 16 0;
#X connect 9 0 16 0;
#X connect 10 0 16 0;
#X connect 11 0 16 0;
#X connect 12 0 16 0;
#X connect 13 0 16 0;
#X connect 14 0 16 0;
#X connect 15 0 16 0;
#X connect 17 2 13 0;
#X connect 17 3 8 0;
#X connect 17 4 3 0;
#X connect 17 5 1 0;
#X connect 17 6 14 0;
#X connect 17 7 9 0;
#X connect 17 8 4 0;
#X connect 17 9 2 0;
#X connect 17 10 5 0;
#X connect 17 11 14 0;
#X connect 17 12 10 0;
#X connect 17 13 0 0;
#X connect 17 14 15 0;
#X connect 17 15 6 0;
#X connect 17 16 11 0;
#X connect 17 17 7 0;
#X connect 17 18 12 0;
#X connect 18 0 17 0;
#X restore 495 117 pd clear;
#X obj 501 199 s tempo;
#X floatatom 500 175 5 0 0 0 - - - 0;
#X msg 501 150 111;
#X connect 0 0 23 0;
#X connect 1 0 7 0;
#X connect 2 0 6 0;
#X connect 2 0 16 0;
#X connect 4 4 25 0;
#X connect 4 5 24 0;
#X connect 4 6 21 0;
#X connect 4 8 15 0;
#X connect 4 9 8 0;
#X connect 4 10 5 0;
#X connect 4 11 13 0;
#X connect 4 11 18 0;
#X connect 4 12 12 0;
#X connect 4 12 14 0;
#X connect 4 13 26 0;
#X connect 4 13 27 0;
#X connect 4 13 30 0;
#X connect 5 0 2 0;
#X connect 7 0 3 0;
#X connect 8 0 1 0;
#X connect 11 0 23 0;
#X connect 12 0 3 0;
#X connect 15 0 3 0;
#X connect 16 0 3 0;
#X connect 17 0 19 0;
#X connect 18 0 17 0;
#X connect 19 0 3 0;
#X connect 22 0 3 0;
#X connect 23 0 10 0;
#X connect 23 1 9 0;
#X connect 23 2 4 0;
#X connect 29 0 28 0;
#X connect 30 0 29 0;
#X restore 628 275 pd house1;
#N canvas 117 254 453 641 8bar_selekta 0;
#X obj 149 115 i;
#X obj 187 117 + 1;
#X floatatom 147 139 5 0 0 0 - - - 0;
#X obj 144 192 sel 1;
#X obj 146 220 bng 19 250 50 0 empty empty empty 0 -10 0 12 #fcfcfc #000000 #000000;
#X obj 142 247 i;
#X obj 180 249 + 1;
#X floatatom 144 278 5 0 0 0 - - - 0;
#X obj 141 301 % 2;
#X obj 147 163 % 8;
#X obj 240 468 pipe 1;
#X obj 170 334 sel 0 1;
#X obj 149 89 inlet;
#X obj 317 525 outlet;
#X obj 238 494 t b b b;
#X obj 256 525 s reset;
#X obj 193 524 s flush;
#X obj 166 430 outlet;
#X obj 87 399 t b b b;
#X obj 105 430 s reset;
#X obj 42 429 s flush;
#X connect 0 0 1 0;
#X connect 0 0 2 0;
#X connect 1 0 0 1;
#X connect 2 0 9 0;
#X connect 3 0 4 0;
#X connect 4 0 5 0;
#X connect 5 0 6 0;
#X connect 5 0 7 0;
#X connect 6 0 5 1;
#X connect 7 0 8 0;
#X connect 8 0 11 0;
#X connect 9 0 3 0;
#X connect 10 0 14 0;
#X connect 11 0 18 0;
#X connect 11 0 17 0;
#X connect 11 1 13 0;
#X connect 12 0 0 0;
#X connect 14 0 16 0;
#X connect 14 1 15 0;
#X connect 18 0 20 0;
#X connect 18 1 19 0;
#X restore 629 219 pd 8bar_selekta;
#X f 17;
#X obj 726 251 bng 19 250 50 0 empty empty empty 0 -10 0 12 #fcfcfc #000000 #000000;
#X obj 727 302 s patterns;
#N canvas 104 110 1273 796 house2 0;
#X obj 69 2 inlet;
#X floatatom 104 603 5 0 0 0 - - - 0;
#X floatatom 543 579 5 0 0 0 - - - 0;
#X obj 236 764 outlet;
#X obj 67 118 t b b b b b b b b b b b b b b, f 58;
#X obj 546 547 random 100;
#X msg 622 605 hihat (seq (rep - 4) (rep \$1 4) (rep - 4) \$1 (rep - 3) );
#X msg 102 629 clap (seq (rep - 4) \$1 (rep - 2) \$1 (rep - 8) );
#X obj 107 578 random 100;
#X obj 157 76 s reset;
#X obj 94 75 s flush;
#X obj 279 14 bng 19 250 50 0 empty empty empty 0 -10 0 12 #fcfcfc #000000 #000000;
#X msg 539 477 kick (seq 1 - - -);
#X msg 537 423 wavetable (seq 40 40 40 41 40 40 40 40 41 40 - - -);
#X msg 555 448 wavetable (seq -);
#X msg 542 648 hihat (seq \$1);
#X floatatom 248 401 5 0 0 0 - - - 0;
#X obj 251 369 random 100;
#X msg 243 437 snare (seq - - \$1 -);
#X msg 625 159 wavetable (seq 40 - - - - - - - - - 40 - - - - - );
#X obj 316 735 r \$0-p;
#X obj 139 45 t b b b b;
#X msg 193 502 perc (seq 1 2 3 - 11 11 11 11 - 2);
#X msg 870 48 perc (seq -);
#X obj 544 13 bng 19 250 50 0 empty empty empty 0 -10 0 12 #fcfcfc #000000 #000000;
#N canvas 63 97 622 390 clear 0;
#X msg 340 141 bass (seq -);
#X msg 73 143 wavetable (seq -);
#X msg 207 141 monosynth (seq -);
#X msg 45 176 kick (seq -);
#X msg 158 175 snare (seq -);
#X msg 268 177 hihat (seq -);
#X msg 395 171 clap (seq -);
#X msg 492 171 openhh (seq -);
#X msg 65 203 rimshot (seq -);
#X msg 189 206 perc (seq -);
#X msg 287 205 shaker (seq -);
#X msg 398 205 ride (seq -);
#X msg 492 205 tom (seq -);
#X msg 83 233 woodblock (seq -);
#X msg 224 234 crash (seq -);
#X msg 330 233 vox (seq -);
#X obj 81 287 s \$0-p;
#X obj 21 83 t b b b b b b b b b b b b b b b b b b b, f 75;
#X obj 22 52 inlet;
#X connect 0 0 16 0;
#X connect 1 0 16 0;
#X connect 2 0 16 0;
#X connect 3 0 16 0;
#X connect 4 0 16 0;
#X connect 5 0 16 0;
#X connect 6 0 16 0;
#X connect 7 0 16 0;
#X connect 8 0 16 0;
#X connect 9 0 16 0;
#X connect 10 0 16 0;
#X connect 11 0 16 0;
#X connect 12 0 16 0;
#X connect 13 0 16 0;
#X connect 14 0 16 0;
#X connect 15 0 16 0;
#X connect 17 2 13 0;
#X connect 17 3 8 0;
#X connect 17 4 3 0;
#X connect 17 5 1 0;
#X connect 17 6 14 0;
#X connect 17 7 9 0;
#X connect 17 8 4 0;
#X connect 17 9 2 0;
#X connect 17 10 5 0;
#X connect 17 11 14 0;
#X connect 17 12 10 0;
#X connect 17 13 0 0;
#X connect 17 14 15 0;
#X connect 17 15 6 0;
#X connect 17 16 11 0;
#X connect 17 17 7 0;
#X connect 17 18 12 0;
#X connect 18 0 17 0;
#X restore 495 117 pd clear;
#X obj 501 199 s tempo;
#X floatatom 500 175 5 0 0 0 - - - 0;
#X msg 501 150 111;
#X obj 69 26 pipe 1;
#X msg 394 382 bass (seq 30 30 30 31 30 30 30 30 31 30 - - -);
#X msg 371 342 wavetable (seq 30 30 30 31 30 30 30 30 31 30 - - -);
#X obj 756 328 s \$0-p;
#X msg 753 302 monosynth (seq 66 (rep - 31));
#X floatatom 1038 341 5 0 0 0 - - - 0;
#X obj 1041 309 random 100;
#X obj 1032 404 s \$0-p;
#X msg 1036 372 openhh (seq - - \$1 -);
#X msg 636 78 rimshot (seq -);
#X msg 760 81 perc (seq -);
#X msg 969 80 ride (seq -);
#X msg 1063 80 tom (seq -);
#X msg 654 108 woodblock (seq -);
#X msg 844 198 crash (seq -);
#X msg 901 108 vox (seq -);
#X floatatom 965 489 5 0 0 0 - - - 0;
#X obj 968 457 random 100;
#X obj 959 552 s \$0-p;
#X msg 963 520 shaker (seq \$1);
#X floatatom 60 245 5 0 0 0 - - - 0;
#X obj 63 213 random 100;
#X obj 54 308 s \$0-p;
#X msg 58 276 ride (seq \$1 - - -);
#X floatatom 1030 190 5 0 0 0 - - - 0;
#X obj 1033 158 random 100;
#X obj 1024 253 s \$0-p;
#X msg 1028 221 crash (seq \$1 (rep - 15));
#X connect 0 0 29 0;
#X connect 1 0 7 0;
#X connect 2 0 6 0;
#X connect 2 0 15 0;
#X connect 4 0 54 0;
#X connect 4 1 50 0;
#X connect 4 2 46 0;
#X connect 4 3 35 0;
#X connect 4 5 22 0;
#X connect 4 6 33 0;
#X connect 4 7 31 0;
#X connect 4 8 30 0;
#X connect 4 9 8 0;
#X connect 4 10 5 0;
#X connect 4 11 13 0;
#X connect 4 11 17 0;
#X connect 4 12 12 0;
#X connect 4 12 14 0;
#X connect 4 13 24 0;
#X connect 4 13 25 0;
#X connect 4 13 28 0;
#X connect 5 0 2 0;
#X connect 7 0 3 0;
#X connect 8 0 1 0;
#X connect 11 0 21 0;
#X connect 12 0 3 0;
#X connect 15 0 3 0;
#X connect 16 0 18 0;
#X connect 17 0 16 0;
#X connect 18 0 3 0;
#X connect 20 0 3 0;
#X connect 21 0 10 0;
#X connect 21 1 9 0;
#X connect 21 2 4 0;
#X connect 27 0 26 0;
#X connect 28 0 27 0;
#X connect 29 0 21 0;
#X connect 30 0 3 0;
#X connect 31 0 3 0;
#X connect 33 0 32 0;
#X connect 34 0 37 0;
#X connect 35 0 34 0;
#X connect 37 0 36 0;
#X connect 45 0 48 0;
#X connect 46 0 45 0;
#X connect 48 0 47 0;
#X connect 49 0 52 0;
#X connect 50 0 49 0;
#X connect 52 0 51 0;
#X connect 53 0 56 0;
#X connect 54 0 53 0;
#X connect 56 0 55 0;
#X restore 726 277 pd house2;
#N canvas 117 254 453 641 16bar_selekta 0;
#X obj 149 115 i;
#X obj 187 117 + 1;
#X floatatom 147 139 5 0 0 0 - - - 0;
#X obj 144 192 sel 1;
#X obj 146 220 bng 19 250 50 0 empty empty empty 0 -10 0 12 #fcfcfc #000000 #000000;
#X obj 142 247 i;
#X obj 180 249 + 1;
#X floatatom 144 278 5 0 0 0 - - - 0;
#X obj 141 301 % 2;
#X obj 240 468 pipe 1;
#X obj 170 334 sel 0 1;
#X obj 149 89 inlet;
#X obj 317 525 outlet;
#X obj 238 494 t b b b;
#X obj 256 525 s reset;
#X obj 193 524 s flush;
#X obj 166 430 outlet;
#X obj 87 399 t b b b;
#X obj 105 430 s reset;
#X obj 42 429 s flush;
#X obj 147 163 % 16;
#X connect 0 0 1 0;
#X connect 0 0 2 0;
#X connect 1 0 0 1;
#X connect 2 0 20 0;
#X connect 3 0 4 0;
#X connect 4 0 5 0;
#X connect 5 0 6 0;
#X connect 5 0 7 0;
#X connect 6 0 5 1;
#X connect 7 0 8 0;
#X connect 8 0 10 0;
#X connect 9 0 13 0;
#X connect 10 0 17 0;
#X connect 10 0 16 0;
#X connect 10 1 12 0;
#X connect 11 0 0 0;
#X connect 13 0 15 0;
#X connect 13 1 14 0;
#X connect 17 0 19 0;
#X connect 17 1 18 0;
#X connect 20 0 3 0;
#X restore 356 336 pd 16bar_selekta;
#X f 17;
#N canvas 188 68 1272 796 dubstep2 0;
#X obj 69 2 inlet;
#X floatatom 104 603 5 0 0 0 - - - 0;
#X floatatom 936 360 5 0 0 0 - - - 0;
#X obj 236 764 outlet;
#X obj 67 118 t b b b b b b b b b b b b b b, f 76;
#X obj 939 328 random 100;
#X msg 933 385 hihat (seq (rep - 4) (rep \$1 4) (rep - 4) \$1 (rep - 3) );
#X obj 107 578 random 100;
#X obj 157 76 s reset;
#X obj 94 75 s flush;
#X obj 138 15 bng 19 250 50 0 empty empty empty 0 -10 0 12 #fcfcfc #000000 #000000;
#X msg 903 236 wavetable (seq -);
#X msg 1106 307 hihat (seq \$1);
#X floatatom 518 174 5 0 0 0 - - - 0;
#X obj 517 151 random 100;
#X msg 754 174 wavetable (seq 40 - - - - - - - - - 40 - - - - - );
#X obj 237 738 r \$0-p;
#X obj 139 45 t b b b b;
#N canvas 14 96 622 390 clear 0;
#X msg 340 141 bass (seq -);
#X msg 73 143 wavetable (seq -);
#X msg 207 141 monosynth (seq -);
#X msg 45 176 kick (seq -);
#X msg 158 175 snare (seq -);
#X msg 268 177 hihat (seq -);
#X msg 395 171 clap (seq -);
#X msg 492 171 openhh (seq -);
#X msg 65 203 rimshot (seq -);
#X msg 189 206 perc (seq -);
#X msg 287 205 shaker (seq -);
#X msg 398 205 ride (seq -);
#X msg 492 205 tom (seq -);
#X msg 83 233 woodblock (seq -);
#X msg 224 234 crash (seq -);
#X msg 330 233 vox (seq -);
#X obj 81 287 s \$0-p;
#X obj 21 83 t b b b b b b b b b b b b b b b b b b b, f 75;
#X obj 22 52 inlet;
#X connect 0 0 16 0;
#X connect 1 0 16 0;
#X connect 2 0 16 0;
#X connect 3 0 16 0;
#X connect 4 0 16 0;
#X connect 5 0 16 0;
#X connect 6 0 16 0;
#X connect 7 0 16 0;
#X connect 8 0 16 0;
#X connect 9 0 16 0;
#X connect 10 0 16 0;
#X connect 11 0 16 0;
#X connect 12 0 16 0;
#X connect 13 0 16 0;
#X connect 14 0 16 0;
#X connect 15 0 16 0;
#X connect 17 2 13 0;
#X connect 17 3 8 0;
#X connect 17 4 3 0;
#X connect 17 5 1 0;
#X connect 17 6 14 0;
#X connect 17 7 9 0;
#X connect 17 8 4 0;
#X connect 17 9 2 0;
#X connect 17 10 5 0;
#X connect 17 11 14 0;
#X connect 17 12 10 0;
#X connect 17 13 0 0;
#X connect 17 14 15 0;
#X connect 17 15 6 0;
#X connect 17 16 11 0;
#X connect 17 17 7 0;
#X connect 17 18 12 0;
#X connect 18 0 17 0;
#X restore 632 117 pd clear;
#X obj 950 88 s tempo;
#X floatatom 949 64 5 0 0 0 - - - 0;
#X obj 558 526 s \$0-p;
#X obj 517 232 s \$0-p;
#X floatatom 558 479 5 0 0 0 - - - 0;
#X obj 558 455 random 100;
#X obj 140 291 s \$0-p;
#X obj 617 299 s \$0-p;
#X obj 731 713 s \$0-p;
#X msg 730 670 perc (delay (seq 1 2 3 - 11 11 11 11 - 2) 11);
#X msg 916 261 wavetable (seq 40 40 40 41 40 40 40 40 41 40 - - -);
#X msg 277 504 rimshot (delay (seq 1 2 3) 32);
#X obj 278 540 s \$0-p;
#X obj 458 710 s \$0-p;
#X floatatom 460 654 5 0 0 0 - - - 0;
#X obj 460 630 random 100;
#X msg 457 682 ride (seq \$1 (rep - 3));
#X obj 930 490 s \$0-p;
#X obj 806 589 s \$0-p;
#X msg 929 462 woodblock (delay (rep (seq - 1 2 3 4 - 4 5 6) 2) 111);
#X obj 753 400 s \$0-p;
#X floatatom 757 321 5 0 0 0 - - - 0;
#X obj 756 298 random 100;
#X msg 753 352 openhh (seq - - \$1 -);
#X obj 28 536 s \$0-p;
#X floatatom 32 442 5 0 0 0 - - - 0;
#X obj 31 419 random 100;
#X msg 331 29 wavetable (seq (rep (seq 30 30 30 31 30 30 30 30 31 30 - - -) 7) (seq 35 35 35 36 35 35 35 35 36 35 - - - - - - - - - - - - - - - - - - - - - - - - - -));
#X floatatom 374 256 5 0 0 0 - - - 0;
#X obj 373 233 random 100;
#X obj 373 321 s \$0-p;
#X msg 369 280 shaker (seq \$1 \$1 (rep - 6));
#X msg 28 473 vox (seq \$1 (rep - 31));
#X obj 14 748 s \$0-p;
#X floatatom 18 691 5 0 0 0 - - - 0;
#X obj 17 668 random 100;
#X msg 14 722 crash (seq \$1 (rep - 31));
#X obj 69 26 pipe 1;
#X msg 949 37 111;
#X msg 557 503 kick (seq \$1 - - -);
#X msg 518 195 snare (seq - - - - \$1 - - -);
#X obj 371 433 s \$0-p;
#X msg 141 185 monosynth (seq 59 (rep - 31));
#X msg 370 409 wavetable (seq 30 30 - -);
#X obj 112 664 s \$0-p;
#X msg 102 629 clap (seq - - - - - - - - \$1 - - - - - - -);
#X msg 805 555 tom (delay (rep - 1 2 3 4 - 4 5 6 11 12 14) 11);
#X msg 123 250 perc (grow (seq 1 - 2 - - 3 - 4));
#X msg 618 265 vox (seq 40 (rep - 7));
#X connect 0 0 56 0;
#X connect 1 0 64 0;
#X connect 2 0 6 0;
#X connect 2 0 12 0;
#X connect 4 0 45 0;
#X connect 4 0 66 0;
#X connect 4 1 54 0;
#X connect 4 2 61 0;
#X connect 4 2 67 0;
#X connect 4 3 34 0;
#X connect 4 4 41 0;
#X connect 4 5 28 0;
#X connect 4 6 62 0;
#X connect 4 7 30 0;
#X connect 4 7 48 0;
#X connect 4 8 65 0;
#X connect 4 9 7 0;
#X connect 4 10 5 0;
#X connect 4 11 46 0;
#X connect 4 11 14 0;
#X connect 4 12 11 0;
#X connect 4 12 24 0;
#X connect 4 13 18 0;
#X connect 4 13 57 0;
#X connect 5 0 2 0;
#X connect 6 0 36 0;
#X connect 7 0 1 0;
#X connect 10 0 17 0;
#X connect 13 0 59 0;
#X connect 14 0 13 0;
#X connect 16 0 3 0;
#X connect 17 0 9 0;
#X connect 17 1 8 0;
#X connect 17 2 4 0;
#X connect 20 0 19 0;
#X connect 23 0 58 0;
#X connect 24 0 23 0;
#X connect 28 0 27 0;
#X connect 30 0 31 0;
#X connect 33 0 35 0;
#X connect 34 0 33 0;
#X connect 35 0 32 0;
#X connect 40 0 42 0;
#X connect 41 0 40 0;
#X connect 42 0 39 0;
#X connect 44 0 51 0;
#X connect 45 0 44 0;
#X connect 47 0 50 0;
#X connect 48 0 47 0;
#X connect 50 0 49 0;
#X connect 53 0 55 0;
#X connect 54 0 53 0;
#X connect 55 0 52 0;
#X connect 56 0 10 0;
#X connect 57 0 20 0;
#X connect 58 0 21 0;
#X connect 59 0 22 0;
#X connect 62 0 60 0;
#X connect 64 0 63 0;
#X connect 65 0 37 0;
#X connect 66 0 25 0;
#X connect 67 0 26 0;
#X restore 559 564 pd dubstep2;
#N canvas 73 84 1272 796 dubstep1 0;
#X obj 69 2 inlet;
#X floatatom 104 603 5 0 0 0 - - - 0;
#X floatatom 936 360 5 0 0 0 - - - 0;
#X obj 236 764 outlet;
#X obj 67 118 t b b b b b b b b b b b b b b, f 76;
#X obj 939 328 random 100;
#X msg 933 385 hihat (seq (rep - 4) (rep \$1 4) (rep - 4) \$1 (rep - 3) );
#X obj 107 578 random 100;
#X obj 157 76 s reset;
#X obj 94 75 s flush;
#X obj 138 15 bng 19 250 50 0 empty empty empty 0 -10 0 12 #fcfcfc #000000 #000000;
#X msg 903 236 wavetable (seq -);
#X msg 1106 307 hihat (seq \$1);
#X floatatom 518 174 5 0 0 0 - - - 0;
#X obj 517 151 random 100;
#X msg 788 157 wavetable (seq 40 - - - - - - - - - 40 - - - - - );
#X obj 237 738 r \$0-p;
#X obj 139 45 t b b b b;
#N canvas 14 96 622 390 clear 0;
#X msg 340 141 bass (seq -);
#X msg 73 143 wavetable (seq -);
#X msg 207 141 monosynth (seq -);
#X msg 45 176 kick (seq -);
#X msg 158 175 snare (seq -);
#X msg 268 177 hihat (seq -);
#X msg 395 171 clap (seq -);
#X msg 492 171 openhh (seq -);
#X msg 65 203 rimshot (seq -);
#X msg 189 206 perc (seq -);
#X msg 287 205 shaker (seq -);
#X msg 398 205 ride (seq -);
#X msg 492 205 tom (seq -);
#X msg 83 233 woodblock (seq -);
#X msg 224 234 crash (seq -);
#X msg 330 233 vox (seq -);
#X obj 81 287 s \$0-p;
#X obj 21 83 t b b b b b b b b b b b b b b b b b b b, f 75;
#X obj 22 52 inlet;
#X connect 0 0 16 0;
#X connect 1 0 16 0;
#X connect 2 0 16 0;
#X connect 3 0 16 0;
#X connect 4 0 16 0;
#X connect 5 0 16 0;
#X connect 6 0 16 0;
#X connect 7 0 16 0;
#X connect 8 0 16 0;
#X connect 9 0 16 0;
#X connect 10 0 16 0;
#X connect 11 0 16 0;
#X connect 12 0 16 0;
#X connect 13 0 16 0;
#X connect 14 0 16 0;
#X connect 15 0 16 0;
#X connect 17 2 13 0;
#X connect 17 3 8 0;
#X connect 17 4 3 0;
#X connect 17 5 1 0;
#X connect 17 6 14 0;
#X connect 17 7 9 0;
#X connect 17 8 4 0;
#X connect 17 9 2 0;
#X connect 17 10 5 0;
#X connect 17 11 14 0;
#X connect 17 12 10 0;
#X connect 17 13 0 0;
#X connect 17 14 15 0;
#X connect 17 15 6 0;
#X connect 17 16 11 0;
#X connect 17 17 7 0;
#X connect 17 18 12 0;
#X connect 18 0 17 0;
#X restore 632 117 pd clear;
#X obj 950 88 s tempo;
#X floatatom 949 64 5 0 0 0 - - - 0;
#X obj 558 526 s \$0-p;
#X obj 517 232 s \$0-p;
#X floatatom 558 479 5 0 0 0 - - - 0;
#X obj 558 455 random 100;
#X obj 140 291 s \$0-p;
#X obj 617 299 s \$0-p;
#X obj 731 713 s \$0-p;
#X msg 730 670 perc (delay (seq 1 2 3 - 11 11 11 11 - 2) 11);
#X msg 916 261 wavetable (seq 40 40 40 41 40 40 40 40 41 40 - - -);
#X msg 277 504 rimshot (delay (seq 1 2 3) 32);
#X obj 278 540 s \$0-p;
#X obj 458 737 s \$0-p;
#X floatatom 460 654 5 0 0 0 - - - 0;
#X obj 460 630 random 100;
#X msg 457 682 ride (seq \$1 (rep - 3));
#X obj 930 490 s \$0-p;
#X obj 806 589 s \$0-p;
#X msg 929 462 woodblock (delay (rep (seq - 1 2 3 4 - 4 5 6) 2) 111);
#X obj 753 400 s \$0-p;
#X floatatom 757 321 5 0 0 0 - - - 0;
#X obj 756 298 random 100;
#X msg 753 352 openhh (seq - - \$1 -);
#X obj 28 536 s \$0-p;
#X floatatom 32 442 5 0 0 0 - - - 0;
#X obj 31 419 random 100;
#X msg 406 35 wavetable (seq (rep (seq 30 30 30 31 30 30 30 30 31 30 - - -) 7) (seq 35 35 35 36 35 35 35 35 36 35 - - - - - - - - - - - - - - - - - - - - - - - - - -));
#X floatatom 374 256 5 0 0 0 - - - 0;
#X obj 373 233 random 100;
#X obj 373 321 s \$0-p;
#X msg 369 280 shaker (seq \$1 \$1 (rep - 6));
#X msg 28 473 vox (seq \$1 (rep - 31));
#X obj 14 748 s \$0-p;
#X floatatom 18 691 5 0 0 0 - - - 0;
#X obj 17 668 random 100;
#X msg 14 722 crash (seq \$1 (rep - 31));
#X obj 69 26 pipe 1;
#X msg 949 37 111;
#X msg 557 503 kick (seq \$1 - - -);
#X msg 518 195 snare (seq - - - - \$1 - - -);
#X obj 371 433 s \$0-p;
#X msg 141 185 monosynth (seq 59 (rep - 31));
#X msg 370 409 wavetable (seq 30 30 - -);
#X obj 112 664 s \$0-p;
#X msg 102 629 clap (seq - - - - - - - - \$1 - - - - - - -);
#X msg 805 538 tom (delay (rep - 1 2 3 4 - 4 5 6 11 12 14) 11);
#X msg 123 250 perc (grow (seq 1 - 2 - - 3 - 4));
#X msg 618 265 vox (seq 40 (rep - 7));
#X connect 0 0 56 0;
#X connect 1 0 64 0;
#X connect 2 0 6 0;
#X connect 2 0 12 0;
#X connect 4 0 45 0;
#X connect 4 0 66 0;
#X connect 4 1 54 0;
#X connect 4 2 61 0;
#X connect 4 2 67 0;
#X connect 4 3 34 0;
#X connect 4 3 46 0;
#X connect 4 4 41 0;
#X connect 4 5 28 0;
#X connect 4 6 15 0;
#X connect 4 7 30 0;
#X connect 4 7 48 0;
#X connect 4 8 65 0;
#X connect 4 9 7 0;
#X connect 4 10 5 0;
#X connect 4 11 14 0;
#X connect 4 12 11 0;
#X connect 4 12 24 0;
#X connect 4 13 18 0;
#X connect 4 13 57 0;
#X connect 5 0 2 0;
#X connect 7 0 1 0;
#X connect 10 0 17 0;
#X connect 13 0 59 0;
#X connect 14 0 13 0;
#X connect 16 0 3 0;
#X connect 17 0 9 0;
#X connect 17 1 8 0;
#X connect 17 2 4 0;
#X connect 20 0 19 0;
#X connect 23 0 58 0;
#X connect 24 0 23 0;
#X connect 30 0 31 0;
#X connect 33 0 35 0;
#X connect 34 0 33 0;
#X connect 40 0 42 0;
#X connect 41 0 40 0;
#X connect 44 0 51 0;
#X connect 45 0 44 0;
#X connect 46 0 25 0;
#X connect 47 0 50 0;
#X connect 48 0 47 0;
#X connect 53 0 55 0;
#X connect 54 0 53 0;
#X connect 55 0 52 0;
#X connect 56 0 10 0;
#X connect 57 0 20 0;
#X connect 58 0 21 0;
#X connect 59 0 22 0;
#X connect 62 0 60 0;
#X connect 64 0 63 0;
#X connect 67 0 26 0;
#X restore 444 563 pd dubstep1;
#N canvas 117 254 453 641 16bar_selekta 0;
#X obj 149 115 i;
#X obj 187 117 + 1;
#X floatatom 147 139 5 0 0 0 - - - 0;
#X obj 144 192 sel 1;
#X obj 146 220 bng 19 250 50 0 empty empty empty 0 -10 0 12 #fcfcfc #000000 #000000;
#X obj 142 247 i;
#X obj 180 249 + 1;
#X floatatom 144 278 5 0 0 0 - - - 0;
#X obj 141 301 % 2;
#X obj 240 468 pipe 1;
#X obj 170 334 sel 0 1;
#X obj 149 89 inlet;
#X obj 317 525 outlet;
#X obj 238 494 t b b b;
#X obj 256 525 s reset;
#X obj 193 524 s flush;
#X obj 166 430 outlet;
#X obj 87 399 t b b b;
#X obj 105 430 s reset;
#X obj 42 429 s flush;
#X obj 147 163 % 16;
#X connect 0 0 1 0;
#X connect 0 0 2 0;
#X connect 1 0 0 1;
#X connect 2 0 20 0;
#X connect 3 0 4 0;
#X connect 4 0 5 0;
#X connect 5 0 6 0;
#X connect 5 0 7 0;
#X connect 6 0 5 1;
#X connect 7 0 8 0;
#X connect 8 0 10 0;
#X connect 9 0 13 0;
#X connect 10 0 17 0;
#X connect 10 0 16 0;
#X connect 10 1 12 0;
#X connect 11 0 0 0;
#X connect 13 0 15 0;
#X connect 13 1 14 0;
#X connect 17 0 19 0;
#X connect 17 1 18 0;
#X connect 20 0 3 0;
#X restore 445 500 pd 16bar_selekta;
#X f 17;
#X obj 946 247 bng 19 250 50 0 empty empty empty 0 -10 0 12 #fcfcfc #000000 #000000;
#X obj 947 298 s patterns;
#N canvas 117 254 453 641 8bar_selekta 0;
#X obj 149 115 i;
#X obj 187 117 + 1;
#X floatatom 147 139 5 0 0 0 - - - 0;
#X obj 144 192 sel 1;
#X obj 146 220 bng 19 250 50 0 empty empty empty 0 -10 0 12 #fcfcfc #000000 #000000;
#X obj 142 247 i;
#X obj 180 249 + 1;
#X floatatom 144 278 5 0 0 0 - - - 0;
#X obj 141 301 % 2;
#X obj 147 163 % 8;
#X obj 240 468 pipe 1;
#X obj 170 334 sel 0 1;
#X obj 149 89 inlet;
#X obj 317 525 outlet;
#X obj 238 494 t b b b;
#X obj 256 525 s reset;
#X obj 193 524 s flush;
#X obj 166 430 outlet;
#X obj 87 399 t b b b;
#X obj 105 430 s reset;
#X obj 42 429 s flush;
#X connect 0 0 1 0;
#X connect 0 0 2 0;
#X connect 1 0 0 1;
#X connect 2 0 9 0;
#X connect 3 0 4 0;
#X connect 4 0 5 0;
#X connect 5 0 6 0;
#X connect 5 0 7 0;
#X connect 6 0 5 1;
#X connect 7 0 8 0;
#X connect 8 0 11 0;
#X connect 9 0 3 0;
#X connect 10 0 14 0;
#X connect 11 0 18 0;
#X connect 11 0 17 0;
#X connect 11 1 13 0;
#X connect 12 0 0 0;
#X connect 14 0 16 0;
#X connect 14 1 15 0;
#X connect 18 0 20 0;
#X connect 18 1 19 0;
#X restore 830 214 pd 8bar_selekta;
#X f 17;
#N canvas 145 110 1231 796 garage2 0;
#X obj 69 2 inlet;
#X floatatom 104 603 5 0 0 0 - - - 0;
#X floatatom 543 579 5 0 0 0 - - - 0;
#X obj 236 764 outlet;
#X obj 67 118 t b b b b b b b b b b b b b b, f 58;
#X obj 546 547 random 100;
#X msg 102 629 clap (seq (rep - 4) \$1 (rep - 2) \$1 (rep - 8) );
#X obj 107 578 random 100;
#X obj 157 76 s reset;
#X obj 94 75 s flush;
#X obj 141 21 bng 19 250 50 0 empty empty empty 0 -10 0 12 #fcfcfc #000000 #000000;
#X msg 807 138 wavetable (seq -);
#X floatatom 248 401 5 0 0 0 - - - 0;
#X obj 251 369 random 100;
#X msg 243 437 snare (seq - - \$1 -);
#X msg 730 94 wavetable (seq 40 - - - - - - - - - 40 - - - - - );
#X msg 224 258 monosynth (seq 64 (rep - 31));
#X obj 237 738 r \$0-p;
#X obj 139 45 t b b b b;
#X msg 193 502 perc (seq 1 2 3 - 11 11 11 11 - 2);
#X obj 544 13 bng 19 250 50 0 empty empty empty 0 -10 0 12 #fcfcfc #000000 #000000;
#N canvas 63 97 622 390 clear 0;
#X msg 340 141 bass (seq -);
#X msg 73 143 wavetable (seq -);
#X msg 207 141 monosynth (seq -);
#X msg 45 176 kick (seq -);
#X msg 158 175 snare (seq -);
#X msg 268 177 hihat (seq -);
#X msg 395 171 clap (seq -);
#X msg 492 171 openhh (seq -);
#X msg 65 203 rimshot (seq -);
#X msg 189 206 perc (seq -);
#X msg 287 205 shaker (seq -);
#X msg 398 205 ride (seq -);
#X msg 492 205 tom (seq -);
#X msg 83 233 woodblock (seq -);
#X msg 224 234 crash (seq -);
#X msg 330 233 vox (seq -);
#X obj 81 287 s \$0-p;
#X obj 21 83 t b b b b b b b b b b b b b b b b b b b, f 75;
#X obj 22 52 inlet;
#X connect 0 0 16 0;
#X connect 1 0 16 0;
#X connect 2 0 16 0;
#X connect 3 0 16 0;
#X connect 4 0 16 0;
#X connect 5 0 16 0;
#X connect 6 0 16 0;
#X connect 7 0 16 0;
#X connect 8 0 16 0;
#X connect 9 0 16 0;
#X connect 10 0 16 0;
#X connect 11 0 16 0;
#X connect 12 0 16 0;
#X connect 13 0 16 0;
#X connect 14 0 16 0;
#X connect 15 0 16 0;
#X connect 17 2 13 0;
#X connect 17 3 8 0;
#X connect 17 4 3 0;
#X connect 17 5 1 0;
#X connect 17 6 14 0;
#X connect 17 7 9 0;
#X connect 17 8 4 0;
#X connect 17 9 2 0;
#X connect 17 10 5 0;
#X connect 17 11 14 0;
#X connect 17 12 10 0;
#X connect 17 13 0 0;
#X connect 17 14 15 0;
#X connect 17 15 6 0;
#X connect 17 16 11 0;
#X connect 17 17 7 0;
#X connect 17 18 12 0;
#X connect 18 0 17 0;
#X restore 495 117 pd clear;
#X obj 501 199 s tempo;
#X obj 647 530 s \$0-p;
#X msg 542 609 openhh (seq - - \$1 -);
#X msg 525 365 kick (seq 1 - - 1 - - - - - 1 - - 1 - - -);
#X obj 540 642 s \$0-p;
#X msg 646 501 hihat (seq (rep - 4) (rep \$1 4) (rep - 4) \$1 (rep - 3));
#X floatatom 504 169 5 0 0 0 - - - 0;
#X msg 501 150 101;
#X floatatom 648 473 5 0 0 0 - - - 0;
#X obj 650 447 random 100;
#X obj 751 625 s \$0-p;
#X floatatom 752 568 5 0 0 0 - - - 0;
#X obj 754 542 random 100;
#X msg 750 596 perc (seq (rep - 2) (rep \$1 4) (rep - 1) \$1 (rep - 3));
#X obj 99 245 s \$0-p;
#X msg 101 215 ride (seq 1 - - -);
#X obj 32 364 s \$0-p;
#X msg 34 334 crash (seq 1 (rep - 15));
#X msg 680 24 rimshot (seq -);
#X msg 828 27 tom (seq -);
#X msg 698 54 woodblock (seq -);
#X obj 855 462 s \$0-p;
#X floatatom 855 391 5 0 0 0 - - - 0;
#X obj 857 365 random 100;
#X msg 853 419 rimshot (delay (seq (rep - 1) (rep \$1 4) (rep - 1) \$1 (rep - 3)) 11);
#X obj 996 212 s \$0-p;
#X floatatom 996 141 5 0 0 0 - - - 0;
#X obj 998 115 random 100;
#X msg 994 169 tom (delay (seq (rep - 1) (rep \$1 4) (rep - 1) \$1 (rep - 3)) 24);
#X obj 542 328 s \$0-p;
#X msg 634 229 wavetable (seq 32 - - -);
#X msg 533 296 monosynth (grow (add (seq 1 - - 2 3 - - - - 4) 50));
#X connect 0 0 18 0;
#X connect 1 0 6 0;
#X connect 2 0 24 0;
#X connect 4 1 49 0;
#X connect 4 2 45 0;
#X connect 4 3 39 0;
#X connect 4 4 37 0;
#X connect 4 5 19 0;
#X connect 4 6 16 0;
#X connect 4 7 34 0;
#X connect 4 8 52 0;
#X connect 4 8 31 0;
#X connect 4 9 7 0;
#X connect 4 10 5 0;
#X connect 4 11 53 0;
#X connect 4 11 13 0;
#X connect 4 12 25 0;
#X connect 4 12 11 0;
#X connect 4 13 20 0;
#X connect 4 13 21 0;
#X connect 4 13 29 0;
#X connect 5 0 2 0;
#X connect 7 0 1 0;
#X connect 10 0 18 0;
#X connect 12 0 14 0;
#X connect 13 0 12 0;
#X connect 14 0 3 0;
#X connect 17 0 3 0;
#X connect 18 0 9 0;
#X connect 18 1 8 0;
#X connect 18 2 4 0;
#X connect 24 0 26 0;
#X connect 25 0 3 0;
#X connect 27 0 23 0;
#X connect 28 0 22 0;
#X connect 29 0 28 0;
#X connect 30 0 27 0;
#X connect 31 0 30 0;
#X connect 33 0 35 0;
#X connect 34 0 33 0;
#X connect 35 0 32 0;
#X connect 37 0 36 0;
#X connect 39 0 38 0;
#X connect 44 0 46 0;
#X connect 45 0 44 0;
#X connect 46 0 43 0;
#X connect 48 0 50 0;
#X connect 49 0 48 0;
#X connect 50 0 47 0;
#X connect 52 0 51 0;
#X connect 53 0 51 0;
#X restore 946 273 pd garage2;
#X obj 834 247 bng 19 250 50 0 empty empty empty 0 -10 0 12 #fcfcfc #000000 #000000;
#X obj 835 298 s patterns;
#N canvas 145 110 1231 796 garage1 0;
#X obj 69 2 inlet;
#X floatatom 104 603 5 0 0 0 - - - 0;
#X floatatom 543 579 5 0 0 0 - - - 0;
#X obj 236 764 outlet;
#X obj 67 118 t b b b b b b b b b b b b b b, f 58;
#X obj 546 547 random 100;
#X msg 102 629 clap (seq (rep - 4) \$1 (rep - 2) \$1 (rep - 8) );
#X obj 107 578 random 100;
#X obj 157 76 s reset;
#X obj 94 75 s flush;
#X obj 141 21 bng 19 250 50 0 empty empty empty 0 -10 0 12 #fcfcfc #000000 #000000;
#X msg 807 138 wavetable (seq -);
#X floatatom 248 401 5 0 0 0 - - - 0;
#X obj 251 369 random 100;
#X msg 243 437 snare (seq - - \$1 -);
#X msg 730 94 wavetable (seq 40 - - - - - - - - - 40 - - - - - );
#X msg 224 258 monosynth (seq 64 (rep - 31));
#X obj 237 738 r \$0-p;
#X obj 139 45 t b b b b;
#X msg 193 502 perc (seq 1 2 3 - 11 11 11 11 - 2);
#X obj 544 13 bng 19 250 50 0 empty empty empty 0 -10 0 12 #fcfcfc #000000 #000000;
#N canvas 63 97 622 390 clear 0;
#X msg 340 141 bass (seq -);
#X msg 73 143 wavetable (seq -);
#X msg 207 141 monosynth (seq -);
#X msg 45 176 kick (seq -);
#X msg 158 175 snare (seq -);
#X msg 268 177 hihat (seq -);
#X msg 395 171 clap (seq -);
#X msg 492 171 openhh (seq -);
#X msg 65 203 rimshot (seq -);
#X msg 189 206 perc (seq -);
#X msg 287 205 shaker (seq -);
#X msg 398 205 ride (seq -);
#X msg 492 205 tom (seq -);
#X msg 83 233 woodblock (seq -);
#X msg 224 234 crash (seq -);
#X msg 330 233 vox (seq -);
#X obj 81 287 s \$0-p;
#X obj 21 83 t b b b b b b b b b b b b b b b b b b b, f 75;
#X obj 22 52 inlet;
#X connect 0 0 16 0;
#X connect 1 0 16 0;
#X connect 2 0 16 0;
#X connect 3 0 16 0;
#X connect 4 0 16 0;
#X connect 5 0 16 0;
#X connect 6 0 16 0;
#X connect 7 0 16 0;
#X connect 8 0 16 0;
#X connect 9 0 16 0;
#X connect 10 0 16 0;
#X connect 11 0 16 0;
#X connect 12 0 16 0;
#X connect 13 0 16 0;
#X connect 14 0 16 0;
#X connect 15 0 16 0;
#X connect 17 2 13 0;
#X connect 17 3 8 0;
#X connect 17 4 3 0;
#X connect 17 5 1 0;
#X connect 17 6 14 0;
#X connect 17 7 9 0;
#X connect 17 8 4 0;
#X connect 17 9 2 0;
#X connect 17 10 5 0;
#X connect 17 11 14 0;
#X connect 17 12 10 0;
#X connect 17 13 0 0;
#X connect 17 14 15 0;
#X connect 17 15 6 0;
#X connect 17 16 11 0;
#X connect 17 17 7 0;
#X connect 17 18 12 0;
#X connect 18 0 17 0;
#X restore 495 117 pd clear;
#X obj 501 199 s tempo;
#X obj 647 530 s \$0-p;
#X msg 542 609 openhh (seq - - \$1 -);
#X obj 540 677 s \$0-p;
#X msg 646 501 hihat (seq (rep - 4) (rep \$1 4) (rep - 4) \$1 (rep - 3));
#X floatatom 504 169 5 0 0 0 - - - 0;
#X msg 501 150 101;
#X floatatom 648 473 5 0 0 0 - - - 0;
#X obj 650 447 random 100;
#X obj 751 661 s \$0-p;
#X floatatom 752 568 5 0 0 0 - - - 0;
#X obj 754 542 random 100;
#X msg 750 596 perc (seq (rep - 2) (rep \$1 4) (rep - 1) \$1 (rep - 3));
#X obj 99 245 s \$0-p;
#X msg 101 215 ride (seq 1 - - -);
#X obj 32 364 s \$0-p;
#X msg 34 334 crash (seq 1 (rep - 15));
#X msg 680 24 rimshot (seq -);
#X msg 828 27 tom (seq -);
#X msg 698 54 woodblock (seq -);
#X obj 855 477 s \$0-p;
#X floatatom 855 391 5 0 0 0 - - - 0;
#X obj 857 365 random 100;
#X msg 853 419 rimshot (delay (seq (rep - 1) (rep \$1 4) (rep - 1) \$1 (rep - 3)) 11);
#X obj 996 212 s \$0-p;
#X floatatom 996 141 5 0 0 0 - - - 0;
#X obj 998 115 random 100;
#X msg 994 169 tom (delay (seq (rep - 1) (rep \$1 4) (rep - 1) \$1 (rep - 3)) 24);
#X obj 542 328 s \$0-p;
#X obj 91 684 s \$0-p;
#X msg 525 365 kick (seq 1 - - -);
#X msg 634 229 wavetable (seq 30 - - -);
#X msg 533 296 monosynth (grow (add (seq 1 2 3 - 4 -) 50));
#X connect 0 0 18 0;
#X connect 1 0 6 0;
#X connect 2 0 24 0;
#X connect 4 1 48 0;
#X connect 4 2 44 0;
#X connect 4 3 38 0;
#X connect 4 4 36 0;
#X connect 4 5 19 0;
#X connect 4 6 16 0;
#X connect 4 7 33 0;
#X connect 4 8 53 0;
#X connect 4 8 30 0;
#X connect 4 9 7 0;
#X connect 4 10 5 0;
#X connect 4 11 54 0;
#X connect 4 11 13 0;
#X connect 4 12 52 0;
#X connect 4 12 11 0;
#X connect 4 13 20 0;
#X connect 4 13 21 0;
#X connect 4 13 28 0;
#X connect 5 0 2 0;
#X connect 6 0 51 0;
#X connect 7 0 1 0;
#X connect 10 0 18 0;
#X connect 12 0 14 0;
#X connect 13 0 12 0;
#X connect 14 0 3 0;
#X connect 17 0 3 0;
#X connect 18 0 9 0;
#X connect 18 1 8 0;
#X connect 18 2 4 0;
#X connect 19 0 51 0;
#X connect 26 0 23 0;
#X connect 27 0 22 0;
#X connect 28 0 27 0;
#X connect 29 0 26 0;
#X connect 30 0 29 0;
#X connect 32 0 34 0;
#X connect 33 0 32 0;
#X connect 36 0 35 0;
#X connect 38 0 37 0;
#X connect 43 0 45 0;
#X connect 44 0 43 0;
#X connect 47 0 49 0;
#X connect 48 0 47 0;
#X connect 49 0 46 0;
#X connect 52 0 3 0;
#X connect 53 0 50 0;
#X connect 54 0 50 0;
#X restore 834 273 pd garage1;
#X obj 566 534 bng 19 250 50 0 empty empty empty 0 -10 0 12 #fcfcfc #000000 #000000;
#X obj 458 534 bng 19 250 50 0 empty empty empty 0 -10 0 12 #fcfcfc #000000 #000000;
#X obj 542 411 s patterns;
#X obj 513 365 bng 19 250 50 0 empty empty empty 0 -10 0 12 #fcfcfc #000000 #000000;
#N canvas 142 83 1272 796 dnb3 0;
#X obj 69 2 inlet;
#X floatatom 104 603 5 0 0 0 - - - 0;
#X floatatom 870 412 5 0 0 0 - - - 0;
#X obj 236 764 outlet;
#X obj 67 118 t b b b b b b b b b b b b b b, f 76;
#X obj 662 614 random 100;
#X msg 870 437 hihat (seq (rep - 4) (rep \$1 4) (rep - 4) \$1 (rep - 3) );
#X msg 102 629 clap (seq (rep - 4) \$1 (rep - 2) \$1 (rep - 8) );
#X obj 107 578 random 100;
#X obj 157 76 s reset;
#X obj 94 75 s flush;
#X obj 138 15 bng 19 250 50 0 empty empty empty 0 -10 0 12 #fcfcfc #000000 #000000;
#X msg 845 481 hihat (seq \$1);
#X floatatom 518 174 5 0 0 0 - - - 0;
#X obj 517 151 random 100;
#X msg 518 195 snare (seq - - \$1 -);
#X msg 859 138 wavetable (seq 40 - - - - - - - - - 40 - - - - - );
#X obj 237 738 r \$0-p;
#X obj 139 45 t b b b b;
#X msg 263 560 perc (seq -);
#N canvas 14 96 622 390 clear 0;
#X msg 340 141 bass (seq -);
#X msg 73 143 wavetable (seq -);
#X msg 207 141 monosynth (seq -);
#X msg 45 176 kick (seq -);
#X msg 158 175 snare (seq -);
#X msg 268 177 hihat (seq -);
#X msg 395 171 clap (seq -);
#X msg 492 171 openhh (seq -);
#X msg 65 203 rimshot (seq -);
#X msg 189 206 perc (seq -);
#X msg 287 205 shaker (seq -);
#X msg 398 205 ride (seq -);
#X msg 492 205 tom (seq -);
#X msg 83 233 woodblock (seq -);
#X msg 224 234 crash (seq -);
#X msg 330 233 vox (seq -);
#X obj 81 287 s \$0-p;
#X obj 21 83 t b b b b b b b b b b b b b b b b b b b, f 75;
#X obj 22 52 inlet;
#X connect 0 0 16 0;
#X connect 1 0 16 0;
#X connect 2 0 16 0;
#X connect 3 0 16 0;
#X connect 4 0 16 0;
#X connect 5 0 16 0;
#X connect 6 0 16 0;
#X connect 7 0 16 0;
#X connect 8 0 16 0;
#X connect 9 0 16 0;
#X connect 10 0 16 0;
#X connect 11 0 16 0;
#X connect 12 0 16 0;
#X connect 13 0 16 0;
#X connect 14 0 16 0;
#X connect 15 0 16 0;
#X connect 17 2 13 0;
#X connect 17 3 8 0;
#X connect 17 4 3 0;
#X connect 17 5 1 0;
#X connect 17 6 14 0;
#X connect 17 7 9 0;
#X connect 17 8 4 0;
#X connect 17 9 2 0;
#X connect 17 10 5 0;
#X connect 17 11 14 0;
#X connect 17 12 10 0;
#X connect 17 13 0 0;
#X connect 17 14 15 0;
#X connect 17 15 6 0;
#X connect 17 16 11 0;
#X connect 17 17 7 0;
#X connect 17 18 12 0;
#X connect 18 0 17 0;
#X restore 613 119 pd clear;
#X obj 950 88 s tempo;
#X floatatom 949 64 5 0 0 0 - - - 0;
#X msg 949 37 89;
#X obj 555 529 s \$0-p;
#X obj 517 220 s \$0-p;
#X floatatom 558 479 5 0 0 0 - - - 0;
#X obj 558 455 random 100;
#X msg 557 503 kick (seq \$1 - - - - \$1 - -);
#X obj 138 271 s \$0-p;
#X obj 347 365 s \$0-p;
#X obj 194 528 s \$0-p;
#X msg 193 502 perc (delay (seq 1 2 3 - 11 11 11 11 - 2) 11);
#X msg 770 346 wavetable (seq 40 40 40 41 40 40 40 40 41 40 - - -);
#X msg 347 339 wavetable (seq 40 (rep - 7));
#X msg 12 339 rimshot (delay (seq 1 2 3) 32);
#X obj 13 365 s \$0-p;
#X obj 458 709 s \$0-p;
#X floatatom 460 654 5 0 0 0 - - - 0;
#X obj 460 630 random 100;
#X msg 457 682 ride (seq \$1 (rep - 3));
#X obj 577 612 s \$0-p;
#X obj 691 665 s \$0-p;
#X msg 576 585 woodblock (delay (rep (seq - 1 2 3 4 - 4 5 6) 2) 111);
#X msg 690 638 tom (delay (rep - 1 2 3 4 - 4 5 6 11 12 14) 211);
#X msg 137 244 monosynth (seq 40 (rep - 31));
#X obj 601 394 s \$0-p;
#X floatatom 605 337 5 0 0 0 - - - 0;
#X obj 604 314 random 100;
#X msg 601 368 openhh (seq - - \$1 -);
#X obj 28 499 s \$0-p;
#X floatatom 32 442 5 0 0 0 - - - 0;
#X obj 31 419 random 100;
#X msg 331 29 wavetable (seq (rep (seq 30 30 30 31 30 30 30 30 31 30 - - -) 7) (seq 35 35 35 36 35 35 35 35 36 35 - - - - - - - - - - - - - - - - - - - - - - - - - -));
#X obj 373 302 s \$0-p;
#X msg 28 473 vox (seq \$1 (rep - 31));
#X obj 14 748 s \$0-p;
#X floatatom 18 691 5 0 0 0 - - - 0;
#X obj 17 668 random 100;
#X msg 14 722 crash (seq \$1 (rep - 31));
#X obj 69 26 pipe 1;
#X msg 375 251 shaker (interleave (euclid 40 11) (seq 41 42 43));
#X msg 194 421 perc (delay (add (choose (shuffle (seq 1 - 2 3 4)) (shuffle (seq 11 12 23 - - 4))) 40) 33), f 74;
#X msg 370 578 ride (add (range 0 10 2) 40);
#X floatatom 755 252 5 0 0 0 - - - 0;
#X msg 752 277 openhh (add (seq (euclid 3 8) (euclid 5 8) (euclid 7 8)) \$1);
#X msg 670 535 woodblock (grow (gate (seq (rep (add (ramp 0 10 5) 40) 10) (rep (ramp 60 72 7) 2)) 1));
#X msg 73 200 rimshot (grow (quantize (seq 61 - - 63 66) (seq 60 62 65 67)));
#X floatatom 674 178 5 0 0 0 - - - 0;
#X msg 671 203 wavetable (add (seq (euclid 3 8) (euclid 5 8) (euclid 7 8)) \$1);
#X obj 721 122 random 10;
#X floatatom 655 695 5 0 0 0 - - - 0;
#X msg 649 727 tom (add (seq (rep (add (ramp 0 10 5) 40) 10) (rep (ramp 60 72 7) 2)) \$1), f 71;
#X msg 253 533 ride (quantize (drunk 8 3 60) (seq 60 63 64 65));
#X obj 721 146 + 20;
#X connect 0 0 60 0;
#X connect 1 0 7 0;
#X connect 2 0 6 0;
#X connect 2 0 12 0;
#X connect 4 1 73 0;
#X connect 4 2 8 0;
#X connect 4 3 52 0;
#X connect 4 4 70 0;
#X connect 4 4 5 0;
#X connect 4 5 67 0;
#X connect 4 6 62 0;
#X connect 4 7 63 0;
#X connect 4 8 27 0;
#X connect 4 9 66 0;
#X connect 4 10 48 0;
#X connect 4 11 53 0;
#X connect 4 12 14 0;
#X connect 4 13 20 0;
#X connect 4 13 23 0;
#X connect 4 13 61 0;
#X connect 5 0 71 0;
#X connect 7 0 3 0;
#X connect 8 0 1 0;
#X connect 11 0 18 0;
#X connect 13 0 15 0;
#X connect 14 0 13 0;
#X connect 15 0 25 0;
#X connect 17 0 3 0;
#X connect 18 0 10 0;
#X connect 18 1 9 0;
#X connect 18 2 4 0;
#X connect 22 0 21 0;
#X connect 23 0 22 0;
#X connect 26 0 28 0;
#X connect 27 0 26 0;
#X connect 28 0 24 0;
#X connect 32 0 31 0;
#X connect 34 0 30 0;
#X connect 35 0 36 0;
#X connect 38 0 40 0;
#X connect 39 0 38 0;
#X connect 40 0 37 0;
#X connect 43 0 41 0;
#X connect 44 0 42 0;
#X connect 45 0 29 0;
#X connect 47 0 64 0;
#X connect 48 0 47 0;
#X connect 49 0 46 0;
#X connect 51 0 55 0;
#X connect 52 0 51 0;
#X connect 55 0 50 0;
#X connect 57 0 59 0;
#X connect 58 0 57 0;
#X connect 59 0 56 0;
#X connect 60 0 11 0;
#X connect 61 0 54 0;
#X connect 62 0 31 0;
#X connect 63 0 37 0;
#X connect 64 0 65 0;
#X connect 65 0 46 0;
#X connect 66 0 41 0;
#X connect 67 0 29 0;
#X connect 68 0 69 0;
#X connect 69 0 25 0;
#X connect 70 0 74 0;
#X connect 71 0 72 0;
#X connect 72 0 42 0;
#X connect 73 0 37 0;
#X connect 74 0 68 0;
#X restore 541 389 pd dnb3;
#X connect 0 0 21 0;
#X connect 3 0 21 1;
#X connect 6 0 5 0;
#X connect 7 0 5 0;
#X connect 8 0 30 0;
#X connect 9 0 15 0;
#X connect 9 0 10 0;
#X connect 9 1 16 0;
#X connect 9 1 11 0;
#X connect 9 2 17 0;
#X connect 9 3 13 0;
#X connect 9 3 18 0;
#X connect 9 4 14 0;
#X connect 9 4 19 0;
#X connect 19 0 28 0;
#X connect 20 0 9 1;
#X connect 21 0 9 0;
#X connect 22 0 43 0;
#X connect 23 0 42 0;
#X connect 24 0 36 0;
#X connect 24 1 33 0;
#X connect 25 0 20 0;
#X connect 26 0 30 0;
#X connect 28 0 1 0;
#X connect 30 0 1 0;
#X connect 30 0 28 0;
#X connect 30 1 29 0;
#X connect 32 0 31 0;
#X connect 33 0 23 0;
#X connect 34 0 47 0;
#X connect 35 0 30 0;
#X connect 36 0 22 0;
#X connect 37 0 38 0;
#X connect 38 0 45 0;
#X connect 39 0 40 0;
#X connect 40 0 46 0;
#X connect 41 0 27 0;
#X connect 47 0 44 0;
#X connect 48 0 34 0;
#X connect 48 1 49 0;
#X connect 49 0 51 0;
#X connect 51 0 50 0;
#X connect 52 0 39 0;
#X connect 52 1 37 0;
#X connect 55 0 54 0;
#X connect 55 1 53 0;
#X connect 56 0 59 0;
#X connect 58 0 60 0;
#X connect 58 1 56 0;
#X connect 59 0 57 0;
#X connect 60 0 62 0;
#X connect 62 0 61 0;
#X connect 63 0 53 0;
#X connect 64 0 54 0;
#X connect 66 0 67 0;
#X connect 67 0 65 0;
