#N canvas 139 187 953 576 12;
#X declare -path ./lib;
#X obj 44 319 tgl 19 0 empty empty empty 0 -10 0 12 #fcfcfc #000000 #000000 0 1;
#X obj 45 344 metro 111;
#X obj 80 1077 dac~;
#X obj 88 1019 *~ 0.5;
#X obj 272 24 bng 19 250 50 0 empty empty empty 0 -10 0 12 #fcfcfc #000000 #000000;
#X obj 498 20 bng 19 250 50 0 empty empty empty 0 -10 0 12 #fcfcfc #000000 #000000;
#X msg 713 81 \; snare (seq - - - - 2 - - -);
#X floatatom 506 252 5 0 0 0 - - - 0;
#X floatatom 250 244 5 0 0 0 - - - 0;
#X obj 249 220 random 100;
#X obj 505 229 random 100;
#X obj 682 19 loadbang;
#X msg 355 37 \; all (seq -);
#X obj 267 51 t b b b b b;
#X obj 498 49 t b b b b b;
#X msg 582 33 \; all (seq -);
#X obj 258 881 _ openhihats;
#X obj 352 881 _ perc;
#X obj 404 881 _ rides;
#X obj 463 880 _ toms;
#X obj 200 415 bng 19 250 50 0 empty empty empty 0 -10 0 12 #fcfcfc #000000 #000000;
#X obj 195 442 t b b b b b b b b b b;
#X obj 45 368 s m;
#X obj 69 857 r m;
#X obj 129 858 r m;
#X obj 192 854 r m;
#X obj 259 855 r m;
#X obj 353 856 r m;
#X obj 403 857 r m;
#X obj 464 857 r m;
#X obj 516 856 r m;
#X obj 514 881 _ woodblock;
#X msg 250 267 \; openhihats (seq - - \$1 -);
#X msg 506 275 \; openhihats (seq - - \$1 -);
#X obj 603 857 r m;
#X msg 204 784 \; openhihats (seq - - 2 - );
#X msg 276 606 \; perc (delay (seq 2 1 2) 22);
#X msg 307 520 \; toms (delay (seq - - 2 - - 3 - - - -) 11);
#X msg 291 560 \; rides (grow (seq 2 1 2 - 2 - - 3 - - - -));
#X obj 666 723 alien -unsync;
#X msg 698 654 (seq 1 2 3);
#X listbox 666 747 20 0 0 0 - - - 0;
#X msg 319 469 \; woodblock (seq . . 2 .);
#X msg 352 425 \; all (seq .);
#X msg 679 43 \; all (seq _);
#X msg 667 692 (seq 2 2 3);
#X obj 129 881 _ snare;
#X obj 193 881 _ hihat;
#X obj 601 882 _ clap;
#X msg 238 690 \; hihat (grow (seq 2 - -));
#X msg 257 648 \; kick (seq 2 - - - - - - - -);
#X msg 286 87 \; hihat (seq 1 2 3);
#X msg 500 165 \; snare (seq - - - - 2 - - -);
#X msg 518 81 \; hihat (seq 12 - - -);
#X msg 515 125 \; kick (seq 1 - - - - - 2 - - - -);
#X msg 283 131 \; kick (seq 3 - - -);
#X msg 712 208 \; clap (seq - - 22 22 -);
#X msg 730 166 \; clap (seq 2);
#X msg 220 736 \; snare (seq - - - - 2 - - -);
#X obj 70 881 _ kick;
#X obj 15 19 declare -path ./lib;
#X connect 0 0 1 0;
#X connect 1 0 22 0;
#X connect 3 0 2 0;
#X connect 3 0 2 1;
#X connect 4 0 13 0;
#X connect 5 0 14 0;
#X connect 7 0 33 0;
#X connect 8 0 32 0;
#X connect 9 0 8 0;
#X connect 10 0 7 0;
#X connect 11 0 44 0;
#X connect 13 1 51 0;
#X connect 13 2 55 0;
#X connect 13 3 9 0;
#X connect 13 4 12 0;
#X connect 14 0 52 0;
#X connect 14 0 57 0;
#X connect 14 1 53 0;
#X connect 14 2 54 0;
#X connect 14 3 10 0;
#X connect 14 3 15 0;
#X connect 16 0 3 0;
#X connect 17 0 3 0;
#X connect 18 0 3 0;
#X connect 19 0 3 0;
#X connect 20 0 21 0;
#X connect 21 1 35 0;
#X connect 21 2 58 0;
#X connect 21 3 49 0;
#X connect 21 4 50 0;
#X connect 21 5 36 0;
#X connect 21 6 38 0;
#X connect 21 7 37 0;
#X connect 21 8 42 0;
#X connect 21 9 43 0;
#X connect 23 0 59 0;
#X connect 24 0 46 0;
#X connect 25 0 47 0;
#X connect 26 0 16 0;
#X connect 27 0 17 0;
#X connect 28 0 18 0;
#X connect 29 0 19 0;
#X connect 30 0 31 0;
#X connect 31 0 3 0;
#X connect 34 0 48 0;
#X connect 39 0 41 0;
#X connect 45 0 39 0;
#X connect 46 0 3 0;
#X connect 47 0 3 0;
#X connect 48 0 3 0;
#X connect 59 0 3 0;
