#N canvas 10 34 1039 831 12;
#X declare -path else;
#X obj 222 1032 *~ 0.88;
#X obj 19 35 declare -path else;
#X obj 311 355 saw~, f 8;
#X obj 381 330 * 1.008;
#X obj 314 295 mtof;
#X obj 378 355 saw~, f 8;
#X obj 447 355 saw~, f 8;
#X obj 450 330 * 0.992;
#X obj 272 633 *~;
#X obj 258 267 b;
#X obj 315 927 vcf~ 10;
#X obj 315 961 drive~;
#X obj 338 864 rescale~ 500 2000, f 9;
#X obj 567 951 rescale~ 500 1500;
#X obj 537 990 bandpass~;
#X obj 633 979 osc~ 0.17;
#X obj 633 1003 rescale~ 1 10;
#X obj 90 490 osc~;
#X obj 90 516 lop~ 500;
#X obj 88 541 lop~ 500;
#X obj 311 450 lop~ 500;
#X obj 437 522 hip~ 2000;
#X obj 295 578 adsr~ 5 100 0.85 200, f 22;
#X obj 213 1303 outlet~;
#X obj 279 49 inlet;
#X obj 442 59 inlet;
#X obj 326 838 osc~ 0.01;
#X obj 567 924 osc~ 0.01;
#X obj 222 987 *~ 0.9;
#X obj 312 407 *~ 0.5;
#X connect 0 0 23 0;
#X connect 2 0 29 0;
#X connect 3 0 5 0;
#X connect 4 0 2 0;
#X connect 4 0 3 0;
#X connect 4 0 7 0;
#X connect 4 0 17 0;
#X connect 5 0 29 0;
#X connect 6 0 29 0;
#X connect 7 0 6 0;
#X connect 8 0 10 0;
#X connect 8 0 14 0;
#X connect 8 0 28 0;
#X connect 9 0 22 0;
#X connect 10 0 11 0;
#X connect 10 1 11 0;
#X connect 11 0 28 0;
#X connect 12 0 10 1;
#X connect 13 0 14 1;
#X connect 14 0 0 0;
#X connect 15 0 16 0;
#X connect 16 0 14 2;
#X connect 17 0 18 0;
#X connect 18 0 19 0;
#X connect 19 0 8 0;
#X connect 20 0 8 0;
#X connect 21 0 8 0;
#X connect 22 0 8 1;
#X connect 24 0 4 0;
#X connect 24 0 9 0;
#X connect 25 0 22 2;
#X connect 26 0 12 0;
#X connect 27 0 13 0;
#X connect 28 0 0 0;
#X connect 29 0 20 0;
#X connect 29 0 21 0;
