#N canvas 29 34 690 620 12;
#X obj 34 135 mtof;
#X obj 34 186 else/saw~;
#X obj 34 210 *~ 0.5;
#X obj 107 210 *~ 0.3;
#X obj 107 184 else/square~;
#X obj 34 234 +~;
#X obj 107 158 *~ 1.005;
#X obj 36 420 *~;
#X obj 68 241 b;
#X obj 36 339 else/svfilter~ 800 0.44;
#X obj 115 297 else/rescale~ 500 1500;
#X obj 36 446 else/plate.rev~ 50 0.6 0.25 0.8 0.3, f 40;
#X obj 116 275 osc~ 16;
#X obj 67 382 else/adsr~ 20 50 0.7 40;
#X obj 34 27 inlet;
#X obj 115 243 inlet;
#X obj 184 242 inlet;
#X obj 36 471 outlet~;
#X connect 0 0 1 0;
#X connect 0 0 6 0;
#X connect 0 0 8 0;
#X connect 1 0 2 0;
#X connect 2 0 5 0;
#X connect 3 0 5 1;
#X connect 4 0 3 0;
#X connect 5 0 9 0;
#X connect 6 0 4 0;
#X connect 7 0 11 0;
#X connect 8 0 13 0;
#X connect 9 0 7 0;
#X connect 10 0 9 1;
#X connect 11 0 17 0;
#X connect 12 0 10 0;
#X connect 13 0 7 1;
#X connect 14 0 0 0;
#X connect 15 0 12 0;
#X connect 16 0 13 3;
