#N canvas 140 33 1189 802 12;
#X declare -path else;
#X obj 19 35 declare -path else;
#X obj 45 114 mtof;
#X obj 240 917 *~;
#X obj 302 832 b;
#X obj 246 1032 vcf~ 10;
#X obj 246 1066 drive~;
#X obj 269 969 rescale~ 500 2000, f 9;
#X obj 404 1023 rescale~ 500 1500;
#X obj 374 1062 bandpass~;
#X obj 470 1051 osc~ 0.17;
#X obj 470 1075 rescale~ 1 10;
#X obj 174 801 osc~;
#X obj 174 827 lop~ 500;
#X obj 172 852 lop~ 500;
#X obj 250 863 lop~ 500;
#X obj 312 862 hip~ 2000;
#X obj 197 1137 outlet~;
#X obj 48 80 inlet;
#X obj 282 36 inlet;
#X obj 257 943 osc~ 0.01;
#X obj 404 996 osc~ 0.01;
#X obj 244 830 *~ 0.5;
#X obj 261 890 adsr~ 50 100 0.5 500;
#X obj 151 11 choose_wavetable;
#N canvas 0 33 1470 895 bank_1 0;
#X floatatom 8 154 5 0 0 0 - - - 0;
#X obj 496 25 cnv 15 298 138 empty empty empty 20 12 0 14 #dcdcdc #404040 0;
#N canvas 0 22 450 300 (subpatch) 0;
#X array \$0-wave 600 float 0;
#A color 0;
#A width 1;
#X coords 0 1 599 -1 300 140 1 0 0;
#X restore 228 37 graph;
#X obj 8 125 sfload \$0-wave;
#X obj 159 696 else/wavetable~ \$0-wave 600;
#X msg 8 95 load wavetables/alien/_1.wav;
#X obj 9 68 loadbang;
#X obj 812 27 cnv 15 298 138 empty empty empty 20 12 0 14 #dcdcdc #404040 0;
#N canvas 0 22 450 300 (subpatch) 0;
#X array \$0-wave2 600 float 0;
#A color 0;
#A width 1;
#X coords 0 1 599 -1 300 140 1 0 0;
#X restore 544 39 graph;
#X obj 498 185 cnv 15 298 138 empty empty empty 20 12 0 14 #dcdcdc #404040 0;
#N canvas 0 22 450 300 (subpatch) 0;
#X array \$0-wave3 600 float 0;
#A color 0;
#A width 1;
#X coords 0 1 599 -1 300 140 1 0 0;
#X restore 230 197 graph;
#X obj 810 188 cnv 15 298 138 empty empty empty 20 12 0 14 #dcdcdc #404040 0;
#N canvas 0 22 450 300 (subpatch) 0;
#X array \$0-wave4 600 float 0;
#A color 0;
#A width 1;
#X coords 0 1 599 -1 300 140 1 0 0;
#X restore 542 200 graph;
#X obj 525 348 cnv 15 298 138 empty empty empty 20 12 0 14 #dcdcdc #404040 0;
#N canvas 0 22 450 300 (subpatch) 0;
#X array \$0-wave5 600 float 0;
#A color 0;
#A width 1;
#X coords 0 1 599 -1 300 140 1 0 0;
#X restore 257 360 graph;
#X obj 846 359 cnv 15 298 138 empty empty empty 20 12 0 14 #dcdcdc #404040 0;
#N canvas 0 22 450 300 (subpatch) 0;
#X array \$0-wave6 600 float 0;
#A color 0;
#A width 1;
#X coords 0 1 599 -1 300 140 1 0 0;
#X restore 569 363 graph;
#X obj 244 728 else/wavetable~ \$0-wave2 600;
#X obj 331 659 else/wavetable~ \$0-wave3 600;
#X obj 406 693 else/wavetable~ \$0-wave4 600;
#X obj 558 639 else/wavetable~ \$0-wave5 600;
#X obj 617 695 else/wavetable~ \$0-wave6 600;
#X floatatom 16 267 5 0 0 0 - - - 0;
#X obj 17 181 loadbang;
#X msg 16 208 load wavetables/alien/_2.wav;
#X obj 16 238 sfload \$0-wave2;
#X floatatom 24 380 5 0 0 0 - - - 0;
#X obj 25 294 loadbang;
#X msg 24 321 load wavetables/alien/_3.wav;
#X obj 24 351 sfload \$0-wave3;
#X floatatom 33 489 5 0 0 0 - - - 0;
#X obj 34 403 loadbang;
#X msg 33 430 load wavetables/alien/_4.wav;
#X obj 33 460 sfload \$0-wave4;
#X floatatom 680 784 11 0 0 0 - - - 0;
#X obj 680 808 else/f2s~;
#X obj 152 843 else/xselect2~ 6, f 88;
#X floatatom 43 605 5 0 0 0 - - - 0;
#X obj 44 519 loadbang;
#X msg 43 546 load wavetables/alien/_5.wav;
#X obj 43 576 sfload \$0-wave5;
#X floatatom 99 696 5 0 0 0 - - - 0;
#X obj 100 610 loadbang;
#X msg 99 637 load wavetables/alien/_6.wav;
#X obj 99 667 sfload \$0-wave6;
#X obj 152 867 outlet~;
#X obj 1019 92 inlet;
#X obj 44 20 inlet;
#X connect 3 0 0 0;
#X connect 4 0 36 0;
#X connect 5 0 3 0;
#X connect 6 0 5 0;
#X connect 17 0 36 1;
#X connect 18 0 36 2;
#X connect 19 0 36 3;
#X connect 20 0 36 4;
#X connect 21 0 36 5;
#X connect 23 0 24 0;
#X connect 24 0 25 0;
#X connect 25 0 22 0;
#X connect 27 0 28 0;
#X connect 28 0 29 0;
#X connect 29 0 26 0;
#X connect 31 0 32 0;
#X connect 32 0 33 0;
#X connect 33 0 30 0;
#X connect 34 0 35 0;
#X connect 35 0 36 6;
#X connect 36 0 45 0;
#X connect 38 0 39 0;
#X connect 39 0 40 0;
#X connect 40 0 37 0;
#X connect 42 0 43 0;
#X connect 43 0 44 0;
#X connect 44 0 41 0;
#X connect 46 0 34 0;
#X connect 47 0 4 0;
#X connect 47 0 17 0;
#X connect 47 0 18 0;
#X connect 47 0 19 0;
#X connect 47 0 20 0;
#X connect 47 0 21 0;
#X restore 378 530 pd bank_1;
#X obj 673 71 inlet;
#N canvas 0 33 1470 895 bank_2 0;
#X floatatom 8 154 5 0 0 0 - - - 0;
#X obj 496 25 cnv 15 298 138 empty empty empty 20 12 0 14 #dcdcdc #404040 0;
#N canvas 0 22 450 300 (subpatch) 0;
#X array \$0-wave7 600 float 0;
#A color 0;
#A width 1;
#X coords 0 1 599 -1 300 140 1 0 0;
#X restore 228 37 graph;
#X obj 9 68 loadbang;
#X obj 812 27 cnv 15 298 138 empty empty empty 20 12 0 14 #dcdcdc #404040 0;
#N canvas 0 22 450 300 (subpatch) 0;
#X array \$0-wave8 600 float 0;
#A color 0;
#A width 1;
#X coords 0 1 599 -1 300 140 1 0 0;
#X restore 544 39 graph;
#X obj 498 185 cnv 15 298 138 empty empty empty 20 12 0 14 #dcdcdc #404040 0;
#N canvas 0 22 450 300 (subpatch) 0;
#X array \$0-wave9 600 float 0;
#A color 0;
#A width 1;
#X coords 0 1 599 -1 300 140 1 0 0;
#X restore 230 197 graph;
#X obj 810 188 cnv 15 298 138 empty empty empty 20 12 0 14 #dcdcdc #404040 0;
#N canvas 0 22 450 300 (subpatch) 0;
#X array \$0-wave10 600 float 0;
#A color 0;
#A width 1;
#X coords 0 1 599 -1 300 140 1 0 0;
#X restore 542 200 graph;
#X obj 525 348 cnv 15 298 138 empty empty empty 20 12 0 14 #dcdcdc #404040 0;
#N canvas 0 22 450 300 (subpatch) 0;
#X array \$0-wave11 600 float 0;
#A color 0;
#A width 1;
#X coords 0 1 599 -1 300 140 1 0 0;
#X restore 257 360 graph;
#X obj 846 359 cnv 15 298 138 empty empty empty 20 12 0 14 #dcdcdc #404040 0;
#N canvas 0 22 450 300 (subpatch) 0;
#X array \$0-wave12 600 float 0;
#A color 0;
#A width 1;
#X coords 0 1 599 -1 300 140 1 0 0;
#X restore 569 363 graph;
#X floatatom 16 267 5 0 0 0 - - - 0;
#X obj 17 181 loadbang;
#X floatatom 24 380 5 0 0 0 - - - 0;
#X obj 25 294 loadbang;
#X floatatom 33 489 5 0 0 0 - - - 0;
#X obj 34 403 loadbang;
#X floatatom 680 784 11 0 0 0 - - - 0;
#X obj 680 808 else/f2s~;
#X obj 152 843 else/xselect2~ 6, f 88;
#X floatatom 43 605 5 0 0 0 - - - 0;
#X obj 44 519 loadbang;
#X floatatom 99 696 5 0 0 0 - - - 0;
#X obj 100 610 loadbang;
#X obj 152 867 outlet~;
#X obj 1019 92 inlet;
#X obj 44 20 inlet;
#X msg 8 95 load wavetables/alien/_7.wav;
#X msg 16 208 load wavetables/alien/_8.wav;
#X msg 24 321 load wavetables/alien/_9.wav;
#X msg 33 430 load wavetables/alien/_10.wav;
#X msg 43 546 load wavetables/alien/_11.wav;
#X msg 99 637 load wavetables/alien/_12.wav;
#X obj 8 125 sfload \$0-wave7;
#X obj 16 238 sfload \$0-wave8;
#X obj 24 351 sfload \$0-wave9;
#X obj 33 460 sfload \$0-wave10;
#X obj 43 576 sfload \$0-wave11;
#X obj 99 667 sfload \$0-wave12;
#X obj 159 696 else/wavetable~ \$0-wave7 600;
#X obj 244 728 else/wavetable~ \$0-wave8 600;
#X obj 331 659 else/wavetable~ \$0-wave9 600;
#X obj 406 693 else/wavetable~ \$0-wave10 600;
#X obj 558 639 else/wavetable~ \$0-wave11 600;
#X obj 617 695 else/wavetable~ \$0-wave12 600;
#X connect 3 0 30 0;
#X connect 15 0 31 0;
#X connect 17 0 32 0;
#X connect 19 0 33 0;
#X connect 20 0 21 0;
#X connect 21 0 22 6;
#X connect 22 0 27 0;
#X connect 24 0 34 0;
#X connect 26 0 35 0;
#X connect 28 0 20 0;
#X connect 29 0 42 0;
#X connect 29 0 43 0;
#X connect 29 0 44 0;
#X connect 29 0 45 0;
#X connect 29 0 46 0;
#X connect 29 0 47 0;
#X connect 30 0 36 0;
#X connect 31 0 37 0;
#X connect 32 0 38 0;
#X connect 33 0 39 0;
#X connect 34 0 40 0;
#X connect 35 0 41 0;
#X connect 36 0 0 0;
#X connect 37 0 14 0;
#X connect 38 0 16 0;
#X connect 39 0 18 0;
#X connect 40 0 23 0;
#X connect 41 0 25 0;
#X connect 42 0 22 0;
#X connect 43 0 22 1;
#X connect 44 0 22 2;
#X connect 45 0 22 3;
#X connect 46 0 22 4;
#X connect 47 0 22 5;
#X restore 453 531 pd bank_2;
#X obj 384 207 random 100;
#X floatatom 384 255 5 0 0 0 - - - 0;
#X obj 384 231 / 100;
#X obj 465 207 random 100;
#X floatatom 465 255 5 0 0 0 - - - 0;
#X obj 465 231 / 100;
#N canvas 0 33 1470 895 bank_3 0;
#X floatatom 8 154 5 0 0 0 - - - 0;
#X obj 496 25 cnv 15 298 138 empty empty empty 20 12 0 14 #dcdcdc #404040 0;
#N canvas 0 22 450 300 (subpatch) 0;
#X array \$0-wave13 600 float 0;
#A color 0;
#A width 1;
#X coords 0 1 599 -1 300 140 1 0 0;
#X restore 228 37 graph;
#X obj 9 68 loadbang;
#X obj 812 27 cnv 15 298 138 empty empty empty 20 12 0 14 #dcdcdc #404040 0;
#N canvas 0 22 450 300 (subpatch) 0;
#X array \$0-wave14 600 float 0;
#A color 0;
#A width 1;
#X coords 0 1 599 -1 300 140 1 0 0;
#X restore 544 39 graph;
#X obj 498 185 cnv 15 298 138 empty empty empty 20 12 0 14 #dcdcdc #404040 0;
#N canvas 0 22 450 300 (subpatch) 0;
#X array \$0-wave15 600 float 0;
#A color 0;
#A width 1;
#X coords 0 1 599 -1 300 140 1 0 0;
#X restore 230 197 graph;
#X obj 810 188 cnv 15 298 138 empty empty empty 20 12 0 14 #dcdcdc #404040 0;
#N canvas 0 22 450 300 (subpatch) 0;
#X array \$0-wave16 600 float 0;
#A color 0;
#A width 1;
#X coords 0 1 599 -1 300 140 1 0 0;
#X restore 542 200 graph;
#X obj 525 348 cnv 15 298 138 empty empty empty 20 12 0 14 #dcdcdc #404040 0;
#N canvas 0 22 450 300 (subpatch) 0;
#X array \$0-wave17 600 float 0;
#A color 0;
#A width 1;
#X coords 0 1 599 -1 300 140 1 0 0;
#X restore 257 360 graph;
#X obj 846 359 cnv 15 298 138 empty empty empty 20 12 0 14 #dcdcdc #404040 0;
#N canvas 0 22 450 300 (subpatch) 0;
#X array \$0-wave18 600 float 0;
#A color 0;
#A width 1;
#X coords 0 1 599 -1 300 140 1 0 0;
#X restore 569 363 graph;
#X floatatom 16 267 5 0 0 0 - - - 0;
#X obj 17 181 loadbang;
#X floatatom 24 380 5 0 0 0 - - - 0;
#X obj 25 294 loadbang;
#X floatatom 33 489 5 0 0 0 - - - 0;
#X obj 34 403 loadbang;
#X floatatom 680 784 11 0 0 0 - - - 0;
#X obj 680 808 else/f2s~;
#X obj 152 843 else/xselect2~ 6, f 88;
#X floatatom 43 605 5 0 0 0 - - - 0;
#X obj 44 519 loadbang;
#X floatatom 99 696 5 0 0 0 - - - 0;
#X obj 100 610 loadbang;
#X obj 152 867 outlet~;
#X obj 1019 92 inlet;
#X obj 44 20 inlet;
#X msg 8 95 load wavetables/alien/_13.wav;
#X msg 16 208 load wavetables/alien/_14.wav;
#X msg 24 321 load wavetables/alien/_15.wav;
#X msg 33 430 load wavetables/alien/_16.wav;
#X msg 43 546 load wavetables/alien/_17.wav;
#X msg 99 637 load wavetables/alien/_18.wav;
#X obj 8 125 sfload \$0-wave13;
#X obj 16 238 sfload \$0-wave14;
#X obj 24 351 sfload \$0-wave15;
#X obj 33 460 sfload \$0-wave16;
#X obj 43 576 sfload \$0-wave17;
#X obj 99 667 sfload \$0-wave18;
#X obj 159 696 else/wavetable~ \$0-wave13 600;
#X obj 244 728 else/wavetable~ \$0-wave14 600;
#X obj 331 659 else/wavetable~ \$0-wave15 600;
#X obj 406 693 else/wavetable~ \$0-wave16 600;
#X obj 558 639 else/wavetable~ \$0-wave17 600;
#X obj 617 695 else/wavetable~ \$0-wave18 600;
#X connect 3 0 30 0;
#X connect 15 0 31 0;
#X connect 17 0 32 0;
#X connect 19 0 33 0;
#X connect 20 0 21 0;
#X connect 21 0 22 6;
#X connect 22 0 27 0;
#X connect 24 0 34 0;
#X connect 26 0 35 0;
#X connect 28 0 20 0;
#X connect 29 0 42 0;
#X connect 29 0 43 0;
#X connect 29 0 44 0;
#X connect 29 0 45 0;
#X connect 29 0 46 0;
#X connect 29 0 47 0;
#X connect 30 0 36 0;
#X connect 31 0 37 0;
#X connect 32 0 38 0;
#X connect 33 0 39 0;
#X connect 34 0 40 0;
#X connect 35 0 41 0;
#X connect 36 0 0 0;
#X connect 37 0 14 0;
#X connect 38 0 16 0;
#X connect 39 0 18 0;
#X connect 40 0 23 0;
#X connect 41 0 25 0;
#X connect 42 0 22 0;
#X connect 43 0 22 1;
#X connect 44 0 22 2;
#X connect 45 0 22 3;
#X connect 46 0 22 4;
#X connect 47 0 22 5;
#X restore 529 529 pd bank_3;
#X obj 554 209 random 100;
#X floatatom 554 257 5 0 0 0 - - - 0;
#X obj 554 233 / 100;
#N canvas 0 33 1470 895 bank_4 0;
#X floatatom 8 154 5 0 0 0 - - - 0;
#X obj 496 25 cnv 15 298 138 empty empty empty 20 12 0 14 #dcdcdc #404040 0;
#N canvas 0 22 450 300 (subpatch) 0;
#X array \$0-wave19 600 float 0;
#A color 0;
#A width 1;
#X coords 0 1 599 -1 300 140 1 0 0;
#X restore 228 37 graph;
#X obj 9 68 loadbang;
#X obj 812 27 cnv 15 298 138 empty empty empty 20 12 0 14 #dcdcdc #404040 0;
#N canvas 0 22 450 300 (subpatch) 0;
#X array \$0-wave20 600 float 0;
#A color 0;
#A width 1;
#X coords 0 1 599 -1 300 140 1 0 0;
#X restore 544 39 graph;
#X obj 498 185 cnv 15 298 138 empty empty empty 20 12 0 14 #dcdcdc #404040 0;
#N canvas 0 22 450 300 (subpatch) 0;
#X array \$0-wave21 600 float 0;
#A color 0;
#A width 1;
#X coords 0 1 599 -1 300 140 1 0 0;
#X restore 230 197 graph;
#X obj 810 188 cnv 15 298 138 empty empty empty 20 12 0 14 #dcdcdc #404040 0;
#N canvas 0 22 450 300 (subpatch) 0;
#X array \$0-wave22 600 float 0;
#A color 0;
#A width 1;
#X coords 0 1 599 -1 300 140 1 0 0;
#X restore 542 200 graph;
#X obj 525 348 cnv 15 298 138 empty empty empty 20 12 0 14 #dcdcdc #404040 0;
#N canvas 0 22 450 300 (subpatch) 0;
#X array \$0-wave23 600 float 0;
#A color 0;
#A width 1;
#X coords 0 1 599 -1 300 140 1 0 0;
#X restore 257 360 graph;
#X obj 846 359 cnv 15 298 138 empty empty empty 20 12 0 14 #dcdcdc #404040 0;
#N canvas 0 22 450 300 (subpatch) 0;
#X array \$0-wave24 600 float 0;
#A color 0;
#A width 1;
#X coords 0 1 599 -1 300 140 1 0 0;
#X restore 569 363 graph;
#X floatatom 16 267 5 0 0 0 - - - 0;
#X obj 17 181 loadbang;
#X floatatom 24 380 5 0 0 0 - - - 0;
#X obj 25 294 loadbang;
#X floatatom 33 489 5 0 0 0 - - - 0;
#X obj 34 403 loadbang;
#X floatatom 680 784 11 0 0 0 - - - 0;
#X obj 680 808 else/f2s~;
#X obj 152 843 else/xselect2~ 6, f 88;
#X floatatom 43 605 5 0 0 0 - - - 0;
#X obj 44 519 loadbang;
#X floatatom 99 696 5 0 0 0 - - - 0;
#X obj 100 610 loadbang;
#X obj 152 867 outlet~;
#X obj 1019 92 inlet;
#X obj 44 20 inlet;
#X obj 159 696 else/wavetable~ \$0-wave13 600;
#X obj 244 728 else/wavetable~ \$0-wave14 600;
#X obj 331 659 else/wavetable~ \$0-wave15 600;
#X obj 406 693 else/wavetable~ \$0-wave16 600;
#X obj 558 639 else/wavetable~ \$0-wave17 600;
#X obj 617 695 else/wavetable~ \$0-wave18 600;
#X msg 8 95 load wavetables/alien/_19.wav;
#X msg 16 208 load wavetables/alien/_20.wav;
#X msg 24 321 load wavetables/alien/_21.wav;
#X msg 33 430 load wavetables/alien/_22.wav;
#X msg 43 546 load wavetables/alien/_23.wav;
#X msg 99 637 load wavetables/alien/_24.wav;
#X obj 8 125 sfload \$0-wave19;
#X obj 16 238 sfload \$0-wave20;
#X obj 24 351 sfload \$0-wave21;
#X obj 33 460 sfload \$0-wave22;
#X obj 43 576 sfload \$0-wave23;
#X obj 99 667 sfload \$0-wave24;
#X connect 3 0 36 0;
#X connect 15 0 37 0;
#X connect 17 0 38 0;
#X connect 19 0 39 0;
#X connect 20 0 21 0;
#X connect 21 0 22 6;
#X connect 22 0 27 0;
#X connect 24 0 40 0;
#X connect 26 0 41 0;
#X connect 28 0 20 0;
#X connect 29 0 30 0;
#X connect 29 0 31 0;
#X connect 29 0 32 0;
#X connect 29 0 33 0;
#X connect 29 0 34 0;
#X connect 29 0 35 0;
#X connect 30 0 22 0;
#X connect 31 0 22 1;
#X connect 32 0 22 2;
#X connect 33 0 22 3;
#X connect 34 0 22 4;
#X connect 35 0 22 5;
#X connect 36 0 42 0;
#X connect 37 0 43 0;
#X connect 38 0 44 0;
#X connect 39 0 45 0;
#X connect 40 0 46 0;
#X connect 41 0 47 0;
#X connect 42 0 0 0;
#X connect 43 0 14 0;
#X connect 44 0 16 0;
#X connect 45 0 18 0;
#X connect 46 0 23 0;
#X connect 47 0 25 0;
#X restore 604 529 pd bank_4;
#X obj 605 240 random 100;
#X floatatom 605 288 5 0 0 0 - - - 0;
#X obj 605 264 / 100;
#N canvas 0 33 1470 895 bank_5 0;
#X floatatom 8 154 5 0 0 0 - - - 0;
#X obj 496 25 cnv 15 298 138 empty empty empty 20 12 0 14 #dcdcdc #404040 0;
#N canvas 0 22 450 300 (subpatch) 0;
#X array \$0-wave25 600 float 0;
#A color 0;
#A width 1;
#X coords 0 1 599 -1 300 140 1 0 0;
#X restore 228 37 graph;
#X obj 9 68 loadbang;
#X obj 812 27 cnv 15 298 138 empty empty empty 20 12 0 14 #dcdcdc #404040 0;
#N canvas 0 22 450 300 (subpatch) 0;
#X array \$0-wave26 600 float 0;
#A color 0;
#A width 1;
#X coords 0 1 599 -1 300 140 1 0 0;
#X restore 544 39 graph;
#X obj 498 185 cnv 15 298 138 empty empty empty 20 12 0 14 #dcdcdc #404040 0;
#N canvas 0 22 450 300 (subpatch) 0;
#X array \$0-wave27 600 float 0;
#A color 0;
#A width 1;
#X coords 0 1 599 -1 300 140 1 0 0;
#X restore 230 197 graph;
#X obj 810 188 cnv 15 298 138 empty empty empty 20 12 0 14 #dcdcdc #404040 0;
#N canvas 0 22 450 300 (subpatch) 0;
#X array \$0-wave28 600 float 0;
#A color 0;
#A width 1;
#X coords 0 1 599 -1 300 140 1 0 0;
#X restore 542 200 graph;
#X obj 525 348 cnv 15 298 138 empty empty empty 20 12 0 14 #dcdcdc #404040 0;
#N canvas 0 22 450 300 (subpatch) 0;
#X array \$0-wave29 600 float 0;
#A color 0;
#A width 1;
#X coords 0 1 599 -1 300 140 1 0 0;
#X restore 257 360 graph;
#X obj 846 359 cnv 15 298 138 empty empty empty 20 12 0 14 #dcdcdc #404040 0;
#N canvas 0 22 450 300 (subpatch) 0;
#X array \$0-wave30 600 float 0;
#A color 0;
#A width 1;
#X coords 0 1 599 -1 300 140 1 0 0;
#X restore 569 363 graph;
#X floatatom 16 267 5 0 0 0 - - - 0;
#X obj 17 181 loadbang;
#X floatatom 24 380 5 0 0 0 - - - 0;
#X obj 25 294 loadbang;
#X floatatom 33 489 5 0 0 0 - - - 0;
#X obj 34 403 loadbang;
#X floatatom 680 784 11 0 0 0 - - - 0;
#X obj 680 808 else/f2s~;
#X obj 152 843 else/xselect2~ 6, f 88;
#X floatatom 43 605 5 0 0 0 - - - 0;
#X obj 44 519 loadbang;
#X floatatom 99 696 5 0 0 0 - - - 0;
#X obj 100 610 loadbang;
#X obj 152 867 outlet~;
#X obj 1019 92 inlet;
#X obj 44 20 inlet;
#X msg 8 95 load wavetables/alien/_25.wav;
#X msg 16 208 load wavetables/alien/_26.wav;
#X msg 24 321 load wavetables/alien/_27.wav;
#X msg 33 430 load wavetables/alien/_28.wav;
#X msg 43 546 load wavetables/alien/_29.wav;
#X obj 8 125 sfload \$0-wave25;
#X obj 16 238 sfload \$0-wave26;
#X obj 24 351 sfload \$0-wave27;
#X obj 33 460 sfload \$0-wave28;
#X obj 43 576 sfload \$0-wave29;
#X msg 99 637 load wavetables/alien/_30.wav;
#X obj 99 667 sfload \$0-wave30;
#X obj 159 696 else/wavetable~ \$0-wave25 600;
#X obj 244 728 else/wavetable~ \$0-wave16 600;
#X obj 331 659 else/wavetable~ \$0-wave27 600;
#X obj 406 693 else/wavetable~ \$0-wave28 600;
#X obj 558 639 else/wavetable~ \$0-wave29 600;
#X obj 617 695 else/wavetable~ \$0-wave30 600;
#X connect 3 0 30 0;
#X connect 15 0 31 0;
#X connect 17 0 32 0;
#X connect 19 0 33 0;
#X connect 20 0 21 0;
#X connect 21 0 22 6;
#X connect 22 0 27 0;
#X connect 24 0 34 0;
#X connect 26 0 40 0;
#X connect 28 0 20 0;
#X connect 29 0 42 0;
#X connect 29 0 43 0;
#X connect 29 0 44 0;
#X connect 29 0 45 0;
#X connect 29 0 46 0;
#X connect 29 0 47 0;
#X connect 30 0 35 0;
#X connect 31 0 36 0;
#X connect 32 0 37 0;
#X connect 33 0 38 0;
#X connect 34 0 39 0;
#X connect 35 0 0 0;
#X connect 36 0 14 0;
#X connect 37 0 16 0;
#X connect 38 0 18 0;
#X connect 39 0 23 0;
#X connect 40 0 41 0;
#X connect 41 0 25 0;
#X connect 42 0 22 0;
#X connect 43 0 22 1;
#X connect 44 0 22 2;
#X connect 45 0 22 3;
#X connect 46 0 22 4;
#X connect 47 0 22 5;
#X restore 679 527 pd bank_5;
#X obj 666 274 random 100;
#X floatatom 666 322 5 0 0 0 - - - 0;
#X obj 666 298 / 100;
#N canvas 0 33 1470 895 bank_5 0;
#X floatatom 8 154 5 0 0 0 - - - 0;
#X obj 496 25 cnv 15 298 138 empty empty empty 20 12 0 14 #dcdcdc #404040 0;
#N canvas 0 22 450 300 (subpatch) 0;
#X array \$0-wave31 600 float 0;
#A color 0;
#A width 1;
#X coords 0 1 599 -1 300 140 1 0 0;
#X restore 228 37 graph;
#X obj 9 68 loadbang;
#X obj 812 27 cnv 15 298 138 empty empty empty 20 12 0 14 #dcdcdc #404040 0;
#N canvas 0 22 450 300 (subpatch) 0;
#X array \$0-wave32 600 float 0;
#A color 0;
#A width 1;
#X coords 0 1 599 -1 300 140 1 0 0;
#X restore 544 39 graph;
#X obj 498 185 cnv 15 298 138 empty empty empty 20 12 0 14 #dcdcdc #404040 0;
#N canvas 0 22 450 300 (subpatch) 0;
#X array \$0-wave33 600 float 0;
#A color 0;
#A width 1;
#X coords 0 1 599 -1 300 140 1 0 0;
#X restore 230 197 graph;
#X obj 810 188 cnv 15 298 138 empty empty empty 20 12 0 14 #dcdcdc #404040 0;
#N canvas 0 22 450 300 (subpatch) 0;
#X array \$0-wave34 600 float 0;
#A color 0;
#A width 1;
#X coords 0 1 599 -1 300 140 1 0 0;
#X restore 542 200 graph;
#X obj 525 348 cnv 15 298 138 empty empty empty 20 12 0 14 #dcdcdc #404040 0;
#N canvas 0 22 450 300 (subpatch) 0;
#X array \$0-wave35 600 float 0;
#A color 0;
#A width 1;
#X coords 0 1 599 -1 300 140 1 0 0;
#X restore 257 360 graph;
#X obj 846 359 cnv 15 298 138 empty empty empty 20 12 0 14 #dcdcdc #404040 0;
#N canvas 0 22 450 300 (subpatch) 0;
#X array \$0-wave36 600 float 0;
#A color 0;
#A width 1;
#X coords 0 1 599 -1 300 140 1 0 0;
#X restore 569 363 graph;
#X floatatom 16 267 5 0 0 0 - - - 0;
#X obj 17 181 loadbang;
#X floatatom 24 380 5 0 0 0 - - - 0;
#X obj 25 294 loadbang;
#X floatatom 33 489 5 0 0 0 - - - 0;
#X obj 34 403 loadbang;
#X floatatom 680 784 11 0 0 0 - - - 0;
#X obj 680 808 else/f2s~;
#X obj 152 843 else/xselect2~ 6, f 88;
#X floatatom 43 605 5 0 0 0 - - - 0;
#X obj 44 519 loadbang;
#X floatatom 99 696 5 0 0 0 - - - 0;
#X obj 100 610 loadbang;
#X obj 152 867 outlet~;
#X obj 1019 92 inlet;
#X obj 44 20 inlet;
#X msg 8 95 load wavetables/alien/_31.wav;
#X obj 8 125 sfload \$0-wave31;
#X msg 16 208 load wavetables/alien/_32.wav;
#X obj 16 238 sfload \$0-wave32;
#X msg 24 321 load wavetables/alien/_33.wav;
#X obj 24 351 sfload \$0-wave33;
#X msg 33 430 load wavetables/alien/_34.wav;
#X obj 33 460 sfload \$0-wave34;
#X msg 43 546 load wavetables/alien/_35.wav;
#X obj 43 576 sfload \$0-wave35;
#X msg 99 637 load wavetables/alien/_36.wav;
#X obj 99 667 sfload \$0-wave36;
#X obj 159 696 else/wavetable~ \$0-wave31 600;
#X obj 244 728 else/wavetable~ \$0-wave32 600;
#X obj 331 659 else/wavetable~ \$0-wave33 600;
#X obj 406 693 else/wavetable~ \$0-wave34 600;
#X obj 558 639 else/wavetable~ \$0-wave35 600;
#X obj 617 695 else/wavetable~ \$0-wave36 600;
#X connect 3 0 30 0;
#X connect 15 0 32 0;
#X connect 17 0 34 0;
#X connect 19 0 36 0;
#X connect 20 0 21 0;
#X connect 21 0 22 6;
#X connect 22 0 27 0;
#X connect 24 0 38 0;
#X connect 26 0 40 0;
#X connect 28 0 20 0;
#X connect 29 0 42 0;
#X connect 29 0 43 0;
#X connect 29 0 44 0;
#X connect 29 0 45 0;
#X connect 29 0 46 0;
#X connect 29 0 47 0;
#X connect 30 0 31 0;
#X connect 31 0 0 0;
#X connect 32 0 33 0;
#X connect 33 0 14 0;
#X connect 34 0 35 0;
#X connect 35 0 16 0;
#X connect 36 0 37 0;
#X connect 37 0 18 0;
#X connect 38 0 39 0;
#X connect 39 0 23 0;
#X connect 40 0 41 0;
#X connect 41 0 25 0;
#X connect 42 0 22 0;
#X connect 43 0 22 1;
#X connect 44 0 22 2;
#X connect 45 0 22 3;
#X connect 46 0 22 4;
#X connect 47 0 22 5;
#X restore 756 526 pd bank_5;
#X obj 750 271 random 100;
#X floatatom 750 319 5 0 0 0 - - - 0;
#X obj 750 295 / 100;
#N canvas 0 33 1470 895 bank_6 0;
#X floatatom 8 154 5 0 0 0 - - - 0;
#X obj 496 25 cnv 15 298 138 empty empty empty 20 12 0 14 #dcdcdc #404040 0;
#N canvas 0 22 450 300 (subpatch) 0;
#X array \$0-wave37 600 float 0;
#A color 0;
#A width 1;
#X coords 0 1 599 -1 300 140 1 0 0;
#X restore 228 37 graph;
#X obj 9 68 loadbang;
#X obj 812 27 cnv 15 298 138 empty empty empty 20 12 0 14 #dcdcdc #404040 0;
#N canvas 0 22 450 300 (subpatch) 0;
#X array \$0-wave38 600 float 0;
#A color 0;
#A width 1;
#X coords 0 1 599 -1 300 140 1 0 0;
#X restore 544 39 graph;
#X obj 498 185 cnv 15 298 138 empty empty empty 20 12 0 14 #dcdcdc #404040 0;
#N canvas 0 22 450 300 (subpatch) 0;
#X array \$0-wave39 600 float 0;
#A color 0;
#A width 1;
#X coords 0 1 599 -1 300 140 1 0 0;
#X restore 230 197 graph;
#X obj 810 188 cnv 15 298 138 empty empty empty 20 12 0 14 #dcdcdc #404040 0;
#N canvas 0 22 450 300 (subpatch) 0;
#X array \$0-wave40 600 float 0;
#A color 0;
#A width 1;
#X coords 0 1 599 -1 300 140 1 0 0;
#X restore 542 200 graph;
#X obj 525 348 cnv 15 298 138 empty empty empty 20 12 0 14 #dcdcdc #404040 0;
#N canvas 0 22 450 300 (subpatch) 0;
#X array \$0-wave41 600 float 0;
#A color 0;
#A width 1;
#X coords 0 1 599 -1 300 140 1 0 0;
#X restore 257 360 graph;
#X obj 846 359 cnv 15 298 138 empty empty empty 20 12 0 14 #dcdcdc #404040 0;
#N canvas 0 22 450 300 (subpatch) 0;
#X array \$0-wave42 600 float 0;
#A color 0;
#A width 1;
#X coords 0 1 599 -1 300 140 1 0 0;
#X restore 569 363 graph;
#X floatatom 16 267 5 0 0 0 - - - 0;
#X obj 17 181 loadbang;
#X floatatom 24 380 5 0 0 0 - - - 0;
#X obj 25 294 loadbang;
#X floatatom 33 489 5 0 0 0 - - - 0;
#X obj 34 403 loadbang;
#X floatatom 680 784 11 0 0 0 - - - 0;
#X obj 680 808 else/f2s~;
#X obj 152 843 else/xselect2~ 6, f 88;
#X floatatom 43 605 5 0 0 0 - - - 0;
#X obj 44 519 loadbang;
#X floatatom 99 696 5 0 0 0 - - - 0;
#X obj 100 610 loadbang;
#X obj 152 867 outlet~;
#X obj 1019 92 inlet;
#X obj 44 20 inlet;
#X msg 8 95 load wavetables/alien/_37.wav;
#X obj 8 125 sfload \$0-wave37;
#X msg 16 208 load wavetables/alien/_38.wav;
#X obj 16 238 sfload \$0-wave38;
#X msg 24 321 load wavetables/alien/_39.wav;
#X obj 24 351 sfload \$0-wave39;
#X msg 33 430 load wavetables/alien/_40.wav;
#X obj 33 460 sfload \$0-wave40;
#X msg 43 546 load wavetables/alien/_41.wav;
#X obj 43 576 sfload \$0-wave41;
#X msg 99 637 load wavetables/alien/_42.wav;
#X obj 99 667 sfload \$0-wave42;
#X obj 159 696 else/wavetable~ \$0-wave37 600;
#X obj 244 728 else/wavetable~ \$0-wave38 600;
#X obj 331 659 else/wavetable~ \$0-wave39 600;
#X obj 406 693 else/wavetable~ \$0-wave40 600;
#X obj 558 639 else/wavetable~ \$0-wave41 600;
#X obj 617 695 else/wavetable~ \$0-wave42 600;
#X connect 3 0 30 0;
#X connect 15 0 32 0;
#X connect 17 0 34 0;
#X connect 19 0 36 0;
#X connect 20 0 21 0;
#X connect 21 0 22 6;
#X connect 22 0 27 0;
#X connect 24 0 38 0;
#X connect 26 0 40 0;
#X connect 28 0 20 0;
#X connect 29 0 42 0;
#X connect 29 0 43 0;
#X connect 29 0 44 0;
#X connect 29 0 45 0;
#X connect 29 0 46 0;
#X connect 29 0 47 0;
#X connect 30 0 31 0;
#X connect 31 0 0 0;
#X connect 32 0 33 0;
#X connect 33 0 14 0;
#X connect 34 0 35 0;
#X connect 35 0 16 0;
#X connect 36 0 37 0;
#X connect 37 0 18 0;
#X connect 38 0 39 0;
#X connect 39 0 23 0;
#X connect 40 0 41 0;
#X connect 41 0 25 0;
#X connect 42 0 22 0;
#X connect 43 0 22 1;
#X connect 44 0 22 2;
#X connect 45 0 22 3;
#X connect 46 0 22 4;
#X connect 47 0 22 5;
#X restore 831 525 pd bank_6;
#X obj 836 271 random 100;
#X floatatom 836 319 5 0 0 0 - - - 0;
#X obj 836 295 / 100;
#X connect 1 0 11 0;
#X connect 1 0 24 0;
#X connect 1 0 26 0;
#X connect 1 0 33 0;
#X connect 2 0 4 0;
#X connect 2 0 8 0;
#X connect 2 0 16 0;
#X connect 3 0 22 0;
#X connect 4 0 5 0;
#X connect 4 1 5 0;
#X connect 5 0 16 0;
#X connect 6 0 4 1;
#X connect 7 0 8 1;
#X connect 8 0 16 0;
#X connect 9 0 10 0;
#X connect 10 0 8 2;
#X connect 11 0 12 0;
#X connect 12 0 13 0;
#X connect 13 0 2 0;
#X connect 14 0 2 0;
#X connect 15 0 2 0;
#X connect 17 0 1 0;
#X connect 17 0 3 0;
#X connect 18 0 22 3;
#X connect 19 0 6 0;
#X connect 20 0 7 0;
#X connect 21 0 2 0;
#X connect 21 0 14 0;
#X connect 21 0 15 0;
#X connect 22 0 2 1;
#X connect 24 0 21 0;
#X connect 25 0 27 0;
#X connect 25 0 30 0;
#X connect 25 0 34 0;
#X connect 25 0 38 0;
#X connect 25 0 42 0;
#X connect 25 0 46 0;
#X connect 25 0 50 0;
#X connect 26 0 21 0;
#X connect 27 0 29 0;
#X connect 28 0 24 1;
#X connect 29 0 28 0;
#X connect 30 0 32 0;
#X connect 31 0 26 1;
#X connect 32 0 31 0;
#X connect 33 0 21 0;
#X connect 34 0 36 0;
#X connect 35 0 33 0;
#X connect 36 0 35 0;
#X connect 37 0 21 0;
#X connect 38 0 40 0;
#X connect 39 0 37 0;
#X connect 40 0 39 0;
#X connect 41 0 21 0;
#X connect 42 0 44 0;
#X connect 43 0 41 0;
#X connect 44 0 43 0;
#X connect 45 0 21 0;
#X connect 46 0 48 0;
#X connect 47 0 45 0;
#X connect 48 0 47 0;
#X connect 49 0 21 0;
#X connect 50 0 52 0;
#X connect 51 0 49 0;
#X connect 52 0 51 0;
