#N canvas 162 63 1189 831 12;
#X declare -path else;
#X obj 19 35 declare -path else;
#X obj 54 111 mtof;
#X obj 240 917 *~;
#X obj 302 832 b;
#X obj 246 1032 vcf~ 10;
#X obj 246 1066 drive~;
#X obj 269 969 rescale~ 500 2000, f 9;
#X obj 404 1023 rescale~ 500 1500;
#X obj 374 1062 bandpass~;
#X obj 470 1051 osc~ 0.17;
#X obj 470 1075 rescale~ 1 10;
#X obj 174 801 osc~;
#X obj 174 827 lop~ 500;
#X obj 172 852 lop~ 500;
#X obj 250 863 lop~ 500;
#X obj 312 862 hip~ 2000;
#X obj 197 1137 outlet~;
#X obj 48 80 inlet;
#X obj 282 36 inlet;
#X obj 257 943 osc~ 0.01;
#X obj 404 996 osc~ 0.01;
#X obj 244 830 *~ 0.5;
#X floatatom 411 336 5 0 0 0 - - - 0;
#X msg 411 277 load \$1;
#X obj 1088 29 cnv 15 298 138 empty empty empty 20 12 0 14 #dcdcdc #404040 0;
#N canvas 0 22 450 300 (subpatch) 0;
#X array \$0-wave 600 float 0;
#A color 0;
#A width 1;
#X coords 0 1 599 -1 300 140 1 0 0;
#X restore 820 41 graph;
#X obj 261 890 adsr~ 50 100 0.5 500;
#X obj 356 3 inlet;
#X obj 412 211 choose_wavetable;
#X obj 411 307 sfload \$0-wave;
#X obj 411 182 random 100;
#X obj 209 575 else/wavetable~ \$0-wave 600;
#X msg 659 27 threaded 0;
#X connect 1 0 11 0;
#X connect 1 0 31 0;
#X connect 2 0 4 0;
#X connect 2 0 8 0;
#X connect 2 0 16 0;
#X connect 3 0 26 0;
#X connect 4 0 5 0;
#X connect 4 1 5 0;
#X connect 5 0 16 0;
#X connect 6 0 4 1;
#X connect 7 0 8 1;
#X connect 8 0 16 0;
#X connect 9 0 10 0;
#X connect 10 0 8 2;
#X connect 11 0 12 0;
#X connect 12 0 13 0;
#X connect 13 0 2 0;
#X connect 14 0 2 0;
#X connect 15 0 2 0;
#X connect 17 0 1 0;
#X connect 17 0 3 0;
#X connect 18 0 26 3;
#X connect 19 0 6 0;
#X connect 20 0 7 0;
#X connect 21 0 2 0;
#X connect 21 0 14 0;
#X connect 21 0 15 0;
#X connect 23 0 29 0;
#X connect 26 0 2 1;
#X connect 27 0 30 0;
#X connect 28 0 23 0;
#X connect 29 0 22 0;
#X connect 30 0 28 0;
#X connect 31 0 21 0;
#X connect 32 0 29 0;
