#N canvas 313 162 884 659 12;
#X declare -path .;
#X obj 81 153 list trim;
#X obj 40 92 %;
#X obj 35 285 outlet;
#X obj 419 41 loadbang;
#X obj 419 65 t b b;
#X obj 29 21 inlet;
#X obj 417 104 text size \$0-patterns;
#X obj 40 117 text get \$0-patterns -1;
#X obj 251 231 text define -k \$0-patterns;
#A set;
#X obj 29 45 i;
#X obj 33 65 abs;
#X obj 289 50 declare -path .;
#X msg 249 178 read ./patterns.txt;
#X connect 0 0 2 0;
#X connect 1 0 7 0;
#X connect 3 0 4 0;
#X connect 4 0 6 0;
#X connect 4 1 12 0;
#X connect 5 0 9 0;
#X connect 6 0 1 1;
#X connect 7 0 0 0;
#X connect 9 0 10 0;
#X connect 10 0 1 0;
#X connect 12 0 8 0;
