#N canvas 400 300 450 350 12;
#X obj 30 30 inlet;
#X obj 30 280 outlet;
#X obj 30 70 t b b;
#X msg 30 110 1 \$1;
#X obj 30 180 line;
#X msg 100 150 0 \$1;
#X obj 100 110 del 5;
#X obj 100 70 f 5;
#X obj 170 70 f 300;
#X obj 170 30 loadbang;
#X text 200 110 attack ms;
#X text 200 150 decay ms;
#X obj 100 30 inlet;
#X obj 170 -5 inlet;
#X text 30 -5 bang in;
#X text 100 -5 attack;
#X text 170 -30 decay;
#X text 30 305 0-1 envelope out;
#X connect 0 0 2 0;
#X connect 2 0 3 0;
#X connect 2 1 7 0;
#X connect 3 0 4 0;
#X connect 4 0 1 0;
#X connect 5 0 4 0;
#X connect 6 0 5 0;
#X connect 7 0 3 1;
#X connect 7 0 6 0;
#X connect 8 0 5 1;
#X connect 9 0 7 0;
#X connect 9 0 8 0;
#X connect 12 0 7 1;
#X connect 13 0 8 1;
