#N canvas 10 56 450 503 12;
#X obj 165 291 folder;
#X obj 133 119 alien_evolve;
#X obj 253 350 list;
#X floatatom 132 95 5 0 0 0 - - - 0;
#X obj 162 450 outlet~;
#X obj 205 30 inlet;
#X obj 260 30 inlet;
#X obj 54 45 inlet;
#X obj 165 315 *~ 0.5;
#X obj 331 233 inlet;
#X obj 245 397 outlet;
#X connect 0 0 8 0;
#X connect 0 1 2 0;
#X connect 1 0 0 1;
#X connect 2 0 10 0;
#X connect 3 0 1 0;
#X connect 5 0 0 1;
#X connect 6 0 3 0;
#X connect 7 0 0 0;
#X connect 8 0 4 0;
#X connect 9 0 0 2;
