#N canvas 10 56 450 503 12;
#X obj 165 291 folder;
#X obj 244 371 list;
#X obj 162 450 outlet~;
#X obj 205 30 inlet;
#X obj 54 45 inlet;
#X obj 165 315 *~ 0.5;
#X obj 331 233 inlet;
#X obj 245 397 outlet;
#X obj 302 396 outlet;
#X connect 0 0 5 0;
#X connect 0 1 1 0;
#X connect 0 2 8 0;
#X connect 1 0 7 0;
#X connect 3 0 0 1;
#X connect 4 0 0 0;
#X connect 5 0 2 0;
#X connect 6 0 0 2;
