#N canvas 63 97 959 735 12;
#X obj 402 430 file glob;
#X obj 403 376 symbol;
#X msg 402 404 symbol \$1/*;
#X obj 383 717 list store;
#X msg 401 457 append \$1;
#X msg 530 558 bang;
#X msg 265 703 get \$1;
#X floatatom 284 651 5 0 0 0 - - - 0;
#X obj 279 609 list length;
#X obj 265 678 % 3;
#X obj 231 242 inlet;
#X obj 404 350 t a b, f 20;
#X obj 421 531 del 2;
#X obj 422 491 b;
#X obj 282 571 list store;
#X obj 407 170 symbol;
#X obj 355 245 pdcontrol;
#X msg 355 217 dir;
#X obj 354 193 bng 15 250 50 0 empty empty empty 17 7 0 10 #fcfcfc #000000 #000000;
#X obj 354 276 pack s s;
#X msg 354 305 \$1/wavetables/\$2;
#X msg 407 144 hvoice;
#X obj 381 778 outlet;
#X obj 403 95 loadbang;
#X connect 0 0 4 0;
#X connect 1 0 2 0;
#X connect 2 0 0 0;
#X connect 3 0 22 0;
#X connect 4 0 3 0;
#X connect 4 0 13 0;
#X connect 4 0 14 0;
#X connect 5 0 3 1;
#X connect 5 0 14 1;
#X connect 6 0 3 0;
#X connect 7 0 9 1;
#X connect 8 0 7 0;
#X connect 9 0 6 0;
#X connect 10 0 9 0;
#X connect 11 0 1 0;
#X connect 11 1 5 0;
#X connect 12 0 14 0;
#X connect 13 0 12 0;
#X connect 14 0 8 0;
#X connect 15 0 19 1;
#X connect 15 0 18 0;
#X connect 16 0 19 0;
#X connect 17 0 16 0;
#X connect 18 0 17 0;
#X connect 19 0 20 0;
#X connect 20 0 11 0;
#X connect 21 0 15 0;
#X connect 23 0 21 0;
