#N canvas 63 96 1024 778 12;
#X obj 127 302 alien_entangled;
#X obj 115 176 alien_router_entangled kick bassline;
#X obj 129 349 else/sequencer;
#X msg 126 79 kick (seq 1 2 3);
#X msg 257 78 bassline (seq 1 2 3);
#X obj 272 293 alien_entangled;
#X obj 253 348 else/sequencer;
#X floatatom 130 377 5 0 0 0 - - - 0;
#X floatatom 254 376 5 0 0 0 - - - 0;
#X obj 31 196 tgl 19 0 empty empty empty 0 -10 0 12 #fcfcfc #000000 #000000 0 1;
#X obj 98 324 metro 200;
#X obj 364 149 bng 19 250 50 0 empty empty empty 0 -10 0 12 #fcfcfc #000000 #000000;
#X msg 109 47 kick (seq 11 12 13);
#X msg 256 47 bassline (seq 21 22 23);
#X msg 280 254 (seq 1 2 3);
#X obj 513 230 alien_eg_router main;
#X obj 667 225 alien_eg_router section;
#X obj 514 260 alien a;
#X obj 582 259 alien b;
#X connect 0 0 2 1;
#X connect 1 0 0 0;
#X connect 1 1 5 0;
#X connect 2 0 7 0;
#X connect 3 0 1 0;
#X connect 4 0 1 0;
#X connect 5 0 6 1;
#X connect 6 0 8 0;
#X connect 9 0 10 0;
#X connect 10 0 2 0;
#X connect 10 0 6 0;
#X connect 11 0 1 1;
#X connect 12 0 1 0;
#X connect 13 0 1 0;
#X connect 14 0 5 0;
