#N canvas 56 218 572 401 12;
#X obj 136 148 else/sequencer;
#X obj 230 121 alien;
#X obj 134 249 playdir~;
#X msg 396 113 perc;
#X obj 53 35 inlet;
#X obj 231 38 inlet;
#X obj 401 39 inlet;
#X obj 134 273 outlet~;
#X obj 458 65 loadbang;
#X msg 480 120 (seq -);
#X obj 458 89 pipe 10;
#X obj 302 250 outlet;
#X connect 0 0 2 0;
#X connect 1 0 0 1;
#X connect 1 0 11 0;
#X connect 2 0 7 0;
#X connect 3 0 2 1;
#X connect 4 0 0 0;
#X connect 5 0 1 0;
#X connect 6 0 2 1;
#X connect 8 0 3 0;
#X connect 8 0 10 0;
#X connect 9 0 1 0;
#X connect 10 0 9 0;
