#N canvas 513 42 957 866 12;
#X obj 9 405 lop~ 80;
#X obj 10 431 lop~ 80;
#X obj 236 355 loadbang;
#X obj 8 377 *~;
#X obj 138 156 b;
#X obj 80 321 vline~;
#X obj 9 142 mtof;
#X obj 9 193 osc~;
#X obj 9 17 inlet;
#X obj 10 679 outlet~;
#X text 59 16 heavy bass;
#X obj 181 49 inlet;
#X obj 228 49 inlet;
#X obj 142 192 pack 0 0 0;
#X msg 142 217 0 \, 1 \$1 0 \, 0 \$2 \$3;
#X text 146 240 attack \, sustain \, release;
#X obj 274 52 inlet;
#X obj 89 69 loadbang;
#X obj 89 119 unpack 0 0 0, f 26;
#X obj 12 483 else/drive~;
#X obj 83 436 nbx 5 14 -1e+37 1e+37 0 0 empty empty empty 0 -8 0 10 #dcdcdc #000000 #000000 0 256;
#X obj 86 414 hsl 128 15 0 5 0 0 empty empty empty -2 -8 0 10 #dcdcdc #000000 #000000 0 1;
#X obj 83 457 else/float2sig~ 50;
#X obj 13 600 else/drive~;
#X obj 84 553 nbx 5 14 -1e+37 1e+37 0 0 empty empty empty 0 -8 0 10 #dcdcdc #000000 #000000 0 256;
#X obj 87 531 hsl 128 15 0 5 0 0 empty empty empty -2 -8 0 10 #dcdcdc #000000 #000000 0 1;
#X obj 84 574 else/float2sig~ 50;
#X msg 237 381 2;
#X msg 89 94 11 10 300;
#X connect 0 0 1 0;
#X connect 1 0 19 0;
#X connect 2 0 27 0;
#X connect 3 0 0 0;
#X connect 4 0 13 0;
#X connect 5 0 3 1;
#X connect 6 0 4 0;
#X connect 6 0 7 0;
#X connect 7 0 3 0;
#X connect 8 0 6 0;
#X connect 11 0 13 0;
#X connect 12 0 13 1;
#X connect 13 0 14 0;
#X connect 14 0 5 0;
#X connect 16 0 13 2;
#X connect 17 0 28 0;
#X connect 18 0 13 0;
#X connect 18 1 13 1;
#X connect 18 2 13 2;
#X connect 19 0 23 0;
#X connect 20 0 22 0;
#X connect 21 0 20 0;
#X connect 22 0 19 1;
#X connect 23 0 9 0;
#X connect 24 0 26 0;
#X connect 25 0 24 0;
#X connect 26 0 23 1;
#X connect 27 0 21 0;
#X connect 27 0 25 0;
#X connect 28 0 18 0;
