#N canvas 138 183 777 515 12;
#X obj 619 21 inlet;
#X obj 20 20 r clock1;
#X obj 139 21 r clock2;
#X obj 260 21 r clock3;
#X obj 379 21 r clock4;
#X obj 499 20 r clock5;
#X obj 20 45 else/selector 5 1, f 86;
#X obj 20 69 outlet;
#X connect 0 0 6 5;
#X connect 1 0 6 0;
#X connect 2 0 6 1;
#X connect 3 0 6 2;
#X connect 4 0 6 3;
#X connect 5 0 6 4;
#X connect 6 0 7 0;
