#N canvas 493 44 704 781 12;
#X obj 212 337 file glob;
#X obj 213 283 symbol;
#X msg 212 311 symbol \$1/*;
#X obj 210 515 list store;
#X msg 211 364 append \$1;
#X msg 340 465 bang;
#X msg 76 687 get \$1;
#X floatatom 94 558 5 0 0 0 - - - 0;
#X obj 89 516 list length;
#X obj 76 662 % 3;
#X obj 240 638 readsf~ 2;
#X obj 298 668 bng 15 250 50 0 empty empty empty 17 7 0 10 #fcfcfc #000000 #000000;
#X msg 240 606 open \$1 \, 1;
#X obj 41 149 inlet;
#X obj 216 42 inlet;
#X obj 241 690 outlet~;
#X obj 214 257 t a b, f 20;
#X obj 231 438 del 2;
#X obj 232 398 b;
#X obj 92 478 list store;
#X obj 312 689 outlet;
#X obj 217 77 symbol;
#X obj 165 152 pdcontrol;
#X msg 165 124 dir;
#X obj 164 100 bng 15 250 50 0 empty empty empty 17 7 0 10 #fcfcfc #000000 #000000;
#X obj 149 257 print;
#X msg 164 212 \$1/sounds/\$2;
#X obj 164 183 pack s s;
#X msg 149 27 snares;
#X connect 0 0 4 0;
#X connect 1 0 2 0;
#X connect 2 0 0 0;
#X connect 3 0 12 0;
#X connect 4 0 3 0;
#X connect 4 0 18 0;
#X connect 4 0 19 0;
#X connect 5 0 3 1;
#X connect 5 0 19 1;
#X connect 6 0 3 0;
#X connect 7 0 9 1;
#X connect 8 0 7 0;
#X connect 9 0 6 0;
#X connect 10 0 15 0;
#X connect 10 2 11 0;
#X connect 11 0 20 0;
#X connect 12 0 10 0;
#X connect 13 0 9 0;
#X connect 14 0 21 0;
#X connect 16 0 1 0;
#X connect 16 1 5 0;
#X connect 17 0 19 0;
#X connect 18 0 17 0;
#X connect 19 0 8 0;
#X connect 21 0 27 1;
#X connect 21 0 24 0;
#X connect 22 0 27 0;
#X connect 23 0 22 0;
#X connect 24 0 23 0;
#X connect 26 0 25 0;
#X connect 26 0 16 0;
#X connect 27 0 26 0;
#X connect 28 0 21 0;
