#N canvas 120 34 1079 848 12;
#X declare -lib Gem;
#X declare -path ./lib;
#X declare -lib else;
#X obj 362 28 tgl 19 0 empty empty empty 0 -10 0 12 #fcfcfc #000000 #000000 0 1;
#X obj 33 373 else/out~;
#X text 31 427 be careful with your ears;
#N canvas 500 49 888 733 visuals 0;
#X text 123 50 I can crash Pd if I delete GEM objects without having a GEM window open FYI;
#N canvas 339 345 450 300 puzzle_effect 0;
#X obj 42 173 outlet;
#X obj 43 117 inlet;
#N canvas 565 255 787 662 togglefx 0;
#X obj 89 290 outlet;
#X obj 36 37 inlet;
#X obj 121 172 spigot 1;
#X obj 32 245 spigot 0;
#X msg 127 94 0 1;
#X msg 165 94 1 0;
#X obj 122 125 unpack 0 0;
#X obj 124 37 inlet;
#X obj 189 297 outlet;
#X obj 237 27 inlet;
#X obj 299 58 loadbang;
#X obj 124 68 route 0 1;
#X connect 1 0 3 0;
#X connect 1 0 2 0;
#X connect 2 0 8 0;
#X connect 3 0 0 0;
#X connect 4 0 6 0;
#X connect 5 0 6 0;
#X connect 6 0 3 1;
#X connect 6 1 2 1;
#X connect 7 0 11 0;
#X connect 9 0 0 0;
#X connect 10 0 4 0;
#X connect 11 0 4 0;
#X connect 11 1 5 0;
#X restore 43 143 pd togglefx;
#X obj 144 143 pix_puzzle;
#X msg 144 117 size \$1 \$1;
#X floatatom 151 76 5 0 0 0 - - - 0;
#X obj 95 57 inlet;
#X obj 157 43 inlet;
#X obj 100 103 != 1;
#X connect 1 0 2 0;
#X connect 2 0 0 0;
#X connect 2 1 3 0;
#X connect 3 0 2 2;
#X connect 4 0 3 0;
#X connect 5 0 4 0;
#X connect 6 0 8 0;
#X connect 7 0 5 0;
#X connect 8 0 2 1;
#X restore 972 212 pd puzzle_effect;
#X obj 1095 121 tgl 20 0 empty empty empty 0 -10 0 12 #fcfcfc #000000 #000000 0 1;
#X obj 1006 374 tgl 20 0 empty empty empty 0 -10 0 12 #fcfcfc #000000 #000000 0 1;
#X floatatom 1075 376 5 0 0 0 - - - 0;
#N canvas 225 340 667 458 movement_effect 0;
#X obj 42 173 outlet;
#X obj 43 117 inlet;
#N canvas 565 255 787 662 togglefx 0;
#X obj 89 290 outlet;
#X obj 36 37 inlet;
#X obj 121 172 spigot 1;
#X obj 32 245 spigot 0;
#X msg 127 94 0 1;
#X msg 165 94 1 0;
#X obj 122 125 unpack 0 0;
#X obj 124 37 inlet;
#X obj 189 297 outlet;
#X obj 237 27 inlet;
#X obj 299 58 loadbang;
#X obj 124 68 route 0 1;
#X connect 1 0 3 0;
#X connect 1 0 2 0;
#X connect 2 0 8 0;
#X connect 3 0 0 0;
#X connect 4 0 6 0;
#X connect 5 0 6 0;
#X connect 6 0 3 1;
#X connect 6 1 2 1;
#X connect 7 0 11 0;
#X connect 9 0 0 0;
#X connect 10 0 4 0;
#X connect 11 0 4 0;
#X connect 11 1 5 0;
#X restore 43 143 pd togglefx;
#X obj 95 57 inlet;
#X floatatom 322 130 3 0 100 2 lo_threshold - - 0;
#X obj 321 146 / 100;
#X obj 278 172 pix_movement2;
#X floatatom 376 151 3 0 100 2 threshold - - 0;
#X obj 375 167 / 100;
#X obj 277 64 pix_2grey;
#X obj 108 103 != 1;
#X connect 1 0 2 0;
#X connect 2 0 0 0;
#X connect 2 1 9 0;
#X connect 3 0 10 0;
#X connect 4 0 5 0;
#X connect 5 0 6 1;
#X connect 6 0 2 2;
#X connect 7 0 8 0;
#X connect 8 0 6 2;
#X connect 9 0 6 0;
#X connect 10 0 2 1;
#X restore 972 145 pd movement_effect;
#N canvas 425 264 544 372 lumaofset_effect 0;
#X obj 42 173 outlet;
#X obj 43 117 inlet;
#N canvas 565 255 787 662 togglefx 0;
#X obj 89 290 outlet;
#X obj 36 37 inlet;
#X obj 121 172 spigot 1;
#X obj 32 245 spigot 0;
#X msg 127 94 0 1;
#X msg 165 94 1 0;
#X obj 122 125 unpack 0 0;
#X obj 124 37 inlet;
#X obj 189 297 outlet;
#X obj 237 27 inlet;
#X obj 299 58 loadbang;
#X obj 124 68 route 0 1;
#X connect 1 0 3 0;
#X connect 1 0 2 0;
#X connect 2 0 8 0;
#X connect 3 0 0 0;
#X connect 4 0 6 0;
#X connect 5 0 6 0;
#X connect 6 0 3 1;
#X connect 6 1 2 1;
#X connect 7 0 11 0;
#X connect 9 0 0 0;
#X connect 10 0 4 0;
#X connect 11 0 4 0;
#X connect 11 1 5 0;
#X restore 43 143 pd togglefx;
#X obj 95 57 inlet;
#X obj 157 43 inlet;
#X obj 201 171 pix_lumaoffset;
#X floatatom 246 113 5 0 0 2 offset - - 0;
#X floatatom 294 116 5 0 0 2 gap - - 0;
#X obj 283 133 tgl 15 0 empty empty empty 0 -6 0 8 #fcfcfc #000000 #000000 0 1;
#X msg 283 151 smooth \$1;
#X msg 215 150 fill \$1;
#X obj 215 132 tgl 15 0 empty empty empty 0 -6 0 8 #fcfcfc #000000 #000000 0 1;
#X obj 210 45 inlet;
#X obj 266 44 inlet;
#X obj 108 103 != 1;
#X connect 1 0 2 0;
#X connect 2 0 0 0;
#X connect 2 1 5 0;
#X connect 3 0 14 0;
#X connect 4 0 11 0;
#X connect 5 0 2 2;
#X connect 6 0 5 1;
#X connect 7 0 5 2;
#X connect 8 0 9 0;
#X connect 9 0 5 0;
#X connect 10 0 5 0;
#X connect 11 0 10 0;
#X connect 12 0 6 0;
#X connect 13 0 7 0;
#X connect 14 0 2 1;
#X restore 976 401 pd lumaofset_effect;
#X obj 1043 368 tgl 20 0 empty empty empty 0 -10 0 12 #fcfcfc #000000 #000000 0 1;
#X obj 1014 450 tgl 20 0 empty empty empty 0 -10 0 12 #fcfcfc #000000 #000000 0 1;
#N canvas 743 479 450 300 gain_effect 0;
#X obj 42 173 outlet;
#X obj 43 117 inlet;
#N canvas 569 279 787 662 togglefx 0;
#X obj 89 290 outlet;
#X obj 36 37 inlet;
#X obj 121 172 spigot 1;
#X obj 32 245 spigot 0;
#X msg 127 94 0 1;
#X msg 165 94 1 0;
#X obj 122 125 unpack 0 0;
#X obj 124 37 inlet;
#X obj 189 297 outlet;
#X obj 237 27 inlet;
#X obj 299 58 loadbang;
#X obj 124 68 route 0 1;
#X connect 1 0 3 0;
#X connect 1 0 2 0;
#X connect 2 0 8 0;
#X connect 3 0 0 0;
#X connect 4 0 6 0;
#X connect 5 0 6 0;
#X connect 6 0 3 1;
#X connect 6 1 2 1;
#X connect 7 0 11 0;
#X connect 9 0 0 0;
#X connect 10 0 4 0;
#X connect 11 0 4 0;
#X connect 11 1 5 0;
#X restore 43 143 pd togglefx;
#X floatatom 151 76 5 0 0 0 - - - 0;
#X obj 95 57 inlet;
#X obj 157 43 inlet;
#X obj 142 177 pix_gain;
#X msg 267 124 saturate \$1;
#X obj 272 94 tgl 18 0 empty empty empty 0 -9 0 10 #fcfcfc #000000 #000000 0 1;
#X obj 97 103 != 1;
#X connect 1 0 2 0;
#X connect 2 0 0 0;
#X connect 2 1 6 0;
#X connect 3 0 6 1;
#X connect 4 0 9 0;
#X connect 5 0 3 0;
#X connect 6 0 2 2;
#X connect 7 0 6 0;
#X connect 8 0 7 0;
#X connect 9 0 2 1;
#X restore 975 489 pd gain_effect;
#X obj 1072 458 / 10;
#X obj 1025 183 tgl 20 0 empty empty empty 0 -10 0 12 #fcfcfc #000000 #000000 0 1;
#X floatatom 1072 433 5 0 0 0 - - - 0;
#X obj 160 138 separator;
#X floatatom 1081 187 5 0 0 0 - - - 0;
#X obj 422 346 tgl 19 0 empty empty empty 0 -10 0 12 #fcfcfc #000000 #000000 0 1;
#X msg 379 316 4;
#X obj 369 221 bng 20 250 50 0 empty empty empty 0 -10 0 12 #fcfcfc #000000 #000000;
#X obj 375 252 i;
#X floatatom 375 275 5 0 0 0 - - - 0;
#X obj 408 250 + 1;
#X obj 430 294 loadbang;
#X msg 430 319 1;
#X obj 1008 542 tgl 20 0 empty empty empty 0 -10 0 12 #fcfcfc #000000 #000000 0 1;
#N canvas 384 200 798 473 time_filtering 0;
#X obj 42 173 outlet;
#X obj 43 117 inlet;
#N canvas 569 279 787 662 togglefx 0;
#X obj 89 290 outlet;
#X obj 36 37 inlet;
#X obj 121 172 spigot 1;
#X obj 32 245 spigot 0;
#X msg 127 94 0 1;
#X msg 165 94 1 0;
#X obj 122 125 unpack 0 0;
#X obj 124 37 inlet;
#X obj 189 297 outlet;
#X obj 237 27 inlet;
#X obj 299 58 loadbang;
#X obj 124 68 route 0 1;
#X connect 1 0 3 0;
#X connect 1 0 2 0;
#X connect 2 0 8 0;
#X connect 3 0 0 0;
#X connect 4 0 6 0;
#X connect 5 0 6 0;
#X connect 6 0 3 1;
#X connect 6 1 2 1;
#X connect 7 0 11 0;
#X connect 9 0 0 0;
#X connect 10 0 4 0;
#X connect 11 0 4 0;
#X connect 11 1 5 0;
#X restore 43 143 pd togglefx;
#X obj 95 57 inlet;
#X obj 195 60 inlet;
#X floatatom 198 178 5 0 0 0 - - - 0;
#X obj 185 228 pix_tIIR 2 2;
#X obj 198 198 * 0.01;
#X obj 198 133 unpack 30 60 10 50 50 -20;
#X floatatom 247 178 5 0 0 0 - - - 0;
#X obj 247 198 * 0.01;
#X floatatom 294 178 5 0 0 0 - - - 0;
#X obj 294 198 * 0.01;
#X floatatom 343 178 5 0 0 0 - - - 0;
#X obj 343 198 * 0.01;
#X floatatom 390 178 5 0 0 0 - - - 0;
#X obj 390 198 * 0.01;
#X floatatom 439 178 5 0 0 0 - - - 0;
#X obj 439 198 * 0.01;
#X msg 198 87 bang;
#X obj 198 109 pack 30 60 10 50 50 -20;
#X obj 264 40 inlet;
#X obj 307 40 inlet;
#X obj 349 39 inlet;
#X obj 392 39 inlet;
#X obj 435 39 inlet;
#X obj 478 39 inlet;
#X obj 108 103 != 1;
#X connect 1 0 2 0;
#X connect 2 0 0 0;
#X connect 2 1 6 0;
#X connect 3 0 27 0;
#X connect 4 0 19 0;
#X connect 5 0 7 0;
#X connect 6 0 2 2;
#X connect 7 0 6 1;
#X connect 8 0 5 0;
#X connect 8 1 9 0;
#X connect 8 2 11 0;
#X connect 8 3 13 0;
#X connect 8 4 15 0;
#X connect 8 5 17 0;
#X connect 9 0 10 0;
#X connect 10 0 6 2;
#X connect 11 0 12 0;
#X connect 12 0 6 3;
#X connect 13 0 14 0;
#X connect 14 0 6 4;
#X connect 15 0 16 0;
#X connect 16 0 6 5;
#X connect 17 0 18 0;
#X connect 18 0 6 6;
#X connect 19 0 20 0;
#X connect 20 0 8 0;
#X connect 21 0 5 0;
#X connect 22 0 9 0;
#X connect 23 0 11 0;
#X connect 24 0 13 0;
#X connect 25 0 15 0;
#X connect 26 0 17 0;
#X connect 27 0 2 1;
#X restore 972 577 pd time_filtering;
#X f 48;
#X floatatom 1093 547 5 0 0 0 - - - 0;
#X floatatom 1136 552 5 0 0 0 - - - 0;
#X floatatom 1177 528 5 0 0 0 - - - 0;
#X floatatom 1218 551 5 0 0 0 - - - 0;
#X floatatom 1259 527 5 0 0 0 - - - 0;
#X floatatom 1301 546 5 0 0 0 - - - 0;
#X obj 1051 545 bng 19 250 50 0 empty empty empty 0 -10 0 12 #fcfcfc #000000 #000000;
#N canvas 0 44 1470 830 particle_system 0;
#X obj 103 160 part_head;
#X text 327 187 the velocity domain;
#X text 326 202 a sphere at 0 \, 0.2 \, 0;
#X text 327 221 radius = 0.3;
#X msg 302 247 0 0.2 0 0.3;
#X msg 413 247 0.2 0 0 0.3;
#X obj 107 410 part_render;
#X obj 107 208 part_size 1;
#X msg 197 185 2;
#X obj 107 284 part_color;
#X msg 130 230 1 0 0;
#X obj 107 341 part_source 5;
#X msg 142 258 0 1 0;
#X msg 167 184 1;
#X obj 107 311 part_velocity sphere 0 0.02 0 0.03;
#X obj 107 372 part_killold 100;
#X obj 105 564 pix_texture;
#X floatatom 611 811 5 0 0 0 - - - 0;
#X obj 611 833 / 100;
#X obj 535 870 cube 0.1, f 12;
#X msg 603 923 draw line;
#X msg 610 946 draw fill;
#X msg 616 967 draw point;
#X obj 112 124 separator;
#X obj 173 -51 inlet;
#X text 433 310 <domain>: one of "point" \, "line" \, "triangle" \, "plane" \, "box" \, "sphere" \, "cylinder" \, "cone" \, "blob" \, "disc" \, "rectangle";
#X text 432 351 <arguments>: up to 9 floats \, defining the specified domain (like "x y z" for "point" \, "x1 y1 z1 x2 y2 z2" for "line" \, "x y z r" for "sphere" \, ...). The meaning of the arguments depends -of course- on the domain.;
#X msg 548 105 symbol sphere;
#X msg 536 229 0 0.1 0 0.1;
#X msg 535 203 0.1 -0.1 0 0.05;
#X text 535 187 arguments;
#X obj 560 704 rotateXYZ 0 0 90;
#X obj 586 553 metro 11;
#X obj 586 466 tgl 20 0 empty empty empty 0 -10 0 12 #fcfcfc #000000 #000000 0 1;
#N canvas 117 666 450 300 movement 0;
#X obj 39 113 i;
#X obj 81 112 + 1;
#X obj 36 230 outlet;
#X obj 28 29 inlet;
#X connect 0 0 1 0;
#X connect 0 0 2 0;
#X connect 1 0 0 1;
#X connect 3 0 0 0;
#X restore 591 597 pd movement;
#N canvas 117 666 450 300 movement 0;
#X obj 39 113 i;
#X obj 81 112 + 1;
#X obj 36 230 outlet;
#X obj 28 29 inlet;
#X connect 0 0 1 0;
#X connect 0 0 2 0;
#X connect 1 0 0 1;
#X connect 3 0 0 0;
#X restore 625 623 pd movement;
#N canvas 117 666 450 300 movement 0;
#X obj 39 113 i;
#X obj 81 112 + 1;
#X obj 36 230 outlet;
#X obj 28 29 inlet;
#X connect 0 0 1 0;
#X connect 0 0 2 0;
#X connect 1 0 0 1;
#X connect 3 0 0 0;
#X restore 660 656 pd movement;
#X floatatom 685 519 5 0 0 0 - - - 0;
#X msg 561 136 symbol cone;
#X obj 889 295 i;
#X obj 931 294 + 1;
#X obj 877 168 bng 20 250 50 0 empty empty empty 0 -10 0 12 #fcfcfc #000000 #000000;
#X floatatom 888 321 5 0 0 0 - - - 0;
#X obj 888 345 % 3;
#X floatatom 888 376 5 0 0 0 - - - 0;
#X obj 888 400 sel 0 1 2, f 24;
#X obj 869 446 bng 20 250 50 0 empty empty empty 0 -10 0 12 #fcfcfc #000000 #000000;
#X obj 932 469 bng 20 250 50 0 empty empty empty 0 -10 0 12 #fcfcfc #000000 #000000;
#X obj 997 464 bng 20 250 50 0 empty empty empty 0 -10 0 12 #fcfcfc #000000 #000000;
#X obj 869 99 inlet;
#X obj 191 35 inlet;
#X obj 150 81 spigot;
#X msg 291 453 open textures/3.png;
#X msg 283 482 open textures/2.png;
#X msg 282 512 open textures/1.png;
#X obj 104 475 pix_image textures/1.png;
#X obj 370 812 outlet;
#X obj 703 829 loadbang;
#X obj 1156 472 inlet;
#X connect 0 0 7 0;
#X connect 4 0 14 2;
#X connect 5 0 14 2;
#X connect 6 0 55 0;
#X connect 6 0 19 0;
#X connect 7 0 9 0;
#X connect 8 0 7 1;
#X connect 9 0 14 0;
#X connect 10 0 9 1;
#X connect 11 0 15 0;
#X connect 12 0 9 2;
#X connect 13 0 7 1;
#X connect 14 0 11 0;
#X connect 15 0 6 0;
#X connect 16 0 31 0;
#X connect 17 0 18 0;
#X connect 18 0 19 1;
#X connect 20 0 19 0;
#X connect 21 0 19 0;
#X connect 22 0 19 0;
#X connect 23 0 0 0;
#X connect 24 0 51 0;
#X connect 27 0 14 1;
#X connect 28 0 14 2;
#X connect 31 0 56 0;
#X connect 31 0 19 0;
#X connect 32 0 34 0;
#X connect 32 0 35 0;
#X connect 32 0 36 0;
#X connect 33 0 32 0;
#X connect 34 0 31 1;
#X connect 35 0 31 2;
#X connect 36 0 31 3;
#X connect 37 0 32 1;
#X connect 38 0 14 1;
#X connect 39 0 40 0;
#X connect 39 0 42 0;
#X connect 40 0 39 1;
#X connect 41 0 39 0;
#X connect 42 0 43 0;
#X connect 43 0 44 0;
#X connect 44 0 45 0;
#X connect 45 0 46 0;
#X connect 45 1 47 0;
#X connect 45 2 48 0;
#X connect 46 0 52 0;
#X connect 47 0 53 0;
#X connect 48 0 54 0;
#X connect 49 0 41 0;
#X connect 50 0 51 1;
#X connect 50 0 33 0;
#X connect 51 0 23 0;
#X connect 52 0 53 0;
#X connect 52 0 55 0;
#X connect 53 0 55 0;
#X connect 54 0 55 0;
#X connect 55 0 16 0;
#X connect 57 0 20 0;
#X connect 58 0 17 0;
#X restore 148 246 pd particle_system;
#X obj 211 221 tgl 20 0 empty empty empty 0 -10 0 12 #fcfcfc #000000 #000000 0 1;
#X obj 296 223 bng 20 250 50 0 empty empty empty 0 -10 0 12 #fcfcfc #000000 #000000;
#X obj 149 169 separator;
#X obj 1133 206 else/drunkard 1 0 999;
#X obj 1137 174 metro 11;
#X obj 1139 145 tgl 19 0 empty empty empty 0 -10 0 12 #fcfcfc #000000 #000000 0 1;
#X obj 147 196 rotateXYZ 0 0 90;
#X obj 354 370 video, f 15;
#X obj 1215 44 loadbang;
#X obj 239 144 loadbang;
#X msg 239 168 1;
#X floatatom 1119 377 5 0 0 0 - - - 0;
#X obj 125 288 separator;
#X msg 1214 69 0;
#X obj 873 1116 pix_texture;
#X obj 876 1153 rectangle 5.36 4.02, f 23;
#X floatatom 968 1096 5 0 0 0 - - - 0;
#X floatatom 1029 1099 5 0 0 0 - - - 0;
#X obj 968 1120 / 10;
#X obj 1026 1120 / 10;
#X obj 980 1067 unpack 0 0;
#X msg 982 1043 27 39;
#X obj 985 1017 loadbang;
#X obj 254 1043 square 4;
#X obj 253 1014 translateXYZ 0 0 0;
#X obj 124 94 alien_visuals;
#X obj 257 578 glsl_fragment;
#X obj 257 740 glsl_program;
#X msg 282 609 print;
#X obj 332 609 change;
#X msg 332 636 link \$1;
#X obj 332 511 loadbang;
#X text 390 637 link the fragment shader id;
#X text 348 578 load the fragment shader;
#X text 344 742 run the shader program;
#X obj 707 620 metro 33;
#X obj 706 599 tgl 15 0 empty empty empty 17 7 0 10 #fcfcfc #000000 #000000 0 1;
#X floatatom 707 666 5 0 0 0 - - - 0;
#X obj 708 643 f;
#X obj 737 643 + 1;
#X obj 766 640 % 300;
#X obj 707 688 / 10;
#X obj 708 572 loadbang;
#X msg 534 457 a \$1;
#X msg 574 457 b \$1;
#X msg 608 456 c \$1;
#X floatatom 534 393 5 0 0 0 - - - 0;
#X obj 534 413 / 100;
#X floatatom 534 434 5 0 0 0 - - - 0;
#X floatatom 575 396 5 0 0 0 - - - 0;
#X obj 575 416 / 100;
#X floatatom 575 437 5 0 0 0 - - - 0;
#X floatatom 618 395 5 0 0 0 - - - 0;
#X obj 618 415 / 100;
#X floatatom 618 436 5 0 0 0 - - - 0;
#X msg 706 711 iTime \$1;
#X floatatom 663 393 5 0 0 0 - - - 0;
#X obj 663 413 / 100;
#X floatatom 663 434 5 0 0 0 - - - 0;
#X msg 653 454 d \$1;
#X floatatom 705 392 5 0 0 0 - - - 0;
#X obj 705 412 / 100;
#X floatatom 705 433 5 0 0 0 - - - 0;
#X floatatom 746 395 5 0 0 0 - - - 0;
#X obj 746 415 / 100;
#X floatatom 746 436 5 0 0 0 - - - 0;
#X floatatom 789 394 5 0 0 0 - - - 0;
#X obj 789 414 / 100;
#X floatatom 789 435 5 0 0 0 - - - 0;
#X floatatom 834 392 5 0 0 0 - - - 0;
#X obj 834 412 / 100;
#X floatatom 834 433 5 0 0 0 - - - 0;
#X msg 705 456 e \$1;
#X msg 745 456 f \$1;
#X msg 779 455 g \$1;
#X msg 824 453 h \$1;
#X msg 705 749 iResolution 500 500;
#X floatatom 408 507 6 1 42 0 - - - 0;
#X msg 551 331 0;
#X floatatom 371 985 5 0 0 0 - - - 0;
#X msg 421 482 1;
#X msg 391 935 1;
#X msg 352 935 -1;
#X text 345 908 show hide shader;
#X obj 973 638 pix_texture;
#X obj 973 660 rectangle 5.36 4.02;
#X obj 10 25 declare -lib Gem;
#X obj 595 62 inlet;
#X obj 595 86 bng 19 250 50 0 empty empty empty 0 -10 0 12 #fcfcfc #000000 #000000;
#X obj 696 58 inlet;
#X obj 696 82 bng 19 250 50 0 empty empty empty 0 -10 0 12 #fcfcfc #000000 #000000;
#X obj 352 160 random 100;
#X obj 893 533 random 100;
#X floatatom 140 548 5 0 0 0 - - - 0;
#X obj 131 496 random 100;
#X obj 54 640 translateXYZ 0 0 0;
#X obj 55 670 cube 1;
#X obj 131 520 / 80;
#X obj 57 604 rotateXYZ 0 0 0;
#X msg 332 540 open alien_shaders/\$1.frag;
#X connect 1 0 6 0;
#X connect 2 0 5 1;
#X connect 3 0 6 1;
#X connect 4 0 6 3;
#X connect 5 0 1 0;
#X connect 6 0 9 0;
#X connect 7 0 6 2;
#X connect 8 0 9 1;
#X connect 9 0 24 0;
#X connect 10 0 9 2;
#X connect 11 0 1 1;
#X connect 12 0 10 0;
#X connect 13 0 35 0;
#X connect 14 0 1 2;
#X connect 15 0 40 2;
#X connect 16 0 40 1;
#X connect 17 0 18 0;
#X connect 18 0 19 0;
#X connect 18 0 20 0;
#X connect 19 0 40 1;
#X connect 20 0 18 1;
#X connect 21 0 22 0;
#X connect 22 0 15 0;
#X connect 23 0 24 1;
#X connect 23 0 31 0;
#X connect 24 0 117 0;
#X connect 25 0 24 3;
#X connect 26 0 24 4;
#X connect 27 0 24 5;
#X connect 28 0 24 6;
#X connect 29 0 24 7;
#X connect 30 0 24 8;
#X connect 31 0 24 2;
#X connect 33 0 32 1;
#X connect 34 0 32 2;
#X connect 35 0 39 0;
#X connect 36 0 14 0;
#X connect 37 0 36 0;
#X connect 38 0 37 0;
#X connect 39 0 32 0;
#X connect 40 0 17 0;
#X connect 41 0 46 0;
#X connect 42 0 43 0;
#X connect 43 0 33 0;
#X connect 44 0 6 4;
#X connect 45 0 40 0;
#X connect 45 0 59 0;
#X connect 45 0 131 0;
#X connect 46 0 2 0;
#X connect 46 0 11 0;
#X connect 46 0 3 0;
#X connect 46 0 8 0;
#X connect 46 0 23 0;
#X connect 47 0 48 0;
#X connect 49 0 51 0;
#X connect 50 0 52 0;
#X connect 51 0 48 1;
#X connect 52 0 48 2;
#X connect 53 0 49 0;
#X connect 53 1 50 0;
#X connect 54 0 53 0;
#X connect 55 0 54 0;
#X connect 57 0 56 0;
#X connect 58 0 45 0;
#X connect 58 0 13 0;
#X connect 58 1 5 0;
#X connect 59 0 60 0;
#X connect 59 1 62 0;
#X connect 60 0 57 0;
#X connect 61 0 60 0;
#X connect 62 0 63 0;
#X connect 63 0 60 0;
#X connect 64 0 132 0;
#X connect 64 0 109 0;
#X connect 64 0 113 0;
#X connect 68 0 71 0;
#X connect 69 0 68 0;
#X connect 70 0 74 0;
#X connect 71 0 72 0;
#X connect 71 0 70 0;
#X connect 72 0 73 0;
#X connect 73 0 71 1;
#X connect 74 0 88 0;
#X connect 75 0 69 0;
#X connect 76 0 60 0;
#X connect 77 0 60 0;
#X connect 78 0 60 0;
#X connect 79 0 80 0;
#X connect 80 0 81 0;
#X connect 81 0 76 0;
#X connect 82 0 83 0;
#X connect 83 0 84 0;
#X connect 84 0 77 0;
#X connect 85 0 86 0;
#X connect 86 0 87 0;
#X connect 87 0 78 0;
#X connect 88 0 60 0;
#X connect 89 0 90 0;
#X connect 90 0 91 0;
#X connect 91 0 92 0;
#X connect 92 0 60 0;
#X connect 93 0 94 0;
#X connect 94 0 95 0;
#X connect 95 0 105 0;
#X connect 96 0 97 0;
#X connect 97 0 98 0;
#X connect 98 0 106 0;
#X connect 99 0 100 0;
#X connect 100 0 101 0;
#X connect 101 0 107 0;
#X connect 102 0 103 0;
#X connect 103 0 104 0;
#X connect 104 0 108 0;
#X connect 105 0 60 0;
#X connect 106 0 60 0;
#X connect 107 0 60 0;
#X connect 108 0 60 0;
#X connect 109 0 60 0;
#X connect 110 0 132 0;
#X connect 111 0 79 0;
#X connect 111 0 82 0;
#X connect 111 0 85 0;
#X connect 111 0 89 0;
#X connect 111 0 93 0;
#X connect 111 0 96 0;
#X connect 111 0 99 0;
#X connect 111 0 102 0;
#X connect 112 0 57 3;
#X connect 113 0 110 0;
#X connect 114 0 112 0;
#X connect 115 0 112 0;
#X connect 117 0 118 0;
#X connect 120 0 121 0;
#X connect 121 0 23 0;
#X connect 122 0 123 0;
#X connect 123 0 33 0;
#X connect 123 0 124 0;
#X connect 123 0 125 0;
#X connect 123 0 127 0;
#X connect 124 0 39 3;
#X connect 125 0 25 0;
#X connect 126 0 129 1;
#X connect 127 0 130 0;
#X connect 127 0 131 1;
#X connect 128 0 129 0;
#X connect 130 0 126 0;
#X connect 131 0 128 0;
#X connect 132 0 59 0;
#X restore 251 794 pd visuals;
#N canvas 589 50 454 304 gemwin 0;
#X obj 132 136 gemwin;
#X obj 67 89 outlet;
#X obj 67 10 inlet;
#X obj 67 41 route create;
#X msg 67 70 set destroy;
#X msg 182 68 set create;
#X msg 132 112 create \, 1;
#X msg 238 112 destroy;
#N canvas 91 178 247 179 Gem.init 0;
#X obj 59 26 loadbang;
#X msg 118 81 reset;
#X obj 118 113 outlet;
#X obj 59 45 t b b;
#X connect 0 0 3 0;
#X connect 1 0 2 0;
#X connect 3 1 1 0;
#X restore 289 80 pd Gem.init;
#X msg 114 205 reset \, dimen 1200 1100 \, create \, 1;
#X obj 180 13 inlet;
#X connect 2 0 3 0;
#X connect 3 0 4 0;
#X connect 3 0 6 0;
#X connect 3 1 5 0;
#X connect 3 1 7 0;
#X connect 4 0 1 0;
#X connect 5 0 1 0;
#X connect 6 0 0 0;
#X connect 7 0 0 0;
#X connect 8 0 0 0;
#X connect 9 0 0 0;
#X connect 10 0 9 0;
#X restore 25 627 pd gemwin;
#X msg 44 596 destroy;
#X msg 27 565 create;
#X obj 27 75 catch~ drums;
#X obj 364 90 s clock1;
#X obj 328 119 bng 19 250 50 0 empty empty empty 0 -10 0 12 #fcfcfc #000000 #000000;
#X obj 362 64 metro 111;
#N canvas 117 254 635 510 8bar_selekta 0;
#X obj 149 115 i;
#X obj 187 117 + 1;
#X floatatom 147 139 5 0 0 0 - - - 0;
#X obj 144 192 sel 1;
#X obj 146 220 bng 19 250 50 0 empty empty empty 0 -10 0 12 #fcfcfc #000000 #000000;
#X obj 142 247 i;
#X obj 180 249 + 1;
#X floatatom 144 278 5 0 0 0 - - - 0;
#X obj 141 301 % 2;
#X obj 139 327 sel 0 1;
#X obj 154 30 inlet;
#X obj 181 431 outlet;
#X obj 111 431 outlet;
#X obj 147 163 % 64;
#X connect 0 0 1 0;
#X connect 0 0 2 0;
#X connect 1 0 0 1;
#X connect 2 0 13 0;
#X connect 3 0 4 0;
#X connect 4 0 5 0;
#X connect 5 0 6 0;
#X connect 5 0 7 0;
#X connect 6 0 5 1;
#X connect 7 0 8 0;
#X connect 8 0 9 0;
#X connect 9 0 12 0;
#X connect 9 1 11 0;
#X connect 10 0 0 0;
#X connect 13 0 3 0;
#X restore 304 275 pd 8bar_selekta;
#X f 94;
#X text 26 39 pulse X - youngstar;
#X text 27 17 a faithful (ish) redition of;
#X obj 120 120 catch~ bass;
#N canvas 682 276 549 450 random_reverse 0;
#X obj 171 222 else/revdelay~ 111;
#X obj 170 287 *~;
#X obj 188 261 tgl 19 0 empty empty empty 0 -10 0 12 #fcfcfc #000000 #000000 0 1;
#X obj 157 108 random 100;
#X obj 157 156 sel 1;
#X obj 193 185 pipe 3000;
#X obj 157 132 > 80;
#X obj 152 82 inlet;
#X obj 25 72 inlet~;
#X obj 170 311 outlet~;
#X connect 0 0 1 0;
#X connect 1 0 9 0;
#X connect 2 0 1 1;
#X connect 3 0 6 0;
#X connect 4 0 2 0;
#X connect 4 0 5 0;
#X connect 5 0 2 0;
#X connect 6 0 4 0;
#X connect 7 0 3 0;
#X connect 8 0 0 0;
#X restore 66 343 pd random_reverse;
#X obj 46 837 throw~ drums;
#X obj 442 780 alien_monosynth~;
#X obj 424 824 throw~ bass;
#X obj 424 752 heavybass~;
#X obj 422 674 else/sequencer;
#X obj 423 650 r clock1;
#X floatatom 298 451 5 0 0 0 - - - 0;
#X floatatom 431 411 5 0 0 0 - - - 0;
#X obj 432 389 random 100;
#X obj 301 426 random 100;
#X obj 301 303 bng 19 250 50 0 empty empty empty 0 -10 0 12 #fcfcfc #000000 #000000;
#X obj 299 330 t b b b b, f 58;
#X msg 704 353 \; all (seq -);
#X listbox 529 606 98 0 0 0 - - - 0;
#X obj 215 667 r clock1;
#X floatatom 816 523 5 0 0 0 - - - 0;
#X floatatom 1375 371 5 0 0 0 - - - 0;
#X floatatom 1062 423 5 0 0 0 - - - 0;
#X floatatom 1205 373 5 0 0 0 - - - 0;
#X obj 1376 344 random 100;
#X obj 813 499 random 100;
#X obj 1203 346 random 100;
#X obj 1062 395 random 100;
#X msg 1665 397 \; all (seq -);
#X msg 568 394 \; bassline (seq 30 - - - - - - - - - 30 - - - - -);
#X obj 515 649 alien bassline;
#X msg 1523 341 \; bassline (seq (rep (seq 31 31 - - 30 30 - - (rep - 8)) 3) (rep (seq 31 31 - - 30 30 - -) 2)), f 90;
#X obj 955 316 t b b b b b b, f 102;
#X obj 953 293 bng 19 250 50 0 empty empty empty 0 -10 0 12 #fcfcfc #000000 #000000;
#X listbox 181 812 78 0 0 0 - - - 0;
#X listbox 241 840 20 0 0 0 - - - 0;
#X listbox 312 864 40 0 0 0 - - - 0;
#X listbox 392 837 35 0 0 0 - - - 0;
#X floatatom 985 865 5 0 0 0 - - - 0;
#X floatatom 1403 728 5 0 0 0 - - - 0;
#X floatatom 1121 825 5 0 0 0 - - - 0;
#X floatatom 1264 775 5 0 0 0 - - - 0;
#X obj 1404 701 random 100;
#X obj 982 841 random 100;
#X obj 1262 748 random 100;
#X obj 1121 797 random 100;
#X msg 1693 754 \; all (seq -);
#X msg 1551 698 \; bassline (seq (rep (seq 31 31 - - 30 30 - - (rep - 8)) 3) (rep (seq 31 31 - - 30 30 - -) 2)), f 90;
#X obj 983 673 t b b b b b b, f 102;
#X obj 983 628 bng 19 250 50 0 empty empty empty 0 -10 0 12 #fcfcfc #000000 #000000;
#X obj 228 212 loadbang;
#X obj 257 736 _ hihat;
#X obj 192 735 _ snare;
#X obj 139 735 _ kick;
#X msg 431 436 \; hihat (seq (rep - 4) (rep \$1 4) (rep - 4) \$1 (rep - 3));
#X msg 296 477 \; clap (seq (rep - 4) \$1 (rep - 2) \$1 (rep - 8));
#X msg 1055 448 \; clap (seq (rep - 4) \$1 (rep - 2) \$1 (rep - 8) );
#X msg 1265 801 \; hihat (seq - - \$1 - );
#X msg 1114 850 \; clap (seq (rep - 4) \$1 (rep - 2) \$1 (rep - 8) );
#X msg 1206 399 \; hihat (seq - - \$1 - );
#X msg 1375 398 \; snare (speed (seq - - \$1 - ) 2);
#X msg 1109 527 \; kick (speed (seq \$1 (rep - 4) \$1 (rep - 2)) 2);
#X msg 983 889 \; kick (speed (seq \$1 - - -) 2);
#X msg 1403 755 \; snare (speed (seq - - \$1 - ) 2);
#X obj 821 634 s kick;
#X msg 820 550 (seq \$1 (rep - 4) \$1 (rep - 2));
#X floatatom 941 487 5 0 0 0 - - - 0;
#X msg 944 526 (speed _ \$1);
#X obj 820 578 alien_wrap (speed _ 2);
#X obj 820 600 alien_wrap (grow _);
#X obj 259 634 alien_join 3;
#X obj 323 737 _ clap;
#X msg 257 560 (seq - - 1 - 2 - - 3);
#X msg 338 610 (seq - - 7 - 8 - 9);
#X msg 298 585 (seq 4 - - 5 6);
#X obj 128 75 declare -path ./lib;
#X obj 132 95 declare -lib else;
#X obj 446 164 m-murky~;
#X obj 445 137 bng 19 250 50 0 empty empty empty 0 -10 0 12 #fcfcfc #000000 #000000;
#X obj 726 182 m-noiseburst~;
#X obj 730 155 bng 19 250 50 0 empty empty empty 0 -10 0 12 #fcfcfc #000000 #000000;
#X floatatom 626 -37 5 0 0 0 - - - 0;
#X obj 621 -13 squarepoly~;
#X obj 567 -181 else/sequencer;
#X obj 568 -205 r clock1;
#X obj 660 -206 alien p1;
#X obj 622 -98 pack 0 0 0 0, f 71;
#X obj 730 -179 else/sequencer;
#X obj 731 -203 r clock1;
#X obj 823 -204 alien p2;
#X obj 891 -179 else/sequencer;
#X obj 892 -203 r clock1;
#X obj 984 -204 alien p3;
#X obj 1056 -177 else/sequencer;
#X obj 1057 -201 r clock1;
#X obj 1149 -202 alien p4;
#X msg 622 -74 \$1 \, \$2 \, \$3 \, \$4;
#X obj 569 -151 alien_scale 0 2 4 5 7 9 11;
#X obj 890 -153 alien_scale 0 2 4 5 7 9 11;
#X obj 1062 -126 alien_scale 0 2 4 5 7 9 11;
#X obj 1172 17 bng 19 250 50 0 empty empty empty 0 -10 0 12 #fcfcfc #000000 #000000;
#X obj 1172 41 t b b b b;
#X obj 737 -127 alien_scale 0 2 4 5 7 9 11;
#X obj 600 45 else/filterdelay~ 600 0.5;
#X floatatom 673 20 6 0 0 0 - - - 0;
#X floatatom 747 20 8 0 0 0 - - - 0;
#X text 611 20 time (ms);
#X text 726 19 fb;
#X obj 425 715 alien_scale 0 2 4 5 7 9 11;
#X msg 859 21 0 3 5 7;
#X msg 489 43 111;
#X obj 893 83 s scale;
#X obj 1234 -152 r scale;
#X obj 621 673 r scale;
#X msg 1053 15 0 3 5 7 9;
#X msg 931 20 0 2 3;
#X msg 983 22 5 6 7 9;
#X obj 484 75 * 3;
#X obj 898 -49 random 4;
#X obj 898 -24 sel 1 2 3 4;
#X msg 942 129 \; p4 (speed (add (seq 5 6 7) 69) \$1);
#X msg 970 230 \; p1 (speed (add (seq 1 2 3 4 5) 60) \$1);
#X msg 1230 153 \; p3 (speed (add (seq 1 2 3 4 ) 60) \$1);
#X msg 1275 246 \; p2 (speed (add (seq 7 8 9 4) 64) \$1);
#X obj 1229 125 + 1;
#X obj 1278 199 random 5;
#X obj 1278 223 + 1;
#X obj 974 180 random 5;
#X obj 974 204 + 1;
#X obj 966 80 random 5;
#X obj 966 104 + 1;
#X msg 701 -40 111;
#X obj 1229 101 random 7;
#X obj 671 223 else/filterdelay~ 333 0.5;
#X obj 451 -55 m-piano~, f 15;
#X obj 514 -114 tgl 19 0 empty empty empty 0 -10 0 12 #fcfcfc #000000 #000000 0 1;
#X obj 450 -83 makenote 120 5;
#X obj 451 -31 *~ 0.3;
#X obj 581 778 m-acid;
#X obj 756 712 s filterScale;
#X floatatom 755 690 5 0 0 0 - - - 0;
#X floatatom 756 738 5 0 0 0 - - - 0;
#X obj 756 763 s filterOffset;
#X floatatom 759 902 5 0 0 0 - - - 0;
#X obj 760 925 s decayTime;
#X floatatom 756 789 5 0 0 0 - - - 0;
#X obj 756 814 s filterTime;
#X floatatom 757 840 5 0 0 0 - - - 0;
#X obj 757 863 s filterResonance;
#X obj 530 81 random 6;
#X obj 746 -34 random 111;
#X connect 0 0 10 0;
#X connect 5 0 4 0;
#X connect 6 0 4 0;
#X connect 7 0 1 0;
#X connect 7 0 15 0;
#X connect 9 0 11 0;
#X connect 10 0 8 0;
#X connect 10 0 9 0;
#X connect 11 0 26 0;
#X connect 11 1 44 0;
#X connect 14 0 1 0;
#X connect 15 0 1 0;
#X connect 17 0 18 0;
#X connect 19 0 18 0;
#X connect 20 0 119 0;
#X connect 21 0 20 0;
#X connect 22 0 66 0;
#X connect 23 0 65 0;
#X connect 24 0 23 0;
#X connect 25 0 22 0;
#X connect 26 0 27 0;
#X connect 26 0 129 0;
#X connect 26 0 111 0;
#X connect 26 0 89 0;
#X connect 26 0 91 0;
#X connect 26 0 160 0;
#X connect 27 0 25 0;
#X connect 27 1 24 0;
#X connect 27 2 40 0;
#X connect 27 3 28 0;
#X connect 30 0 64 0;
#X connect 30 0 62 0;
#X connect 30 0 63 0;
#X connect 30 0 82 0;
#X connect 31 0 76 0;
#X connect 32 0 71 0;
#X connect 33 0 67 0;
#X connect 34 0 70 0;
#X connect 35 0 32 0;
#X connect 36 0 31 0;
#X connect 37 0 34 0;
#X connect 38 0 33 0;
#X connect 41 0 20 1;
#X connect 41 0 29 0;
#X connect 43 0 36 0;
#X connect 43 1 38 0;
#X connect 43 1 111 0;
#X connect 43 2 37 0;
#X connect 43 3 35 0;
#X connect 43 4 42 0;
#X connect 43 5 39 0;
#X connect 44 0 43 0;
#X connect 49 0 73 0;
#X connect 50 0 74 0;
#X connect 51 0 69 0;
#X connect 52 0 68 0;
#X connect 53 0 50 0;
#X connect 54 0 49 0;
#X connect 55 0 52 0;
#X connect 56 0 51 0;
#X connect 59 0 54 0;
#X connect 59 1 56 0;
#X connect 59 2 55 0;
#X connect 59 3 53 0;
#X connect 59 4 58 0;
#X connect 59 5 57 0;
#X connect 60 0 59 0;
#X connect 61 0 26 0;
#X connect 61 0 142 0;
#X connect 62 0 16 0;
#X connect 62 1 47 0;
#X connect 62 2 3 1;
#X connect 63 0 16 0;
#X connect 63 1 46 0;
#X connect 64 0 16 0;
#X connect 64 1 45 0;
#X connect 64 2 3 0;
#X connect 76 0 79 0;
#X connect 77 0 78 0;
#X connect 78 0 79 1;
#X connect 79 0 80 0;
#X connect 80 0 75 0;
#X connect 81 0 82 1;
#X connect 82 0 16 0;
#X connect 82 1 48 0;
#X connect 83 0 81 0;
#X connect 84 0 81 2;
#X connect 85 0 81 1;
#X connect 88 0 1 0;
#X connect 89 0 88 0;
#X connect 90 0 144 0;
#X connect 91 0 90 0;
#X connect 92 0 93 0;
#X connect 93 0 114 0;
#X connect 94 0 108 0;
#X connect 95 0 94 0;
#X connect 96 0 94 1;
#X connect 97 0 107 0;
#X connect 98 0 113 0;
#X connect 99 0 98 0;
#X connect 100 0 98 1;
#X connect 101 0 109 0;
#X connect 102 0 101 0;
#X connect 103 0 101 1;
#X connect 104 0 110 0;
#X connect 105 0 104 0;
#X connect 106 0 104 1;
#X connect 107 0 92 0;
#X connect 107 0 147 0;
#X connect 108 0 97 0;
#X connect 109 0 97 2;
#X connect 110 0 97 3;
#X connect 111 0 112 0;
#X connect 112 0 140 0;
#X connect 112 1 143 0;
#X connect 112 2 136 0;
#X connect 112 3 138 0;
#X connect 113 0 97 1;
#X connect 114 0 1 0;
#X connect 115 0 114 1;
#X connect 116 0 114 2;
#X connect 119 0 19 0;
#X connect 119 0 17 0;
#X connect 119 0 149 0;
#X connect 120 0 122 0;
#X connect 121 0 128 0;
#X connect 123 0 110 1;
#X connect 123 0 109 1;
#X connect 123 0 113 1;
#X connect 123 0 108 1;
#X connect 124 0 119 1;
#X connect 125 0 122 0;
#X connect 126 0 122 0;
#X connect 127 0 122 0;
#X connect 128 0 115 0;
#X connect 129 0 130 0;
#X connect 130 0 120 0;
#X connect 130 1 126 0;
#X connect 130 2 127 0;
#X connect 130 3 125 0;
#X connect 135 0 133 0;
#X connect 136 0 137 0;
#X connect 138 0 139 0;
#X connect 139 0 132 0;
#X connect 140 0 141 0;
#X connect 141 0 131 0;
#X connect 142 0 93 1;
#X connect 143 0 135 0;
#X connect 144 0 1 0;
#X connect 145 0 148 0;
#X connect 146 0 145 2;
#X connect 147 0 145 0;
#X connect 147 1 145 1;
#X connect 149 0 18 0;
#X connect 151 0 150 0;
#X connect 152 0 153 0;
#X connect 154 0 155 0;
#X connect 156 0 157 0;
#X connect 158 0 159 0;
#X connect 160 0 128 1;
