#N canvas 63 97 877 505 12;
#X obj 450 192 i;
#X obj 488 194 + 1;
#X floatatom 448 216 5 0 0 0 - - - 0;
#X obj 450 263 sel 1;
#X obj 447 292 bng 19 250 50 0 empty empty empty 0 -10 0 12 #fcfcfc #000000 #000000;
#X obj 560 191 i;
#X obj 598 193 + 1;
#X floatatom 558 215 5 0 0 0 - - - 0;
#X obj 560 262 sel 1;
#X obj 549 288 bng 19 250 50 0 empty empty empty 0 -10 0 12 #fcfcfc #000000 #000000;
#X obj 675 192 i;
#X obj 713 194 + 1;
#X floatatom 673 216 5 0 0 0 - - - 0;
#X obj 675 263 sel 1;
#X obj 673 290 bng 19 250 50 0 empty empty empty 0 -10 0 12 #fcfcfc #000000 #000000;
#X obj 560 238 % 8;
#X obj 675 239 % 16;
#X obj 354 194 i;
#X obj 392 196 + 1;
#X floatatom 352 218 5 0 0 0 - - - 0;
#X obj 354 265 sel 1;
#X obj 355 294 bng 19 250 50 0 empty empty empty 0 -10 0 12 #fcfcfc #000000 #000000;
#X msg 540 95 0;
#X obj 354 241 % 2;
#X obj 450 239 % 4;
#X obj 535 70 b;
#X obj 214 320 outlet;
#X obj 350 336 outlet;
#X obj 450 338 outlet;
#X obj 549 340 outlet;
#X obj 670 337 outlet;
#X obj 244 137 inlet;
#X obj 511 31 inlet;
#X connect 0 0 1 0;
#X connect 0 0 2 0;
#X connect 1 0 0 1;
#X connect 2 0 24 0;
#X connect 3 0 4 0;
#X connect 4 0 28 0;
#X connect 5 0 6 0;
#X connect 5 0 7 0;
#X connect 6 0 5 1;
#X connect 7 0 15 0;
#X connect 8 0 9 0;
#X connect 9 0 29 0;
#X connect 10 0 11 0;
#X connect 10 0 12 0;
#X connect 11 0 10 1;
#X connect 12 0 16 0;
#X connect 13 0 14 0;
#X connect 14 0 30 0;
#X connect 15 0 8 0;
#X connect 16 0 13 0;
#X connect 17 0 18 0;
#X connect 17 0 19 0;
#X connect 18 0 17 1;
#X connect 19 0 23 0;
#X connect 20 0 21 0;
#X connect 21 0 27 0;
#X connect 22 0 17 0;
#X connect 22 0 0 0;
#X connect 22 0 5 0;
#X connect 22 0 10 0;
#X connect 23 0 20 0;
#X connect 24 0 3 0;
#X connect 25 0 22 0;
#X connect 31 0 17 0;
#X connect 31 0 0 0;
#X connect 31 0 5 0;
#X connect 31 0 10 0;
#X connect 31 0 26 0;
#X connect 32 0 25 0;
