#N canvas 268 404 836 519 12;
#X declare -lib Gem;
#X declare -lib Gem;
#X obj 38 96 gemframebuffer;
#X obj 38 142 t a a b;
#X obj 38 119 translateXYZ 0 0 -4;
#X obj 186 51 loadbang;
#X obj 38 166 t a b;
#X msg 82 168 snap;
#X obj 38 218 t a b;
#X msg 218 232 1;
#X msg 143 97 dimen 1024 768;
#X obj 38 194 pix_snap 0 0 1024 768;
#X obj 38 73 gemhead 11;
#X obj 38 254 pix_buffer_write framebuffer;
#X obj 38 279 pix_buffer framebuffer 2;
#X obj 228 279 separator;
#X obj 226 518 outlet;
#X obj 405 243 t a b;
#X msg 582 244 1;
#X obj 405 218 gemhead 22;
#X obj 405 265 pix_buffer_read framebuffer;
#X obj 404 518 outlet;
#X obj 399 187 declare -lib Gem;
#X obj 39 44 declare -lib Gem;
#X obj 556 468 pix_texture;
#X obj 559 505 rectangle 5.36 4.02, f 23;
#X floatatom 651 448 5 0 0 0 - - - 0;
#X floatatom 712 451 5 0 0 0 - - - 0;
#X obj 651 472 / 10;
#X obj 709 472 / 10;
#X obj 663 419 unpack 0 0;
#X msg 665 395 27 39;
#X obj 668 369 loadbang;
#X text 422 320 this can be passed through pix_* effects but must eventually be rendered to a pix_texture;
#X connect 0 0 2 0;
#X connect 1 0 4 0;
#X connect 1 1 13 0;
#X connect 2 0 1 0;
#X connect 3 0 8 0;
#X connect 4 0 9 0;
#X connect 4 1 5 0;
#X connect 5 0 9 0;
#X connect 6 0 11 0;
#X connect 6 1 7 0;
#X connect 7 0 11 1;
#X connect 8 0 0 0;
#X connect 9 0 6 0;
#X connect 10 0 0 0;
#X connect 13 0 14 0;
#X connect 15 0 18 0;
#X connect 15 1 16 0;
#X connect 16 0 18 1;
#X connect 17 0 15 0;
#X connect 18 0 19 0;
#X connect 22 0 23 0;
#X connect 24 0 26 0;
#X connect 25 0 27 0;
#X connect 26 0 23 1;
#X connect 27 0 23 2;
#X connect 28 0 24 0;
#X connect 28 1 25 0;
#X connect 29 0 28 0;
#X connect 30 0 29 0;
