#N canvas 5 283 486 481 12;
#X obj 68 176 else/square~;
#X floatatom 68 136 5 0 0 0 - - - 0;
#X obj 67 111 mtof;
#X floatatom 67 81 5 0 0 0 - - - 0;
#X obj 68 214 *~;
#X obj 200 176 else/saw~;
#X obj 68 241 else/lowpass~ 12000;
#X obj 149 131 else/adsr~ 0 100 0 100;
#X obj 241 66 inlet;
#X obj 65 25 inlet;
#X obj 67 363 outlet~;
#X obj 68 265 *~ 0.6;
#X connect 0 0 4 0;
#X connect 1 0 0 0;
#X connect 1 0 5 0;
#X connect 2 0 1 0;
#X connect 3 0 2 0;
#X connect 3 0 7 0;
#X connect 4 0 6 0;
#X connect 5 0 4 0;
#X connect 6 0 11 0;
#X connect 7 0 4 1;
#X connect 8 0 7 3;
#X connect 9 0 3 0;
#X connect 11 0 10 0;
