#N canvas 460 34 959 710 12;
#X declare -path else;
#X obj 85 608 out~;
#X text 500 274 [spectrograph~];
#X text 555 444 22.05 Khz;
#X text 207 443 0 hz;
#X obj 211 296 spectrograph~ 1024 1 0 400 140 100;
#X obj 23 18 declare -path else;
#X floatatom 63 99 5 0 0 0 - - - 0;
#X floatatom 141 126 5 0 0 0 - - - 0;
#X obj 321 67 tempo 240 -on;
#X obj 324 94 sequencer 42 40 40 45 40 49 52 52 45 43 43 47 50 54 55, f 29;
#X obj 193 36 tgl 19 0 empty empty empty 0 -10 0 12 #fcfcfc #000000 #000000 0 1;
#X obj 137 76 metro 1000;
#X obj 83 213 - 11;
#X obj 238 117 bng 19 250 50 0 empty empty empty 0 -10 0 12 #fcfcfc #000000 #000000;
#X obj 75 240 alien_wavetable2~;
#X connect 6 0 14 0;
#X connect 7 0 14 1;
#X connect 8 0 9 0;
#X connect 9 0 12 0;
#X connect 9 0 13 0;
#X connect 10 0 11 0;
#X connect 11 0 6 0;
#X connect 12 0 14 0;
#X connect 13 0 14 2;
#X connect 14 0 4 0;
#X connect 14 0 0 0;
